<svg width="51" height="40" viewBox="0 0 51 40" fill="none" xmlns="http://www.w3.org/2000/svg">
<path d="M15.667 22.5C15.667 15.3125 20.042 9.14062 26.292 6.40625C23.9482 4.76562 21.1357 3.75 18.167 3.75C10.5107 3.75 4.41699 9.92188 4.41699 17.5C4.41699 25.0781 10.4326 31.1719 18.0107 31.25C16.4482 28.6719 15.667 25.7031 15.667 22.5ZM18.167 35C8.47949 35 0.666992 27.1875 0.666992 17.5C0.666992 7.89062 8.47949 0 18.167 0C23.0107 0 27.3857 2.03125 30.5889 5.23438C31.3701 5.07812 32.2295 5 33.167 5C42.7764 5 50.667 12.8906 50.667 22.5C50.667 32.1875 42.7764 40 33.167 40C28.2451 40 23.8701 38.0469 20.667 34.8438C19.8857 35 19.0264 35 18.167 35ZM33.167 36.25C40.7451 36.25 46.917 30.1562 46.917 22.5C46.917 15 40.8232 8.90625 33.3232 8.75C34.8076 11.3281 35.667 14.375 35.667 17.5C35.667 24.7656 31.292 30.9375 25.042 33.5938C27.3076 35.3125 30.1201 36.25 33.167 36.25Z" fill="#00A35C"/>
</svg>
