<svg width="40" height="42" viewBox="0 0 40 42" fill="none" xmlns="http://www.w3.org/2000/svg">
<path d="M36.25 21C36.25 15.2188 33.125 9.90625 28.125 6.9375C23.0469 4.04688 16.875 4.04688 11.875 6.9375C6.79688 9.90625 3.75 15.2188 3.75 21C3.75 26.8594 6.79688 32.1719 11.875 35.1406C16.875 38.0312 23.0469 38.0312 28.125 35.1406C33.125 32.1719 36.25 26.8594 36.25 21ZM0 21C0 13.8906 3.75 7.32812 10 3.73438C16.1719 0.140625 23.75 0.140625 30 3.73438C36.1719 7.32812 40 13.8906 40 21C40 28.1875 36.1719 34.75 30 38.3438C23.75 41.9375 16.1719 41.9375 10 38.3438C3.75 34.75 0 28.1875 0 21Z" fill="#00A35C"/>
</svg>
