<svg width="41" height="42" viewBox="0 0 41 42" fill="none" xmlns="http://www.w3.org/2000/svg">
<path d="M36.584 21C36.584 15.2188 33.459 9.90625 28.459 6.9375C23.3809 4.04688 17.209 4.04688 12.209 6.9375C7.13086 9.90625 4.08398 15.2188 4.08398 21C4.08398 26.8594 7.13086 32.1719 12.209 35.1406C17.209 38.0312 23.3809 38.0312 28.459 35.1406C33.459 32.1719 36.584 26.8594 36.584 21ZM0.333984 21C0.333984 13.8906 4.08398 7.32812 10.334 3.73438C16.5059 0.140625 24.084 0.140625 30.334 3.73438C36.5059 7.32812 40.334 13.8906 40.334 21C40.334 28.1875 36.5059 34.75 30.334 38.3438C24.084 41.9375 16.5059 41.9375 10.334 38.3438C4.08398 34.75 0.333984 28.1875 0.333984 21ZM20.334 29.75C23.459 29.75 26.2715 28.1094 27.834 25.375C29.4746 22.7188 29.4746 19.3594 27.834 16.625C26.2715 13.9688 23.459 12.25 20.334 12.25C17.1309 12.25 14.3184 13.9688 12.7559 16.625C11.1152 19.3594 11.1152 22.7188 12.7559 25.375C14.3184 28.1094 17.1309 29.75 20.334 29.75ZM20.334 8.5C24.7871 8.5 28.8496 10.9219 31.1152 14.75C33.3809 18.6562 33.3809 23.4219 31.1152 27.25C28.8496 31.1562 24.7871 33.5 20.334 33.5C15.8027 33.5 11.7402 31.1562 9.47461 27.25C7.20898 23.4219 7.20898 18.6562 9.47461 14.75C11.7402 10.9219 15.8027 8.5 20.334 8.5ZM20.334 22.25C20.959 22.25 21.584 21.7031 21.584 21C21.584 20.375 20.959 19.75 20.334 19.75C19.6309 19.75 19.084 20.375 19.084 21C19.084 21.7031 19.6309 22.25 20.334 22.25ZM20.334 16C22.0527 16 23.6934 17.0156 24.6309 18.5C25.4902 20.0625 25.4902 22.0156 24.6309 23.5C23.6934 25.0625 22.0527 26 20.334 26C18.5371 26 16.8965 25.0625 15.959 23.5C15.0996 22.0156 15.0996 20.0625 15.959 18.5C16.8965 17.0156 18.5371 16 20.334 16Z" fill="#00A35C"/>
</svg>
