<svg width="41" height="40" viewBox="0 0 41 40" fill="none" xmlns="http://www.w3.org/2000/svg">
<path d="M18.792 6.875H22.542V3.125H18.792V6.875ZM15.667 2.5C15.667 1.17188 16.7607 0 18.167 0H23.167C24.4951 0 25.667 1.17188 25.667 2.5V3.90625C30.9014 5.54688 35.1201 9.76562 36.7607 15H38.167C39.4951 15 40.667 16.1719 40.667 17.5V22.5C40.667 23.9062 39.4951 25 38.167 25H36.7607C35.1201 30.3125 30.9014 34.5312 25.667 36.1719V37.5C25.667 38.9062 24.4951 40 23.167 40H18.167C16.7607 40 15.667 38.9062 15.667 37.5V36.1719C10.3545 34.5312 6.13574 30.3125 4.49512 25H3.16699C1.76074 25 0.666992 23.9062 0.666992 22.5V17.5C0.666992 16.1719 1.76074 15 3.16699 15H4.49512C6.13574 9.76562 10.3545 5.54688 15.667 3.90625V2.5ZM8.47949 15.0781C9.72949 15.2344 10.667 16.25 10.667 17.5V22.5C10.667 23.8281 9.72949 24.8438 8.47949 25C9.80762 28.2812 12.3857 30.8594 15.667 32.1875C15.8232 30.9375 16.8389 30 18.167 30H23.167C24.417 30 25.4326 30.9375 25.5889 32.1875C28.8701 30.8594 31.4482 28.2812 32.7764 25C31.6045 24.8438 30.667 23.8281 30.667 22.5V17.5C30.667 16.25 31.6045 15.2344 32.7764 15.0781C31.4482 11.7969 28.8701 9.21875 25.5889 7.89062C25.4326 9.0625 24.417 10 23.167 10H18.167C16.8389 10 15.8232 9.0625 15.667 7.89062C12.3857 9.21875 9.80762 11.7969 8.47949 15.0781ZM33.792 18.125V21.875H37.542V18.125H33.792ZM18.792 33.125V36.875H22.542V33.125H18.792ZM3.79199 18.125V21.875H7.54199V18.125H3.79199Z" fill="#00A35C"/>
</svg>
