<svg width="38" height="40" viewBox="0 0 38 40" fill="none" xmlns="http://www.w3.org/2000/svg">
<path d="M29.084 6.25C29.084 7.65625 30.1777 8.75 31.584 8.75C32.9121 8.75 34.084 7.65625 34.084 6.25C34.084 4.92188 32.9121 3.75 31.584 3.75C30.1777 3.75 29.084 4.92188 29.084 6.25ZM26.7402 10.2344L12.7559 15.7812C12.7559 15.9375 12.834 16.0938 12.834 16.25C12.834 17.1875 12.5996 18.0469 12.2871 18.8281L23.3027 28.4375C24.0059 27.9688 24.8652 27.6562 25.8027 27.5781L28.6152 11.7969C27.9121 11.4062 27.209 10.8594 26.7402 10.2344ZM32.3652 12.5L29.4746 28.2812C31.4277 29.2969 32.834 31.4062 32.834 33.75C32.834 37.2656 30.0215 40 26.584 40C23.0684 40 20.334 37.2656 20.334 33.75C20.334 32.8906 20.4902 32.0312 20.8027 31.25L9.78711 21.6406C8.84961 22.1875 7.75586 22.5 6.58398 22.5C3.06836 22.5 0.333984 19.7656 0.333984 16.25C0.333984 12.8125 3.06836 10 6.58398 10C8.53711 10 10.2559 10.9375 11.3496 12.3438L25.334 6.79688C25.334 6.64062 25.334 6.40625 25.334 6.25C25.334 2.8125 28.0684 0 31.584 0C35.0215 0 37.834 2.8125 37.834 6.25C37.834 9.45312 35.4121 12.1094 32.3652 12.5ZM24.084 33.75C24.084 35.1562 25.1777 36.25 26.584 36.25C27.9121 36.25 29.084 35.1562 29.084 33.75C29.084 32.4219 27.9121 31.25 26.584 31.25C25.1777 31.25 24.084 32.4219 24.084 33.75ZM6.58398 13.75C5.17773 13.75 4.08398 14.9219 4.08398 16.25C4.08398 17.6562 5.17773 18.75 6.58398 18.75C7.91211 18.75 9.08398 17.6562 9.08398 16.25C9.08398 14.9219 7.91211 13.75 6.58398 13.75Z" fill="#00A35C"/>
</svg>
