<svg width="110" height="52" viewBox="0 0 110 52" fill="none" xmlns="http://www.w3.org/2000/svg">
<g clip-path="url(#clip0_125_662)">
<path fill-rule="evenodd" clip-rule="evenodd" d="M24.5785 19.8092C24.5785 19.8092 20.6084 1.51748 20.5225 1.05933C20.4366 0.601179 20.5912 0.431494 20.5912 0.431494H14.1119C14.3354 0.601179 14.1807 1.04208 14.1807 1.04208C14.1807 1.04208 9.98717 19.1305 9.84968 19.7074C9.71219 20.2844 9.40283 20.4031 9.40283 20.4031H15.504C15.3494 20.2677 15.3837 19.8435 15.3837 19.8435L15.779 17.1964H18.8038C18.8038 17.1964 19.1132 19.3514 19.1648 19.8265C19.2163 20.3019 19.0445 20.4034 19.0445 20.4034H24.9569C24.7332 20.3186 24.5785 19.8092 24.5785 19.8092ZM16.3465 13.5484L17.3261 7.1004L18.2713 13.5484H16.3465ZM34.6842 10.0869C34.6842 10.0869 38.2589 9.69658 38.1386 5.16599C37.9668 0.211186 31.7968 0.465714 31.7968 0.465714H25.0425C25.1972 0.635682 25.2488 1.21261 25.2488 1.21261V19.6913C25.2488 20.0643 25.0597 20.4379 25.0597 20.4379H32.5702C34.4951 20.4379 38.9805 19.6234 38.8605 14.9571C38.7402 10.2902 34.6842 10.0869 34.6842 10.0869ZM32.8796 6.33654C32.9827 8.50879 30.9719 8.35607 30.8344 8.35607C30.8344 6.37076 30.8 4.50422 30.8 4.50422C30.8 4.50422 32.7767 4.16485 32.8796 6.33654ZM30.7828 16.0937V11.987C30.7828 11.987 33.0686 11.614 33.0686 14.0572C33.0686 16.5004 30.7828 16.0937 30.7828 16.0937ZM46.3022 7.23587C45.2355 6.39225 44.6864 4.86028 46.68 4.69059C48.7934 4.70699 50.1692 6.04807 50.1692 6.04807V0.771147C50.0145 0.906613 49.7567 0.923864 49.4302 0.788116C49.1033 0.652368 48.3643 0.381154 47.574 0.228438C45.0304 -0.246963 43.0196 0.312998 41.8509 1.16171C40.6822 2.01013 39.8573 2.90946 39.7198 5.70927C39.5826 8.50879 40.7773 9.70365 42.4181 11.3256C44.3392 12.7795 44.8929 13.3109 45.3911 13.9217C45.9754 14.4987 46.0098 15.8389 44.0849 16.0258C42.0912 16.0937 39.7367 14.0575 39.7367 14.0575V19.7419C39.9429 19.6062 40.3039 19.7419 41.0944 20.1662C43.0021 21.2182 46.5597 21.2182 48.8112 19.708C51.0626 18.1978 51.7672 14.482 51.097 12.2761C50.4267 10.0702 48.14 8.68837 46.3022 7.23587ZM59.2262 0.0242501C59.2262 0.0242501 51.7246 -1.01168 51.7246 10.3903C51.7246 21.7923 59.2262 20.8729 59.2262 20.8729C59.2262 20.8729 66.7436 21.5171 66.7436 10.3903C66.7436 -0.736505 59.2262 0.0242501 59.2262 0.0242501ZM59.2262 16.1907C59.2262 16.1907 57.4299 16.8731 57.4299 10.3906C57.4299 3.90806 59.2262 4.4174 59.2262 4.4174C59.2262 4.4174 60.9354 3.91174 60.9354 10.3906C60.9354 16.8692 59.2262 16.1907 59.2262 16.1907ZM73.6116 15.7371V1.14417C73.6116 0.651802 73.7659 0.448463 73.7659 0.448463H67.7682C68.0259 0.804802 67.9572 1.19508 67.9572 1.19508V19.572C67.9572 20.2847 67.7682 20.3865 67.7682 20.3865H77.685V15.5335C77.5126 15.7034 76.9629 15.7371 76.9629 15.7371H73.6116ZM86.7071 1.24627V14.8887C86.7071 14.8887 86.7335 16.331 85.2726 16.331C83.8117 16.331 83.6614 14.8887 83.6614 14.8887V1.16142C83.6614 0.601462 83.8504 0.448463 83.8504 0.448463H78.0107C78.1657 0.533588 78.2344 1.16142 78.2344 1.16142V14.8887C78.2344 14.8887 78.3765 20.8785 85.1649 20.8785C91.9538 20.8785 92.0518 14.8547 92.0518 14.8547V1.12749C92.0518 0.73721 92.2242 0.482683 92.2242 0.482683H86.4837C86.673 0.686305 86.7071 1.24627 86.7071 1.24627ZM92.8773 5.30174C93.1695 5.11509 93.6164 5.13205 93.6164 5.13205H96.1769V19.6738C96.1769 20.2337 96.005 20.4034 96.005 20.4034H102.02C101.831 20.2168 101.831 19.6398 101.831 19.6398V5.13205H104.443C104.873 5.13205 105.097 5.30174 105.097 5.30174V0.465431H92.877V5.30174H92.8773ZM108.019 0.093821C106.942 0.093821 106.03 0.912269 106.03 2.02116C106.03 3.1408 106.942 3.95868 108.019 3.95868C109.086 3.95868 109.996 3.1408 109.996 2.02116C109.996 0.911986 109.085 0.093821 108.019 0.093821ZM108.019 3.63628C107.123 3.63628 106.424 2.95132 106.424 2.02116C106.424 1.10599 107.123 0.416223 108.019 0.416223C108.904 0.416223 109.603 1.10571 109.603 2.02116C109.603 2.95132 108.904 3.63628 108.019 3.63628Z" fill="#131313"/>
<path fill-rule="evenodd" clip-rule="evenodd" d="M108.919 1.5456C108.919 1.10583 108.655 0.912109 108.122 0.912109H107.263V3.14092H107.604V2.17457H107.998L108.593 3.14092H108.976L108.335 2.15929C108.666 2.11829 108.919 1.94436 108.919 1.5456ZM107.604 1.88836V1.19831H108.071C108.308 1.19831 108.562 1.2495 108.562 1.52524C108.562 1.86772 108.303 1.88836 108.014 1.88836H107.604ZM90.082 51.5125H95.9944C95.7713 51.4276 95.6163 50.9186 95.6163 50.9186C95.6163 50.9186 91.6465 32.6265 91.5603 32.1684C91.4747 31.7102 91.6291 31.5406 91.6291 31.5406H85.1501C85.3732 31.7102 85.2188 32.1514 85.2188 32.1514C85.2188 32.1514 81.025 50.2396 80.8875 50.8165C80.75 51.3934 80.441 51.5122 80.441 51.5122H86.5419C86.3875 51.3767 86.4216 50.9525 86.4216 50.9525L86.8171 48.3054H89.8417C89.8417 48.3054 90.151 50.4602 90.2032 50.9356C90.2542 51.411 90.082 51.5125 90.082 51.5125ZM87.3837 44.6575L88.3639 38.2095L89.3089 44.6575H87.3837ZM41.849 31.1333C41.849 31.1333 34.3471 30.0974 34.3471 41.4994C34.3471 52.9016 41.849 51.9819 41.849 51.9819C41.849 51.9819 49.3661 52.6262 49.3661 41.4994C49.3661 30.3726 41.849 31.1333 41.849 31.1333ZM41.849 47.2998C41.849 47.2998 40.0524 47.9822 40.0524 41.4996C40.0524 35.0171 41.849 35.5265 41.849 35.5265C41.849 35.5265 43.5579 35.0211 43.5579 41.4996C43.5579 47.9782 41.849 47.2998 41.849 47.2998ZM56.4082 31.5519H50.3927C50.5817 31.8064 50.5992 32.1458 50.5992 32.1458V50.862C50.5992 51.2184 50.4445 51.575 50.4445 51.575H56.6145C62.1485 51.575 63.6956 46.7387 63.6956 46.7387C63.6956 46.7387 65.4824 42.3438 63.85 36.8121C62.2175 31.2804 56.4082 31.5519 56.4082 31.5519ZM55.9614 47.4341V35.5564C55.9614 35.5564 58.7284 35.1662 58.7284 41.4615C58.7284 47.7568 55.9614 47.4341 55.9614 47.4341ZM79.9875 51.0484L76.069 40.8164C76.069 40.8164 79.8844 32.6209 80.0735 32.2473C80.2625 31.8737 80.5547 31.5685 80.5547 31.5685H74.1785C74.2813 31.6704 74.2472 32.0946 74.2472 32.0946L71.3599 39.7643V32.1794C71.3599 31.7382 71.549 31.5855 71.549 31.5855H65.5337C65.6881 31.6704 65.7568 32.1624 65.7568 32.1624V50.8275C65.7568 51.3535 65.5503 51.5744 65.5503 51.5744H71.6002C71.4112 51.3878 71.3937 50.7769 71.3937 50.7769V42.4623C71.3937 42.4623 73.9548 50.4375 74.092 50.8451C74.2295 51.252 73.9891 51.5577 73.9891 51.5577H80.3138C80.1528 51.4508 79.9875 51.0484 79.9875 51.0484ZM30.6434 50.8869C30.7293 50.4288 34.6994 32.1367 34.6994 32.1367C34.6994 32.1367 34.8541 31.6277 35.0775 31.5428H29.1651C29.1651 31.5428 29.3372 31.6443 29.2854 32.1197C29.2338 32.5949 28.9244 34.7499 28.9244 34.7499L27.4464 44.8458L25.8996 34.7499L25.5043 32.1028C25.5043 32.1028 25.47 31.6786 25.6246 31.5431H19.5234C19.5234 31.5431 19.8325 31.6619 19.9703 32.2388C20.1081 32.8157 24.3013 50.9039 24.3013 50.9039C24.3013 50.9039 24.456 51.3453 24.2325 51.5147H30.7118C30.7124 51.5147 30.5577 51.3451 30.6434 50.8869Z" fill="#131313"/>
<path fill-rule="evenodd" clip-rule="evenodd" d="M50.5991 26.2024C47.9867 28.1707 46.9209 28.9343 46.9209 28.9343L50.0491 23.2841H48.7773C47.4367 25.7442 46.8524 26.6099 46.4571 27.1356C46.0615 27.6616 45.804 28.188 45.0134 28.6122C44.2229 29.0364 44.2744 28.5104 44.2744 28.3743C44.2744 28.2389 44.5666 27.7126 45.1163 26.9493C45.6662 26.1857 45.9756 25.8463 46.3537 24.8452C46.7318 23.844 46.3365 23.2501 46.0272 23.182C45.7178 23.1144 45.0816 23.182 44.4804 23.7589C43.8788 24.3361 41.2837 27.628 40.8884 28.0013C40.4931 28.3743 40.3556 28.3916 39.8916 28.5782C39.4275 28.7649 39.4275 28.4934 39.4447 28.2728C39.4619 28.0522 39.9947 27.0511 40.5962 26.2705C41.1978 25.49 41.9368 24.8624 42.263 24.0307C42.5899 23.1992 42.1258 22.8598 41.4384 22.9956C40.7509 23.1313 40.5619 22.9617 40.5619 22.9617C40.5619 22.9617 41.0431 22.2487 41.2837 21.9266C41.524 21.6042 41.6962 21.0445 41.4212 20.9257C41.1462 20.8067 40.7681 21.0782 40.39 21.5702C40.0119 22.0623 39.9603 22.639 39.9431 23.0804C39.101 24.4209 37.5027 26.3726 36.6433 27.3904C35.784 28.4083 35.1135 28.6631 34.77 28.5613C34.4263 28.4597 34.5466 27.5092 34.8388 26.8474C35.1309 26.1857 37.1589 23.0295 37.1589 23.0295H38.362L38.5338 22.6223H37.3652L39.0323 19.7037H37.8636L36.0246 22.7074H34.7013L34.5638 23.0465C34.5638 23.0465 35.1484 23.0637 35.8012 23.0465C33.5841 27.0683 32.5358 27.8486 32.0717 28.2558C31.6077 28.6631 31.2983 28.7819 31.0234 28.6631C30.7484 28.5443 30.8859 28.1201 31.1093 27.7807C31.3327 27.4413 32.6389 25.5918 32.8623 24.4382C33.0854 23.2843 32.6902 23.1144 31.9342 23.1316C31.178 23.1486 30.0784 24.3191 29.7516 24.5739C29.9237 22.5377 28.6001 22.8941 27.672 23.8443C26.7439 24.7943 24.9737 27.238 24.5271 27.7471C24.0803 28.2561 23.5131 28.5785 23.3585 28.5276C23.2038 28.4767 23.2382 28.3073 23.4444 27.6622C23.6506 27.0171 25.7299 23.3352 25.7299 23.3352H24.5956C22.7933 26.3933 21.5364 27.7128 21.0898 28.137C20.6427 28.5613 20.2477 28.7312 20.0071 28.6464C19.7665 28.5613 20.0243 28.171 20.2133 27.8828C20.4024 27.5941 21.5367 25.8805 21.8976 25.3375C22.2585 24.7943 22.6882 23.6407 22.1039 23.3689C21.5195 23.0977 20.8149 23.5389 20.1102 23.98C19.4059 24.4212 18.6494 25.4054 18.2885 25.4391C19.1638 23.7728 18.615 23.0637 18.2369 22.9617C17.8588 22.8601 17.2057 23.0128 16.1917 23.7422C15.1774 24.4719 12.531 27.1698 11.8435 27.7128C11.1561 28.2558 7.75313 30.2921 6.03448 28.697C4.31583 27.1017 6.17197 23.4368 6.67038 22.5205C12.187 21.6548 15.0574 18.3632 15.3496 17.1924C15.6417 16.0213 14.6965 15.6143 14.1121 15.6652C8.92153 16.3948 5.82824 20.8406 5.02019 22.0623C3.67965 22.0451 0.0363975 21.1121 0.946995 17.5996C1.85817 14.0871 5.93108 14.0702 5.93108 14.0702C5.93108 14.0702 5.9136 14.0193 5.93108 13.9177C2.44193 13.3069 -0.410738 16.1067 0.053011 18.8725C0.517333 21.6384 3.09531 22.1135 4.7793 22.5377C3.09531 27.2041 4.43585 29.5118 7.22006 29.6815C10.0043 29.8514 12.3585 27.9676 13.3382 27.3228C13.2353 27.6116 13.1319 29.3251 14.3525 29.3251C15.5724 29.3251 17.3945 26.6271 17.7382 26.1353C18.0819 26.1181 18.1504 25.9826 18.4944 25.7787C18.8381 25.5748 20.2646 24.3364 20.5396 24.1497C20.8146 23.9631 21.2445 23.7083 21.4851 23.7934C21.7257 23.8782 21.657 24.0985 20.9524 24.9642C20.2477 25.8299 19.5774 26.7629 19.285 27.4077C18.9928 28.0525 18.8897 28.9691 19.8009 29.2063C20.7117 29.4439 22.3101 27.5604 22.3101 27.5604C22.3101 27.5604 22.1382 29.0536 22.8601 29.1557C23.5819 29.2573 24.2006 28.867 25.5068 27.1701C26.8129 25.4733 27.8098 24.2858 28.2394 23.8613C28.6691 23.4373 29.2362 23.641 28.7894 24.4552C28.3425 25.2699 26.2114 29.0539 26.2114 29.0539H27.5176C29.2362 26.1356 30.5596 24.3025 31.4533 23.8616C32.347 23.4207 32.0205 23.9634 31.7111 24.5236C30.594 26.2544 30.3534 26.865 30.1987 27.3404C30.044 27.8155 29.855 29.02 30.9205 29.156C31.9858 29.2915 32.7938 28.1376 33.5841 27.3743C33.9966 29.7496 35.3374 29.0539 36.1449 28.477C36.9524 27.9001 39.4104 24.4724 40.3041 23.3016C41.5584 23.2677 41.249 23.7258 40.974 24.167C40.6993 24.6084 39.5648 25.8978 39.2554 26.3053C38.9458 26.7123 38.0352 28.1718 39.0835 28.9521C40.1319 29.7329 41.6271 27.7473 42.6239 26.5595C43.6205 25.3717 44.3942 24.0315 45.1332 23.794C45.8722 23.5564 45.7863 23.9125 45.6144 24.3197C45.4425 24.7269 44.1707 26.3559 43.6382 27.1365C43.1055 27.9173 43.0711 28.9521 43.7585 29.2236C44.4457 29.4954 45.7006 28.8166 45.7006 28.8166C45.7006 28.8166 45.666 28.9354 45.0475 29.8687C39.3416 33.0079 39.3244 35.078 39.3244 35.078C39.3244 35.078 39.0151 36.8427 41.0087 36.1131C44.2226 34.6029 45.89 30.8529 46.5428 29.6481C48.3817 28.2906 50.7534 26.3735 50.7534 26.3735C50.7534 26.3735 50.7537 26.3211 50.5991 26.2024ZM13.0981 16.2758C13.5453 16.1231 14.5074 15.8685 14.8168 16.3267C15.1261 16.7848 14.7824 17.5145 14.559 17.8708C14.3356 18.2272 11.2248 21.5872 6.94537 21.9263C6.94565 21.9263 9.12834 18.0066 13.0981 16.2758ZM17.6528 25.5066C17.3263 25.3539 17.0167 25.1333 16.8279 25.32C16.6388 25.5066 16.7591 25.9648 17.1713 26.1684C16.7073 27.0508 15.5045 28.9176 14.473 28.8837C14.473 28.8837 13.9062 28.7985 14.1809 28.2049C14.4556 27.6113 15.7964 25.1336 17.446 23.4877C17.6525 23.3177 18.1507 23.0295 18.2882 23.7419C18.4259 24.4543 17.8075 25.2863 17.6528 25.5066ZM40.2356 35.9083C38.8953 35.8065 40.3218 33.8549 40.3218 33.8549C40.3218 33.8549 42.0577 31.8017 44.7213 30.563C44.7213 30.5633 41.9534 36.0382 40.2356 35.9083ZM66.3247 18.9059C64.0713 20.0046 62.8012 22.1469 61.3747 24.3016C60.8769 24.6243 59.9485 25.1164 59.5017 25.3706C59.0545 25.6251 58.9692 25.4724 58.8829 25.4218C59.7938 23.7759 59.8451 23.0292 59.2785 22.7578C58.7114 22.4863 57.852 22.9614 56.8724 23.5383C55.8928 24.1152 53.0226 27.4411 52.6445 27.7977C52.2664 28.154 51.2696 28.9852 51.2696 28.9852L51.4071 29.1891C52.3524 28.5104 53.8304 27.2035 53.8304 27.2035C53.8304 27.2035 53.6242 29.0361 54.7241 29.3076C56.2362 29.6639 58.0064 26.8978 58.6251 25.9648C58.9345 26.1005 59.691 25.7106 60.8597 25.0655C60.2063 26.2363 59.0548 28.6795 58.1614 30.563C57.2674 32.4465 56.8724 33.5155 56.8377 34.8051C56.8037 36.0947 58.4192 36.9262 60.086 34.313C61.7531 31.7002 62.0284 28.7134 62.1315 28.0856C64.1079 27.5256 64.6232 26.1851 64.6232 26.1851C64.6232 26.1851 64.5204 26.1851 64.3485 26.2021C63.6267 27.1014 62.5611 27.492 62.2177 27.5426C62.2002 27.1523 62.2329 26.9099 61.8049 26.4227L61.5961 26.184C61.5961 26.184 61.8069 25.5915 62.1143 25.014C62.6474 24.0131 62.6474 24.4034 64.7269 22.8593C66.8065 21.3149 67.2533 19.4144 67.2533 19.4144C67.2533 19.4144 67.6824 18.2441 66.3247 18.9059ZM58.5045 25.184C58.1611 24.9803 57.903 24.8279 57.6627 25.0994C57.4221 25.3706 57.8171 25.727 58.1439 25.8966C57.6974 26.6263 56.1331 29.2564 54.9816 28.7646C54.9816 28.7646 54.6035 28.6795 54.8095 28.1198C55.016 27.5598 56.3222 24.3016 58.3668 23.1817C58.6595 23.0292 59.9829 22.5881 58.5045 25.184ZM59.3126 34.6696C57.9549 36.1965 57.8171 35.3481 57.8346 35.0766C57.852 34.8051 57.9208 34.0246 58.6598 32.2771C59.2686 30.8462 59.9161 29.4316 60.6016 28.035L61.6153 28.1704C61.6153 28.1707 61.2719 32.0056 59.3126 34.6696ZM61.7362 27.6277C61.3234 27.645 60.9797 27.5598 60.8769 27.5089L61.2891 26.7114C61.2891 26.7114 61.8044 27.0338 61.7362 27.6277ZM66.7713 19.5846C66.5481 20.1443 65.2763 22.5202 63.0252 23.4195C63.0252 23.4195 64.2454 20.7388 66.29 19.415C66.5478 19.2453 66.995 19.0247 66.7713 19.5846ZM77.1866 21.0442C77.2035 20.637 78.4234 19.4489 78.7333 19.0928C79.0421 18.7365 79.6096 17.6675 78.8705 17.4975C77.5647 17.362 76.8425 20.4843 76.8425 20.4843L74.1102 23.335C74.1102 23.335 73.0271 21.7569 70.7416 22.0284C67.5885 22.4025 66.3934 24.4382 66.1356 26.525C65.8778 28.6119 67.7509 30.1391 67.7509 30.1391L65.7401 32.4468L66.1872 32.4807L68.0777 30.3424C68.0777 30.3424 70.3122 31.8017 73.3365 30.3936C76.7397 28.7983 77.0662 25.5742 77.1694 24.3016C77.2722 23.0292 77.1694 21.4512 77.1866 21.0442ZM78.6299 18.0066C79.2315 18.1593 77.7881 19.6862 77.4097 19.9749C77.4097 19.9749 78.0287 17.8539 78.6299 18.0066ZM68.0433 29.8166C68.0433 29.8166 65.4654 28.0519 67.1665 24.777C68.8677 21.5021 73.4396 22.2487 73.818 23.6571C72.1162 25.337 68.318 29.5452 68.0433 29.8166ZM75.2614 26.6944C74.3158 28.544 72.4428 31.8698 68.3693 30.037C68.3693 30.037 72.4087 25.3706 74.0237 23.9625C74.1271 24.2852 74.3505 24.7937 73.7659 26.0157C73.6977 26.2363 73.8521 26.5417 74.0927 26.1857C74.3333 25.8296 74.763 25.0485 74.3505 23.6743C75.9829 21.9096 76.2923 21.6042 76.6532 21.2139C76.4816 22.8087 76.2479 24.7637 75.2614 26.6944ZM107.262 28.7476C106.781 28.9343 106.712 28.7137 106.747 28.527C106.781 28.3407 108.208 26.2705 108.448 25.8969C108.689 25.5233 109.428 24.1831 109.118 23.4535C108.603 22.2996 106.351 24.3189 105.75 24.8449C106.317 22.2826 104.581 23.1989 103.791 24.098C103 24.9976 100.44 27.6956 100.44 27.6956C100.44 27.6956 99.1847 29.087 98.6347 28.8664C97.6897 28.5101 98.6694 26.7965 98.9441 26.2702C101.075 25.7442 102.45 24.5903 102.364 23.674C102.278 22.7577 101.041 23.148 100.577 23.3853C97.8267 24.9634 97.4145 26.7451 97.1739 27.7123C96.9333 28.0689 96.2458 28.7813 95.6617 28.7646C95.0771 28.7474 95.2321 27.9498 95.438 27.5429C95.6446 27.1356 100.422 18.3629 100.422 18.3629H99.2706C99.2706 18.3629 97.0877 22.2484 96.3658 23.4365C96.3483 23.2838 96.1252 22.9611 95.7471 22.9611C94.1147 23.0459 93.0663 24.3013 92.0692 25.5064C91.0724 26.7111 90.6083 27.2032 90.2818 27.5426C89.9555 27.882 88.5462 29.2903 87.8757 28.7813C87.2054 28.2722 88.3741 26.3209 88.3741 26.3209C88.3741 26.3209 89.5259 26.1005 90.7461 25.2861C92.1723 24.3186 91.983 23.0123 91.0555 23.0799C88.9241 23.4532 88.0994 24.8785 87.3429 25.8627C86.7067 25.6424 86.3808 25.3876 86.1401 25.2009C86.243 24.9973 87.532 22.4014 86.5867 22.5878C85.6417 22.7744 85.4868 24.4883 85.4527 25.4385C84.3075 27.9445 83.2182 28.6286 82.7028 28.9001C82.187 29.1716 81.9638 28.8322 81.9979 28.5946C82.2901 27.2205 84.5934 23.3344 84.5934 23.3344H83.3906C81.2423 27.6274 79.489 28.8319 79.2484 28.9507C79.0877 29.0293 78.4578 29.1373 78.7671 28.4249C79.0765 27.712 80.5373 25.4894 80.8292 24.7425C80.8808 24.6237 81.4995 22.9269 79.9699 23.2662C78.4403 23.6056 77.4094 25.5737 77.4094 25.5737L77.6672 25.6079C78.664 24.2844 78.9737 24.1486 79.5062 23.8262C80.0386 23.5035 80.1764 23.7071 80.1764 24.0465C80.1764 24.3859 79.0765 25.7945 78.4753 26.7106C77.8737 27.6269 77.7362 29.2049 78.7159 29.307C79.6955 29.4086 80.417 28.4247 81.1563 27.8138C81.2251 28.6453 81.7579 29.7991 83.0294 29.1034C84.3015 28.4077 85.5217 26.1679 85.9342 25.5061C86.2435 25.6927 86.3985 25.8624 87.1203 26.219C86.2264 27.7632 86.5873 29.1546 87.8247 29.2561C89.0621 29.3579 90.4542 27.8986 91.0901 27.339C91.0727 27.4744 91.1242 29.3073 92.156 29.3073C93.1872 29.3073 93.7371 28.3401 94.4071 27.6614C94.6137 30.3085 96.7445 28.934 97.2429 28.3231C98.4972 30.9193 101.213 27.4238 101.797 26.8299C102.381 26.236 103.842 24.5734 104.169 24.2677C104.495 23.9619 104.787 23.6568 105.131 23.7583C105.475 23.8601 105.011 24.624 104.443 25.4894C103.877 26.3548 102.123 29.1373 102.123 29.1373H103.464C103.773 28.6622 105.509 26.1169 106.471 24.9292C107.984 23.419 108.294 23.6056 108.431 23.6905C108.568 23.7753 108.499 24.1825 107.881 24.9122C107.262 25.6418 106.317 26.9821 106.093 27.4063C105.87 27.8305 105.647 29.307 106.661 29.3237C107.675 29.3407 108.723 27.6269 108.723 27.6269C108.723 27.6269 108.62 27.576 108.483 27.542C108.397 27.6956 107.744 28.561 107.262 28.7476ZM101.402 23.7586C101.694 23.6231 102.107 23.4535 101.918 23.9625C101.729 24.4716 100.904 25.5066 99.185 25.7951C99.185 25.7951 99.8212 24.5734 101.402 23.7586ZM89.8012 24.4379C90.6779 23.8098 91.1589 23.5556 91.3823 23.708C91.606 23.8607 90.7636 25.4388 88.5984 25.8121C88.5984 25.8121 88.9246 25.0655 89.8012 24.4379ZM94.8543 26.2363C94.1152 27.3053 92.8432 29.0022 92.1729 28.8325C92.1729 28.8325 91.7432 28.6461 91.9669 28.0013C92.1901 27.3565 93.445 24.947 95.0774 23.6743C95.3868 23.4704 95.9367 23.182 95.8505 23.9458C95.7649 24.7094 95.5933 25.1673 94.8543 26.2363Z" fill="black"/>
</g>
<defs>
<clipPath id="clip0_125_662">
<rect width="110" height="52" fill="white"/>
</clipPath>
</defs>
</svg>
