<svg width="159" height="40" viewBox="0 0 159 40" fill="none" xmlns="http://www.w3.org/2000/svg">
<g clip-path="url(#clip0_449_151)">
<path d="M59.1893 23.9138L56.2823 31.287H51.5889L64.3293 0H68.7955L81.536 31.2791H76.8425L73.9356 23.906H59.1893V23.9138ZM66.4762 4.91283C65.8807 6.69931 65.3401 8.25857 64.87 9.58276C64.392 10.9148 63.9611 12.0196 63.5693 12.9128L60.7093 20.1058H72.4233L69.5634 12.9128C69.1795 12.0196 68.7407 10.9148 68.2706 9.58276C67.7926 8.25857 67.2598 6.70715 66.6643 4.91283H66.4762Z" fill="#313B3F"/>
<path d="M88.0155 0H83.7295V31.287H88.0155V0Z" fill="#313B3F"/>
<path d="M96.0946 4.46621H91.8086V0H96.0946V4.46621ZM96.0946 31.287H91.8086V8.04701H96.0946V31.287Z" fill="#313B3F"/>
<path d="M117.078 27.7061C115.409 29.9392 112.948 31.0518 109.704 31.0518C106.461 31.0518 103.836 29.8922 101.838 27.5729C99.9023 25.3084 98.9307 22.519 98.9307 19.2124C98.9307 15.9059 99.8944 13.1165 101.838 10.852C103.836 8.52488 106.453 7.36523 109.704 7.36523C113.011 7.36523 115.471 8.47787 117.078 10.7188V8.03908H121.364V28.8187C121.364 32.4544 120.376 35.2203 118.417 37.1321C116.513 39.0361 113.826 39.9921 110.37 39.9921C107.84 39.9921 105.661 39.3809 103.843 38.1586C102.026 36.9676 100.913 35.3378 100.49 33.2849H104.956C105.16 34.1782 105.7 34.9382 106.562 35.565C107.573 36.2781 108.843 36.6307 110.363 36.6307C114.829 36.6307 117.07 34.0293 117.07 28.8109V27.7061H117.078ZM115.424 13.4064C114.084 11.7688 112.321 10.946 110.151 10.946C108.067 10.946 106.382 11.7688 105.097 13.4064C103.843 14.9891 103.217 16.9245 103.217 19.2124C103.217 21.5396 103.843 23.4749 105.097 25.0185C106.382 26.664 108.059 27.4788 110.151 27.4788C112.321 27.4788 114.084 26.664 115.424 25.0185C116.678 23.4671 117.297 21.5317 117.297 19.2124C117.305 16.9245 116.678 14.9891 115.424 13.4064Z" fill="#313B3F"/>
<path d="M136.377 7.37316C139.088 7.37316 141.188 8.1332 142.676 9.65328C144.165 11.2282 144.909 13.4535 144.909 16.3134V31.287H140.616V16.76C140.616 12.8893 138.829 10.9461 135.256 10.9461C133.376 10.9461 131.856 11.5651 130.696 12.7796C129.419 14.0646 128.776 15.8355 128.776 18.0999V31.287H124.49V0H128.776V11.1734C130.328 8.64251 132.859 7.37316 136.377 7.37316Z" fill="#313B3F"/>
<path d="M147.926 8.10164V2.74219H152.212V8.10164H158.245V11.6746H152.212V25.7549C152.212 26.562 152.345 27.1105 152.611 27.4082C152.909 27.7059 153.45 27.847 154.226 27.847H158.245V31.3416H153.324C149.72 31.3416 147.918 29.4768 147.918 25.7549V11.6746V8.10164H147.926Z" fill="#313B3F"/>
<path d="M30.6758 0L9.39471 21.2889C6.8952 18.7973 3.63565 17.0735 0 16.4858L16.4858 0H30.6758Z" fill="#313B3F"/>
<path d="M30.6756 21.2891V31.342H14.2917C13.8216 27.4399 12.0351 23.9296 9.39453 21.2891H30.6756Z" fill="#313B3F"/>
</g>
<defs>
<clipPath id="clip0_449_151">
<rect width="158.253" height="40" fill="white"/>
</clipPath>
</defs>
</svg>
