<svg width="46" height="50" viewBox="0 0 46 50" fill="none" xmlns="http://www.w3.org/2000/svg">
<g clip-path="url(#clip0_126_4923)">
<path fill-rule="evenodd" clip-rule="evenodd" d="M45.6487 49.5191V0.199707H0.202637V49.5191H45.6487Z" fill="black"/>
<path fill-rule="evenodd" clip-rule="evenodd" d="M5.50391 41.3806V35.6124H7.67875C8.90228 35.6124 9.7177 36.105 9.7177 37.3116C9.7177 38.5191 8.90187 39.0108 7.67875 39.0108H6.63643V41.381L5.50391 41.3806ZM6.63643 38.1171H7.54285C8.35826 38.1171 8.58477 37.8042 8.58477 37.3116C8.58477 36.8199 8.35826 36.5069 7.54285 36.5069H6.63643V38.1171ZM10.8506 41.3806V35.6124H14.702V36.5065H11.9378V37.8928H13.9315V38.832H11.9378V40.4414H14.7926V41.3806H10.8506ZM16.0157 41.3806V35.6124H17.1483L19.4594 39.503V35.6124H20.5466V41.3806H19.4594L17.0576 37.2673V41.3806H16.0157ZM24.8057 37.1328C24.6694 36.6862 24.3074 36.3728 23.7638 36.3728C23.3104 36.3728 22.9476 36.5512 22.9476 36.9983C22.9476 38.0273 25.9382 37.8038 25.9382 39.6814C25.9382 40.8441 25.2138 41.4253 23.8993 41.4253C22.9476 41.4253 22.0416 40.9335 21.7244 40.0841L22.6305 39.6814C22.9023 40.2178 23.2647 40.5759 23.8989 40.5759C24.4878 40.5759 24.8959 40.3524 24.8959 39.8159C24.8959 38.6983 21.9052 38.9214 21.9052 37.1328C21.9052 36.1046 22.766 35.5234 23.7634 35.5234C24.7143 35.5234 25.4852 35.9701 25.8468 36.8199L24.8057 37.1328ZM27.3883 41.3806V35.6124H28.5212V41.3806H27.3883ZM32.2363 41.4253C30.6507 41.4253 29.79 40.3524 29.79 38.4739C29.79 36.5963 30.6507 35.5234 32.2363 35.5234C33.8226 35.5234 34.6833 36.5963 34.6833 38.4739C34.6833 40.3524 33.8226 41.4253 32.2363 41.4253ZM32.2363 36.4618C31.3298 36.4618 30.9225 37.1328 30.9225 38.4739C30.8772 39.8159 31.3298 40.5308 32.2363 40.5308C33.1427 40.5308 33.5961 39.8159 33.5961 38.4739C33.5961 37.1328 33.1427 36.4618 32.2363 36.4618ZM35.8616 41.3806V35.6124H36.9945L39.3052 39.503V35.6124H40.3925V41.3806H39.3052L36.9035 37.2673V41.3806H35.8616Z" fill="white"/>
<path d="M9.40052 20.0322H12.5544L12.6242 20.2743L16.1132 32.3474L16.2356 32.7715H13.218L13.1527 32.5214L12.5385 30.1778H9.19891L8.49981 32.5322L8.4288 32.7715H5.41895L5.54342 32.3458L9.07729 20.2731L9.14789 20.0322H9.40052ZM9.88291 27.5889H11.8202L10.8677 23.9219L9.88291 27.5889ZM17.6265 32.4384V20.0322H21.4832L21.5517 20.2783L23.6054 27.6433L25.6586 20.2783L25.7272 20.0322H29.6292V32.7711H26.9605V25.1628L24.813 32.529L24.742 32.7711H22.4671L22.3974 32.5282L20.34 25.3549V32.7711H17.6265V32.4384Z" fill="white"/>
<path fill-rule="evenodd" clip-rule="evenodd" d="M35.0007 27.6094H39.6675V25.0158H35.0007V22.646H40.4829V20.0527H31.9644V32.7509H35.0007V27.6094Z" fill="white"/>
<path fill-rule="evenodd" clip-rule="evenodd" d="M36.7682 18.7109C34.6382 20.6336 32.2822 21.8858 30.6513 22.0646L30.4697 21.7964C31.648 21.2599 33.0078 20.4101 34.2305 19.2925L36.7682 18.7109Z" fill="black"/>
<path fill-rule="evenodd" clip-rule="evenodd" d="M28.295 10.6626C31.6476 9.05281 34.7293 8.87399 35.2272 10.2155C35.5443 11.0649 34.7289 12.3618 33.1883 13.5692C36.2242 11.87 38.1726 9.63437 37.6743 8.29323C37.1298 6.81757 33.6866 7.04109 29.9711 8.82968C27.3432 10.0814 25.3039 11.7806 24.5342 13.2116C25.4859 12.3167 26.7543 11.4226 28.295 10.6626ZM31.0587 15.4025C30.6967 14.6872 29.6544 14.508 28.6578 15.0449C28.1587 15.3131 27.7971 15.7601 27.5697 16.1625C27.7971 15.8938 28.0689 15.6256 28.4305 15.4472C29.2912 14.9554 30.2429 15.0896 30.5604 15.7158C30.9232 16.3864 30.4694 17.2809 29.5634 17.7279C29.4732 17.8174 29.3826 17.8621 29.2471 17.9068C29.504 17.8648 29.7501 17.7737 29.9715 17.6385C30.9232 17.1013 31.4211 16.1178 31.0587 15.4025ZM34.3212 19.4263C37.0401 16.9672 38.3991 14.1947 37.3572 13.2559C36.6319 12.6747 35.1366 12.9429 33.3695 13.8817C36.1336 11.7355 38.9427 10.7967 40.0299 11.7355C41.2081 12.7637 39.7128 15.8491 36.6772 18.5765C34.5028 20.4992 32.1463 21.7514 30.5604 21.9302C31.7386 21.4384 33.052 20.5443 34.3212 19.4263Z" fill="white"/>
<path d="M38.68 10.616C39.0001 10.2733 39.3 9.91276 39.5783 9.5362C39.1158 9.65554 38.6605 9.80035 38.2144 9.96996C38.2377 10.1452 38.3376 10.4037 38.68 10.616ZM36.6709 12.8238C35.2711 13.7605 33.7036 14.426 32.0518 14.7848L31.5825 14.8863L31.8486 14.492C32.7742 13.1226 33.9769 11.9374 35.3694 11.0058C36.7694 10.0688 38.3372 9.40333 39.9893 9.04485L40.4578 8.94336L40.1917 9.33765C39.2669 10.7066 38.0634 11.8919 36.6709 12.8238Z" fill="white"/>
</g>
<defs>
<clipPath id="clip0_126_4923">
<rect width="46" height="50" fill="white"/>
</clipPath>
</defs>
</svg>
