<svg width="134" height="20" viewBox="0 0 134 20" fill="none" xmlns="http://www.w3.org/2000/svg">
<g clip-path="url(#clip0_126_4908)">
<path fill-rule="evenodd" clip-rule="evenodd" d="M79.8516 1.17796H87.9185C92.1225 1.17796 93.2026 3.90353 93.2026 5.7343C93.2026 8.28695 92.044 9.00883 91.3185 9.37114C93.4272 10.2001 94.2042 11.9787 94.2042 13.7408C94.2042 15.1434 93.6249 16.4801 92.7153 17.4051C91.7408 18.3932 90.8041 19.0053 87.285 19.0053H79.8516V1.17796ZM83.4356 15.9449H87.8643C89.6049 15.9449 90.6201 15.1434 90.6201 13.3374C90.6201 11.7783 89.3288 11.1882 88.0213 11.1882H83.4384L83.4356 15.9449ZM83.4356 8.14147H87.2201C88.6277 8.14147 89.7484 7.56507 89.7484 6.15151C89.7484 4.69403 88.7468 4.25212 87.1253 4.25212H83.4356V8.14147ZM112.171 0.683897C109.889 0.683897 104.066 1.69947 104.066 10.0381C104.066 12.5908 104.605 14.449 105.422 15.8131H99.3583V1.19168H95.5631V18.9944H106.805V17.482C108.638 19.0987 110.931 19.4033 112.171 19.4033C114.436 19.4033 120.292 18.3878 120.292 10.0354C120.292 1.69672 114.436 0.683897 112.171 0.683897ZM112.171 16.2688C110.232 16.2688 107.663 15.0226 107.663 10.0381C107.663 5.06732 110.235 3.82393 112.171 3.82393C114.109 3.82393 116.678 5.06732 116.678 10.0381C116.678 15.0226 114.106 16.2688 112.171 16.2688Z" fill="black"/>
<path fill-rule="evenodd" clip-rule="evenodd" d="M118.405 1.17822H122.609L126.366 8.97341L129.966 1.17822H134L128.25 12.366V18.9919H124.336V12.322L118.405 1.17822Z" fill="black"/>
<path fill-rule="evenodd" clip-rule="evenodd" d="M52.2508 1.17813H48.0062L43.1038 15.1216C43.2202 14.655 43.2744 14.1472 43.2744 13.5846C43.2744 10.5927 41.0736 9.49483 38.6724 8.89097L34.574 7.82325C33.8485 7.65033 32.8334 7.24685 32.8334 5.86073C32.8334 4.24131 34.4955 3.7198 35.8923 3.7198C39.1083 3.7198 39.3979 5.60547 39.4927 6.40969L43.0226 6.1654C42.9441 4.21661 41.282 0.593492 36.1684 0.648388C30.4621 0.700538 29.4063 4.14799 29.4063 6.12698C29.4063 10.0548 32.4246 10.697 34.8772 11.364L36.5637 11.8197C38.4342 12.2588 39.7552 12.6349 39.7552 14.0237C39.7552 15.9094 37.817 16.3376 36.0737 16.3376C33.2963 16.3376 32.6087 14.4382 32.5816 13.4501L29.3792 13.612V13.5846C29.3792 10.3759 26.8888 9.38504 24.4904 8.78667L20.3486 7.71621C19.6259 7.54328 18.6243 7.24959 18.6243 5.85799C18.6243 4.23856 20.0996 3.71706 21.4964 3.71706C24.7151 3.71706 25.0047 5.60272 25.0967 6.40694L28.6294 6.12423C28.5482 4.17544 26.9944 0.590747 21.7752 0.645643C16.0661 0.68407 15.1972 4.1425 15.1972 6.11874C15.1972 10.0493 18.5322 10.7163 21.0092 11.3997L22.4601 11.784C24.3198 12.2259 25.8222 12.6294 25.8222 14.0182C25.8222 15.9012 23.9219 16.3293 22.184 16.3293C18.8354 16.3293 18.294 14.419 18.2669 13.4308L14.8669 13.6449V13.7492L10.5032 1.16441H6.26133L0 18.9781H3.8575L5.08378 15.3028H11.5725L12.7067 18.9808H16.6996L15.7521 16.2525C16.7808 17.8554 18.8354 19.409 22.4466 19.409C23.792 19.409 28.0366 19.0467 29.1167 15.4373C29.9342 17.2681 32.0294 19.4062 36.3525 19.4062C37.5923 19.4062 41.3091 19.0988 42.733 16.2003L41.7314 19.0055H45.6078L46.8314 15.3275H53.3174L54.4516 19.0055H58.4445L52.2508 1.17813ZM6.06372 12.2314L8.31866 5.17454H8.3728L10.5465 12.2286L6.06372 12.2314ZM47.8059 12.2588L50.0608 5.20198H50.115L52.2914 12.2561L47.8059 12.2588ZM66.5655 18.9945H62.7026L68.9612 1.19185H73.2058L79.3995 18.9945H75.4066L74.2724 15.3165H67.7864L66.5655 18.9945ZM68.7799 12.2314H73.2464L71.0727 5.18552H71.0186L68.7799 12.2314Z" fill="black"/>
</g>
<defs>
<clipPath id="clip0_126_4908">
<rect width="134" height="20" fill="white"/>
</clipPath>
</defs>
</svg>
