<svg width="150" height="150" viewBox="0 0 150 150" fill="none" xmlns="http://www.w3.org/2000/svg">
<path fill-rule="evenodd" clip-rule="evenodd" d="M142.901 72.6197C141.82 70.0516 139.614 68.4377 136.964 68.2852H136.382L13.0457 68.2859C11.2496 68.3583 9.51583 69.124 8.33922 70.4042C6.65911 72.1084 6.19921 75.113 7.00307 77.2942C8.04039 79.9136 10.3726 81.6482 13.2581 81.7151H14.255L136.765 81.7135L137.482 81.6762C138.791 81.6451 140.174 80.9385 141.028 80.3128C142.591 79.0514 143.467 77.088 143.377 74.7122C143.376 74.7122 143.299 73.5947 142.901 72.6197Z" fill="black"/>
<path fill-rule="evenodd" clip-rule="evenodd" d="M23.6546 74.2506H25.9441C25.9441 74.2506 26.2631 71.404 23.9503 71.404C23.9503 71.404 20.9925 71.2849 18.44 71.404C18.44 71.404 16.1732 71.404 16.1732 73.3121C16.1732 73.3121 16.0307 75.5058 16.1732 77.5579C16.1732 77.5579 16.1732 79.3236 18.44 79.3236C18.44 79.3236 20.945 79.4193 23.9503 79.3236C23.9503 79.3236 26.0016 79.3236 26.0016 77.2964V76.3906H23.6546C23.6546 76.3906 23.8313 77.4155 22.7107 77.4871C22.7107 77.4871 21.089 77.5587 19.5147 77.4871C19.5147 77.4871 18.4416 77.5587 18.4416 76.7244C18.4416 76.7244 18.3459 75.8179 18.4416 74.1245C18.4416 74.1245 18.3217 73.4327 19.2524 73.3853C19.2524 73.3853 21.6843 73.3137 22.9636 73.393C22.9628 73.3923 23.664 73.3121 23.6546 74.2506ZM27.6125 71.4281H30.0933V77.3439H35.5313V79.3236H27.6125V71.4281ZM38.4892 79.3236H35.8901L40.1825 71.404H43.4743L47.8158 79.3236H45.1917L44.4081 77.9166H39.2767L38.4892 79.3236Z" fill="white"/>
<path fill-rule="evenodd" clip-rule="evenodd" d="M43.455 76.2226H40.2217L41.8224 73.2842L43.455 76.2226Z" fill="black"/>
<path fill-rule="evenodd" clip-rule="evenodd" d="M50.4906 76.7143H48.0339C48.0339 76.7143 47.7117 79.3944 49.8113 79.3944C49.8113 79.3944 51.1466 79.4901 53.0672 79.4426C53.0672 79.4426 55.3091 79.4201 56.0967 79.3718C56.0967 79.3718 57.8491 79.4901 57.8382 77.3672C57.8382 77.3672 57.8951 77.2046 57.8211 76.1766C57.7643 75.4015 57.1674 74.6023 55.9776 74.6023C55.9776 74.6023 52.9248 74.4833 51.2073 74.4358C51.2073 74.4358 50.4556 74.5533 50.4439 73.8389C50.4439 73.8389 50.4175 73.2382 51.0493 73.2382C51.0493 73.2382 52.9575 73.1697 54.3419 73.2405C54.3419 73.2405 55.2508 73.193 55.2391 73.9455H57.576C57.576 73.9455 57.874 71.5472 56.0616 71.4764C56.0616 71.4764 53.282 71.2258 49.812 71.4717C49.812 71.4717 48.1156 71.4764 48.0798 73.0981C48.0798 73.0981 48.002 73.8848 48.0564 74.6545C48.1389 75.8171 49.3054 76.1852 50.4914 76.1852C50.4914 76.1852 53.1154 76.249 54.6897 76.2723C54.6897 76.2723 55.5356 76.1743 55.5247 76.905C55.5247 76.905 55.5846 77.4707 54.6656 77.4777C54.6656 77.4777 52.9248 77.624 51.2548 77.4567C51.2548 77.4575 50.5031 77.6092 50.4906 76.7143ZM110.237 77.3501C110.237 77.3501 110.048 79.3251 112.6 79.3298C112.6 79.3298 115.415 79.4442 118.299 79.3212C118.299 79.3212 120.661 79.4924 120.667 77.3501C120.667 77.3501 120.781 75.5307 120.66 73.3432C120.66 73.3432 120.875 71.3106 118.304 71.3153C118.304 71.3153 115.272 71.2157 112.598 71.3153C112.598 71.3153 110.237 71.0958 110.232 73.3432C110.232 73.344 110.144 75.34 110.237 77.3501Z" fill="white"/>
<path fill-rule="evenodd" clip-rule="evenodd" d="M113.745 73.317C113.745 73.317 114.664 73.2719 117.133 73.3201C117.133 73.3201 118.3 73.1482 118.3 74.2267C118.3 74.2267 118.373 75.3909 118.3 76.4928C118.3 76.4928 118.445 77.3706 117.133 77.3683C117.133 77.3683 115.511 77.443 113.734 77.376C113.734 77.376 112.601 77.4881 112.601 76.4928C112.601 76.4928 112.531 75.5815 112.588 74.2508C112.588 74.2501 112.433 73.3147 113.745 73.317Z" fill="black"/>
<path fill-rule="evenodd" clip-rule="evenodd" d="M78.8902 79.3236H76.4389V71.404H78.8902V74.2428H84.2511V71.404H86.6479V79.3236H84.2511V76.4381H78.8902V79.3236ZM89.0689 71.4281H91.5497V77.3439H96.9877V79.3236H89.0689V71.4281ZM125.063 79.3236H122.595V71.404H126.53L131.205 77.1766V71.404H133.685V79.3236H129.726L125.063 73.551V79.3236ZM64.1381 77.3501C64.1381 77.3501 63.9716 79.3251 66.5233 79.3298C66.5233 79.3298 69.3387 79.4442 72.2242 79.3212C72.2242 79.3212 74.586 79.4924 74.5907 77.3501C74.5907 77.3501 74.7292 75.3183 74.5837 73.3432C74.5837 73.3432 74.8 71.3106 72.2274 71.3153C72.2274 71.3153 69.1955 71.2157 66.5225 71.3153C66.5225 71.3153 64.1389 71.0958 64.1334 73.3432C64.1334 73.344 63.9949 75.3183 64.1381 77.3501Z" fill="white"/>
<path fill-rule="evenodd" clip-rule="evenodd" d="M67.669 73.317C67.669 73.317 68.5873 73.2719 71.0565 73.3201C71.0565 73.3201 72.2253 73.1482 72.2253 74.2267C72.2253 74.2267 72.2969 75.3909 72.2253 76.4928C72.2253 76.4928 72.3693 77.3706 71.0565 77.3683C71.0565 77.3683 69.4339 77.443 67.6573 77.376C67.6573 77.376 66.5243 77.562 66.5243 76.4928C66.5243 76.4928 66.455 75.5815 66.5126 74.2508C66.5119 74.2501 66.357 73.3147 67.669 73.317Z" fill="black"/>
<path fill-rule="evenodd" clip-rule="evenodd" d="M100.947 76.6187H98.4914C98.4914 76.6187 98.1692 79.2996 100.268 79.2996C100.268 79.2996 101.604 79.3945 103.524 79.347C103.524 79.347 105.766 79.3245 106.553 79.2762C106.553 79.2762 108.307 79.3945 108.295 77.2716C108.295 77.2716 108.353 77.1082 108.279 76.081C108.221 75.3059 107.625 74.5067 106.435 74.5067C106.435 74.5067 103.382 74.3876 101.664 74.3394C101.664 74.3394 100.913 74.4585 100.901 73.7433C100.901 73.7433 100.874 73.1418 101.506 73.1418C101.506 73.1418 103.415 73.0733 104.798 73.1449C104.798 73.1449 105.707 73.0982 105.694 73.8499H108.032C108.032 73.8499 108.332 71.4516 106.518 71.3807C106.518 71.3807 103.739 71.1309 100.269 71.3768C100.269 71.3768 98.5723 71.3807 98.5358 73.0033C98.5358 73.0033 98.4595 73.7892 98.5132 74.5596C98.5949 75.7222 99.7622 76.0903 100.948 76.0903C100.948 76.0903 103.571 76.1549 105.146 76.1783C105.146 76.1783 105.993 76.0794 105.982 76.8101C105.982 76.8101 106.041 77.3767 105.123 77.3837C105.123 77.3837 103.382 77.53 101.711 77.3627C101.71 77.3627 100.959 77.5144 100.947 76.6187Z" fill="white"/>
</svg>
