<svg width="112" height="34" viewBox="0 0 112 34" fill="none" xmlns="http://www.w3.org/2000/svg">
<g clip-path="url(#clip0_126_4853)">
<path d="M43.0588 0H34.9951V0.263566H37.0761V33.7364H34.9951V34H47.871V24.7752H47.6108C47.6325 28.9071 46.8196 33.7117 42.2784 33.7364H40.9778V0.263566H43.0588V0ZM10.1539 10.2791H9.89375V12.3876C9.83414 15.6948 7.93745 16.3125 5.99199 16.3411V0.263566H7.29258C11.0534 0.28553 12.6792 3.30556 12.625 9.22481H12.8851V0H0.00927734V0.263566H2.22028V33.7364H0.00927734V34H12.8851V24.7752H12.625C12.6792 28.9071 11.8663 33.7117 7.29258 33.7364H5.99199V16.6047C7.93745 16.6211 9.83414 17.2389 9.89375 20.5581V22.5349H10.1539V10.2791ZM109.129 10.2791H108.869V12.3876C108.869 15.6948 106.972 16.3125 104.967 16.3411V0.263566H106.397C110.088 0.28553 111.714 3.30556 111.73 9.22481H111.99V0H98.9841V0.263566H101.195V33.7364H98.9841V34H111.99V24.7752H111.73C111.714 28.9071 110.901 33.7117 106.397 33.7364H104.967V16.6047C106.972 16.6211 108.869 17.2389 108.869 20.5581V22.5349H109.129V10.2791ZM75.3134 0H67.2497V0.263566H69.3307V33.7364H67.2497V34H80.1256V24.7752H79.8655C79.8763 28.9071 79.0634 33.7117 74.533 33.7364H73.2324V0.263566H75.3134V0Z" fill="black"/>
</g>
<defs>
<clipPath id="clip0_126_4853">
<rect width="112" height="34" fill="white"/>
</clipPath>
</defs>
</svg>
