<svg width="74" height="22" viewBox="0 0 74 22" fill="none" xmlns="http://www.w3.org/2000/svg">
<path fill-rule="evenodd" clip-rule="evenodd" d="M50.3519 8.29507C50.3519 10.6278 48.8735 13.6926 47.8051 15.7174C46.1268 18.9036 43.8565 20.8129 40.1648 21.0382C36.9018 21.2372 29.527 21.7941 30.8191 16.388C31.3793 14.0477 32.6243 11.9858 33.3886 9.72587C35.957 4.6877 42.4202 3.72728 47.555 4.98635C49.2931 5.60804 50.2182 6.44003 50.3519 8.29504V8.29507ZM41.7337 8.51865C39.0945 8.51865 38.7731 12.1408 38.2775 14.0854C38.1531 14.8203 37.3162 17.2824 38.6641 17.2824C41.8373 17.9098 42.1325 14.4878 42.6662 12.2074C42.8624 11.3685 43.2514 9.961 43.0754 9.09992C43.0754 8.45942 42.167 8.56147 41.7337 8.51868V8.51865ZM23.5655 8.67519C23.2399 14.8098 18.8574 14.3324 13.6513 14.309C11.6728 14.3009 9.64952 14.1748 7.6937 14.1748C6.97198 14.8945 9.06147 17.0774 9.64927 17.4389C11.6558 18.6679 14.1736 18.1401 15.7887 16.5445C16.6565 16.5445 25.9711 15.3475 22.747 18.512C21.1864 19.877 18.9786 20.6834 16.9712 21.15C10.584 22.6351 -3.2129 19.025 1.44052 10.173C4.62157 5.02556 11.5115 2.21086 17.1986 0.761045C17.7281 0.656907 18.2513 0.576747 18.7903 0.537458C22.8365 0.240427 23.5655 5.7307 23.5655 8.6752V8.67519ZM17.6307 8.18331C17.6307 7.62847 17.6537 7.04175 17.4715 6.50658C16.8469 4.03284 10.2943 9.31533 9.51286 10.0836C9.41477 10.2779 9.48888 10.2177 9.62653 10.2848C11.8012 10.2848 13.9809 10.2624 16.1526 10.2624C17.5828 10.0304 17.6307 9.6024 17.6307 8.18329V8.18331ZM30.2508 11.3355C29.7577 12.3118 29.8679 13.5924 28.8636 14.3313C27.4902 15.3415 24.0308 15.3442 24.7933 12.9005C25.5152 10.5773 26.88 9.58921 29.3638 10.1954C29.9698 10.3949 30.1129 10.7895 30.2508 11.3355V11.3355ZM73.5 8.31743C73.5 8.94283 73.3666 9.58762 73.2272 10.1954C72.4063 13.7625 71.0828 17.1562 69.9072 20.5912C68.8287 21.6515 66.5865 21.0741 65.4276 20.3899C64.848 19.8199 66.2889 16.912 66.5192 16.2092C66.8723 15.1299 68.8016 11.1498 67.1786 10.3519C66.6565 10.3519 66.2412 10.4191 65.7234 10.5531C60.866 12.225 57.4185 17.0863 53.9218 20.5241C52.4062 21.2743 51.3178 21.0823 49.8288 20.3453C49.6811 20.2 49.7527 19.9691 49.7833 19.7862C50.9101 15.1592 52.6922 10.5717 54.6267 6.21596C54.931 5.32663 58.0584 5.65616 58.8334 6.03714C58.8334 7.02211 58.7283 8.6752 60.175 8.6752C63.4206 8.3235 71.3734 1.3968 73.3862 7.33382C73.4433 7.66906 73.5 7.97292 73.5 8.31746V8.31743Z" fill="#131313"/>
</svg>
