<svg width="80" height="26" viewBox="0 0 80 26" fill="none" xmlns="http://www.w3.org/2000/svg">
<path d="M34.2983 13.6824C34.2983 17.423 31.3667 20.1794 27.769 20.1794C24.1713 20.1794 21.2397 17.423 21.2397 13.6824C21.2397 9.91536 24.1713 7.1853 27.769 7.1853C31.3667 7.1853 34.2983 9.91536 34.2983 13.6824ZM31.4401 13.6824C31.4401 11.3448 29.741 9.74547 27.769 9.74547C25.797 9.74547 24.098 11.3448 24.098 13.6824C24.098 15.9965 25.797 17.6193 27.769 17.6193C29.741 17.6193 31.4401 15.9935 31.4401 13.6824Z" fill="#131313"/>
<path d="M48.3842 13.6824C48.3842 17.423 45.4527 20.1794 41.855 20.1794C38.2573 20.1794 35.3257 17.423 35.3257 13.6824C35.3257 9.91829 38.2573 7.1853 41.855 7.1853C45.4527 7.1853 48.3842 9.91536 48.3842 13.6824ZM45.526 13.6824C45.526 11.3448 43.827 9.74547 41.855 9.74547C39.883 9.74547 38.1839 11.3448 38.1839 13.6824C38.1839 15.9965 39.883 17.6193 41.855 17.6193C43.827 17.6193 45.526 15.9935 45.526 13.6824Z" fill="#131313"/>
<path d="M61.8828 7.57782V19.2421C61.8828 24.0402 59.0481 25.9999 55.6969 25.9999C52.5423 25.9999 50.6436 23.8937 49.9276 22.1713L52.4161 21.1373C52.8592 22.1948 53.945 23.4426 55.6939 23.4426C57.8391 23.4426 59.1684 22.1215 59.1684 19.6346V18.7002H59.0686C58.4289 19.4881 57.1964 20.1765 55.6411 20.1765C52.3867 20.1765 49.4053 17.3469 49.4053 13.7058C49.4053 10.0384 52.3867 7.1853 55.6411 7.1853C57.1935 7.1853 58.426 7.87368 59.0686 8.63821H59.1684V7.58075H61.8828V7.57782ZM59.3709 13.7058C59.3709 11.4181 57.842 9.74547 55.8964 9.74547C53.9244 9.74547 52.2723 11.4181 52.2723 13.7058C52.2723 15.9701 53.9244 17.6193 55.8964 17.6193C57.842 17.6193 59.3709 15.9701 59.3709 13.7058Z" fill="#131313"/>
<path d="M66.3571 0.740723V19.7808H63.5693V0.740723H66.3571Z" fill="#131313"/>
<path d="M77.2219 15.8205L79.4404 17.2968C78.7244 18.3543 76.9989 20.1763 74.0174 20.1763C70.32 20.1763 67.5586 17.3232 67.5586 13.6792C67.5586 9.81552 70.3434 7.18213 73.6976 7.18213C77.0752 7.18213 78.7273 9.86532 79.2673 11.3153L79.5637 12.0535L70.8629 15.6506C71.529 16.9541 72.5649 17.619 74.0174 17.619C75.473 17.619 76.4824 16.9043 77.2219 15.8205ZM70.3933 13.4829L76.2095 11.0722C75.8897 10.2608 74.9271 9.69542 73.7944 9.69542C72.3418 9.69542 70.32 10.9755 70.3933 13.4829Z" fill="#131313"/>
<path d="M10.6873 11.9921V9.23567H19.9926C20.0835 9.71607 20.1305 10.2843 20.1305 10.8995C20.1305 12.9675 19.5641 15.5248 17.7389 17.3468C15.9635 19.1922 13.6951 20.1764 10.6902 20.1764C5.12049 20.1764 0.437012 15.6478 0.437012 10.0881C0.437012 4.52837 5.12049 -0.000244141 10.6902 -0.000244141C13.7714 -0.000244141 15.9664 1.20661 17.6156 2.77961L15.6671 4.72463C14.4845 3.61738 12.8823 2.75618 10.6873 2.75618C6.62002 2.75618 3.43901 6.02815 3.43901 10.0881C3.43901 14.148 6.62002 17.42 10.6873 17.42C13.3254 17.42 14.8278 16.3625 15.7904 15.4017C16.5709 14.6226 17.0845 13.5094 17.287 11.9892L10.6873 11.9921Z" fill="#131313"/>
</svg>
