<svg width="130" height="16" viewBox="0 0 130 16" fill="none" xmlns="http://www.w3.org/2000/svg">
<path fill-rule="evenodd" clip-rule="evenodd" d="M36.0744 9.17585H32.1074C32.1074 7.35645 32.8565 6.37 34.1281 6.37C35.3253 6.37 36.0744 7.50783 36.0744 9.17585ZM38.3188 10.8453V10.3904C38.3188 8.03873 37.8699 6.75022 37.0465 5.83982C36.3731 5.0815 35.3253 4.70269 34.1274 4.70269C32.7807 4.70269 31.7329 5.15754 30.9095 6.14328C30.0861 7.12903 29.6372 8.41894 29.6372 10.2383C29.6372 13.7272 31.4327 15.8507 34.4268 15.8507C35.8485 15.8507 37.1208 15.3198 38.1687 14.4094L37.3453 13.0449C36.5219 13.7272 35.6984 14.1067 34.7256 14.1067C33.7528 14.1067 33.0045 13.7272 32.4805 12.9695C32.1811 12.5147 32.0317 11.755 32.0317 10.9974V10.846L38.3188 10.8453ZM67.6564 10.5411L67.5821 13.0442C67.1332 13.8018 66.3848 14.2574 65.5614 14.2574C64.5886 14.2574 64.0647 13.6511 64.0647 12.5893C64.0647 11.9831 64.2141 11.5275 64.5886 11.148C65.0375 10.6932 65.7866 10.5418 67.1332 10.5418L67.6564 10.5411ZM70.6506 14.5608C69.9029 14.106 69.7522 13.6504 69.7522 12.4372V8.26615C69.7522 7.2797 69.7521 6.90019 69.6028 6.44534C69.2282 5.30752 68.031 4.70129 66.4599 4.70129C65.5614 4.70129 64.5886 4.85267 63.6909 5.30752C63.0919 5.61099 62.568 5.76237 62.0441 6.14188L63.0169 7.73455C63.4657 7.43109 63.7652 7.2797 64.2892 6.97623C64.9625 6.67277 65.6358 6.52139 66.1597 6.52139C66.758 6.52139 67.1325 6.67277 67.3584 6.97623C67.5821 7.2797 67.6572 7.65922 67.6572 8.41753V9.02377H66.9838C63.5408 9.02377 61.7446 10.2369 61.7446 12.7393C61.7446 13.4983 61.969 14.4848 62.568 15.015C63.167 15.5459 63.9146 15.8486 65.1876 15.8486C66.0854 15.8486 66.7587 15.6219 67.4327 15.2424C67.6564 15.0157 67.7315 14.8629 68.031 14.5601C68.2547 15.2424 68.8551 15.7733 69.5277 16L70.6506 14.5608ZM120.345 9.17585H116.452C116.452 7.35645 117.201 6.37 118.399 6.37C119.672 6.37 120.345 7.50783 120.345 9.17585ZM122.664 10.8453V10.3904C122.664 8.03873 122.216 6.75022 121.393 5.83982C120.644 5.0815 119.597 4.70269 118.399 4.70269C117.127 4.70269 116.079 5.15754 115.256 6.14328C114.432 7.12903 113.983 8.41894 113.983 10.2383C113.983 13.7272 115.78 15.8507 118.774 15.8507C120.121 15.8507 121.393 15.3198 122.516 14.4094L121.617 13.0449C120.87 13.7272 119.971 14.1067 119.073 14.1067C118.025 14.1067 117.277 13.7272 116.828 12.9695C116.528 12.5147 116.379 11.6796 116.379 10.9974V10.846L122.664 10.8453ZM27.8417 15.5473V1.06179H25.5959V6.97694H20.4324V1.06179H18.2616V15.5473H20.4324V8.79775H25.5959V15.5473H27.8417ZM45.6537 4.85337C45.4293 4.77733 45.2048 4.70199 44.8303 4.70199C43.7074 4.70199 42.884 5.30822 42.2107 6.37V6.14258C42.2107 5.53635 42.0606 5.15684 41.8361 4.70199L39.7404 5.23288C40.0399 5.91516 40.115 6.67347 40.115 7.96268V15.5466H42.3601V8.49358C42.4351 7.88735 42.5845 7.65922 42.959 7.28041C43.3336 6.9009 43.8568 6.82556 44.3064 6.82556C44.6059 6.82556 44.6802 6.9009 44.9797 6.97694L45.6537 4.85337ZM59.8733 15.5473V7.73526C59.8733 6.59743 59.6489 5.91516 59.0499 5.38427C58.601 4.92942 57.927 4.70199 57.1787 4.70199C56.0565 4.70199 54.7842 5.30822 53.9608 6.29467C53.7423 5.81785 53.3936 5.41443 52.956 5.13216C52.5183 4.8499 52.01 4.70062 51.4912 4.70199C50.5184 4.70199 49.4706 5.30822 48.7222 6.06654C48.6479 5.53564 48.4978 5.0808 48.3484 4.77733L46.3277 5.30822C46.6272 5.9905 46.7015 6.37001 46.7015 7.88735V15.5473H48.7972V7.73526C49.6957 6.97694 50.369 6.59743 51.0423 6.59743C51.9401 6.59743 52.1652 7.12832 52.1652 8.34219V15.5466H54.336V7.88735C55.1594 6.97694 55.9828 6.59743 56.5811 6.59743C57.4045 6.59743 57.7033 7.05228 57.7033 8.11407V15.5473H59.8733ZM80.4544 15.5473V7.65992C80.4544 5.76377 79.3322 4.77803 77.6861 4.77803C76.5639 4.77803 75.6654 5.15754 74.5432 6.14258C74.5432 5.68773 74.3924 5.23288 74.1687 4.70199L72.148 5.30822C72.4482 5.9905 72.4482 6.59743 72.4482 7.73526V15.5473H74.6183V7.88735C75.3659 7.12833 76.3394 6.59743 77.0885 6.59743C77.9112 6.59743 78.2857 7.05228 78.2857 8.49358V15.5473H80.4544ZM97.3687 15.5473L96.1714 1.06179H93.1029L90.3332 11.8296L87.4898 1.06179H84.347L82.999 15.5473H85.0947L86.0675 3.41278L89.2854 15.5473H91.0079L94.3002 3.6402L95.1986 15.5473H97.3687ZM101.934 15.5473V4.70199L99.6895 5.0815V15.5473H101.934ZM102.308 1.8201C102.308 1.06178 101.634 0.303468 100.812 0.303468C100.063 0.303468 99.315 1.06178 99.315 1.8201C99.315 2.7298 99.9883 3.33744 100.812 3.33744C101.634 3.33674 102.308 2.7298 102.308 1.8201ZM108.146 15.5473L107.697 14.182H107.473C107.099 14.182 106.8 13.9553 106.8 13.1202V3.18536C106.8 1.8201 106.8 0.910406 106.649 0.151385L104.405 0.682276C104.554 1.44059 104.629 2.19891 104.629 3.71554V13.2709C104.629 14.8636 105.453 15.774 106.724 15.774C107.323 15.774 107.696 15.6986 108.146 15.5473ZM113.235 15.5473L112.786 14.182C112.487 14.182 112.262 14.182 112.113 14.0306C111.964 13.8025 111.888 13.3469 111.888 12.2852V3.18536C111.888 1.8201 111.888 0.910406 111.664 0.151385L109.42 0.682276C109.643 1.44059 109.643 2.19891 109.643 3.71554V12.8914C109.643 14.0299 109.867 14.6369 110.167 15.0164C110.467 15.5473 111.14 15.774 111.813 15.774C112.337 15.774 112.786 15.6986 113.235 15.5473ZM130 4.85337C129.775 4.77733 129.551 4.70199 129.176 4.70199C128.054 4.70199 127.155 5.30822 126.482 6.37V6.14258C126.482 5.53635 126.333 5.15684 126.107 4.70199L124.087 5.23288C124.387 5.91516 124.461 6.67347 124.461 7.96268V15.5466H126.631V8.49358C126.781 7.88735 126.931 7.65922 127.305 7.28041C127.679 6.9009 128.203 6.82556 128.652 6.82556C128.877 6.82556 129.027 6.9009 129.325 6.97694L130 4.85337ZM12.1997 12.1338C12.1997 12.1338 10.4041 11.5275 7.85887 11.5275C5.23925 11.5275 3.44303 12.1338 3.44303 12.1338V3.86763H3.59243C3.59243 3.86763 4.26644 11.148 7.85887 11.148C11.3763 11.148 12.0496 3.86763 12.0496 3.86763H12.199V12.1338H12.1997ZM15.642 7.96268C15.642 3.56346 12.1246 0 7.85887 0C3.51808 0 0 3.56416 0 7.96268C0 12.3619 3.51738 15.9254 7.85887 15.9254C12.1246 15.9254 15.642 12.3619 15.642 7.96268Z" fill="#131313"/>
</svg>
