<svg width="106" height="14" viewBox="0 0 106 14" fill="none" xmlns="http://www.w3.org/2000/svg">
<g clip-path="url(#clip0_23_260)">
<path d="M32.7424 7.75428H36.6429V5.70813H32.7424V2.36967H36.943V0.21582H30.042V13.785H37.043V11.7389H32.7424V7.75428Z" fill="#131313"/>
<path d="M25.3417 0.21582H20.541V13.785H23.2414V8.29274H25.1417C27.4753 8.29274 28.6422 6.96454 28.6422 4.30813C28.6422 1.57992 27.542 0.21582 25.3417 0.21582ZM24.6416 6.24659H23.2414V2.36967H24.5416C25.475 2.36967 25.9418 3.05172 25.9418 4.41582C25.9418 5.63633 25.5084 6.24659 24.6416 6.24659Z" fill="#131313"/>
<path d="M44.0404 7.10813C45.6406 6.82095 46.4407 5.70813 46.4407 3.76967C46.4407 1.40044 45.4406 0.21582 43.4403 0.21582H38.6396V13.785H41.24V8.18505H41.9401C43.1403 8.18505 43.7737 8.8671 43.8404 10.2312C43.9071 12.385 43.9737 13.5697 44.0404 13.785H46.6408C46.4407 13.3543 46.3407 12.0261 46.3407 9.80043C46.3407 8.22095 45.574 7.32351 44.0404 7.10813ZM42.4439 6.1389H41.2437V2.36967H42.4439C43.3107 2.36967 43.7441 2.94403 43.7441 4.09274C43.7441 5.45685 43.307 6.1389 42.4439 6.1389Z" fill="#131313"/>
<path d="M14.8437 5.92351L12.9435 0.21582H10.1431L13.4435 9.04659V13.785H16.0402V9.04659L19.5407 0.21582H16.8403L14.8437 5.92351Z" fill="#131313"/>
<path d="M77.9453 0.21582L74.4448 13.785H77.0452L77.7416 10.7697H81.3421L82.0422 13.785H84.8426L81.4421 0.21582H77.9453ZM78.3417 8.72351L79.5418 2.90813L80.842 8.72351H78.3417Z" fill="#131313"/>
<path d="M92.9435 9.58505L89.643 0.21582H86.0425V13.785H88.5428V3.87736L91.9433 13.785H95.4438V0.21582H92.9435V9.58505Z" fill="#131313"/>
<path d="M101.845 0.21582H97.4443V13.785H101.745C104.479 13.785 105.846 11.4876 105.846 6.89274C105.842 2.44146 104.508 0.21582 101.845 0.21582ZM101.345 11.7389H100.045V2.36967H101.445C102.645 2.36967 103.245 3.91325 103.245 7.00043C103.245 10.1594 102.608 11.7389 101.345 11.7389Z" fill="#131313"/>
<path d="M62.8912 6.13846C61.1243 5.06154 60.2427 4.1641 60.2427 3.44615C60.2427 2.51282 60.7094 2.04615 61.6429 2.04615C62.443 2.04615 62.8431 2.72821 62.8431 4.09231H65.3434C65.5435 1.3641 64.3433 0 61.7429 0C59.0092 0 57.6423 1.29231 57.6423 3.87692C57.6423 5.31282 58.5091 6.60513 60.2427 7.75385C61.9763 8.90257 62.8431 9.8 62.8431 10.4462C62.8431 11.4513 62.4097 11.9538 61.5429 11.9538C60.5428 11.9538 60.0427 11.1641 60.0427 9.58462H57.4423C57.2423 12.5282 58.4758 14 61.1428 14C64.0766 14 65.5435 12.7077 65.5435 10.1231C65.5435 8.54359 64.6582 7.21539 62.8912 6.13846Z" fill="#131313"/>
<path d="M69.7439 0.21582H67.1436V13.785H73.7408V11.5235H69.7439V0.21582Z" fill="#131313"/>
<path d="M55.8421 0.21582H53.2417V13.785H55.8421V0.21582Z" fill="#131313"/>
<path d="M6.44259 5.70813H3.44216V0.21582H0.841797V13.785H3.44216V7.75428H6.44259V13.785H9.04296V0.21582H6.44259V5.70813Z" fill="#131313"/>
</g>
<defs>
<clipPath id="clip0_23_260">
<rect width="105" height="14" fill="white" transform="translate(0.5)"/>
</clipPath>
</defs>
</svg>
