<svg width="68" height="68" viewBox="0 0 68 68" fill="none" xmlns="http://www.w3.org/2000/svg">
<path fill-rule="evenodd" clip-rule="evenodd" d="M1 18.0937H9.42257V50.5168H1V18.0937ZM33.7459 25.9264C32.236 26.518 32.0025 25.732 28.9234 25.732C24.0766 25.732 20.5005 29.0548 20.5005 34.3641C20.5005 39.6717 25.0012 42.9017 29.0402 42.9017C33.077 42.9017 35.3849 40.2478 36.4235 38.7477C37.4624 37.2477 48.4242 17.0562 48.4242 17.0562L67.0008 50.1125H59.8468C56.9805 50.1125 55.5775 46.5942 55.5775 46.5942H46.4625L49.6925 40.8256H52.1164L48.5382 34.1331C48.5382 34.1331 45.3089 39.9017 42.7696 43.9399C40.2306 47.9775 34.3456 50.944 29.212 50.944C24.0787 50.944 12.539 47.2874 12.539 34.4791C12.539 21.6712 23.5002 17.5172 28.9231 17.5172C31.4916 17.5172 33.6407 18.0573 34.9372 18.5269C37.147 19.328 37.1805 20.4601 36.6937 21.402C36.2076 22.3443 34.3135 25.7045 33.7459 25.9264Z" fill="black"/>
</svg>
