<svg width="96" height="18" viewBox="0 0 96 18" fill="none" xmlns="http://www.w3.org/2000/svg">
<path d="M27.5291 0.892702C27.2798 1.38761 27.2798 1.86602 27.2798 2.36093V8.5473C27.2798 8.5473 30.6209 4.24158 31.3856 3.21877C31.9673 2.4599 32.6821 1.38761 32.6821 0.892702H43.5866C42.8385 1.38761 42.0074 2.27844 41.3259 3.10329C40.7275 3.82916 37.3365 7.93689 37.3365 7.93689C37.3365 7.93689 42.3732 15.5419 43.0214 16.5152C43.3871 17.0432 43.786 17.5381 44.2515 17.9835H31.7014C31.7014 17.4886 31.2194 16.4823 30.6874 15.6904C30.1554 14.8986 27.2798 10.5599 27.2798 10.5599V16.5152C27.2798 17.0102 27.2798 17.4886 27.5291 17.9835H17.0735C17.3228 17.4886 17.3228 17.0102 17.3228 16.5152V2.36093C17.3228 1.86602 17.3228 1.38761 17.0735 0.892702H27.5291ZM66.2433 0.892702H46.0633C46.3127 1.38761 46.3127 1.86602 46.3127 2.36093V16.5152C46.3127 17.0102 46.3127 17.4886 46.0633 17.9835H66.2433V13.2489C65.7446 13.4963 65.2626 13.4963 64.7639 13.4963H56.2696V11.2528H64.4314V7.63994H56.2696V5.37986H64.7639C65.2626 5.37986 65.7446 5.37986 66.2433 5.61082V0.892702ZM94.2028 16.5152C94.3685 17.0597 94.6513 17.5546 95.0173 17.9835H84.0798C84.1292 17.4886 83.9462 17.0102 83.7467 16.5152C83.7467 16.5152 83.581 16.1193 83.3477 15.5419L83.2479 15.2945H76.9483L76.8485 15.5585C76.8485 15.5585 76.6657 16.0369 76.4995 16.5318C76.3333 17.0267 76.1504 17.5051 76.2169 18H67.5897C67.9388 17.5711 68.2047 17.0762 68.3709 16.5318L73.5406 2.37742C73.7235 1.88252 73.9063 1.40411 73.8398 0.909205H88.4178C88.2851 1.40411 88.5506 1.88252 88.7336 2.37742C89.1656 3.44972 93.8367 15.5585 94.2028 16.5152ZM81.8686 11.6817L80.3393 7.72243C80.2063 7.35949 80.09 6.98006 80.0069 6.60063C79.9403 6.98006 79.8406 7.35949 79.7076 7.72243C79.6577 7.8874 79.0095 9.61953 78.2615 11.6817H81.8686ZM11.8706 2.36093C11.8706 1.86602 11.8706 1.38761 12.1199 0.892702H0.75C0.99934 1.38761 0.99934 1.86602 0.99934 2.36093V16.5152C0.99934 17.0102 0.99934 17.4886 0.75 17.9835H12.1199C11.8706 17.4886 11.8706 17.0102 11.8706 16.5152V2.36093ZM90.7122 2.24545C90.6784 3.48272 91.6595 4.52203 92.9225 4.55501C94.169 4.588 95.2168 3.61469 95.2498 2.36093C95.2498 2.32795 95.2498 2.27844 95.2498 2.24545C95.2663 1.02468 94.3025 0.0183656 93.0725 0.00186827C93.0387 0.00186827 93.0222 0.00186827 92.9892 0.00186827C91.7757 -0.0476345 90.7617 0.892702 90.7287 2.09698C90.6949 2.14648 90.6949 2.19596 90.7122 2.24545ZM94.784 2.24545C94.8178 3.23526 94.0198 4.07661 93.0222 4.0931C92.0247 4.12609 91.1772 3.33425 91.1607 2.34443C91.1607 2.31145 91.1607 2.27844 91.1607 2.22896C91.1277 1.27213 91.8755 0.463781 92.8392 0.430792H92.9727C93.953 0.414272 94.7675 1.18964 94.784 2.16296V2.24545ZM94.0865 3.59819H93.6372L93.1055 2.64138H92.5234V3.59819H92.1244V0.892702H93.1385C93.6207 0.909221 93.9868 1.28863 93.9868 1.76704C93.9868 2.09698 93.8038 2.39393 93.5045 2.5589L94.0865 3.59819ZM93.0725 2.24545C93.338 2.26197 93.5713 2.06399 93.5713 1.80003C93.5713 1.53609 93.3883 1.30512 93.122 1.30512C93.1055 1.30512 93.089 1.30512 93.0725 1.30512H92.5234V2.26195H93.0725" fill="#131313"/>
</svg>
