<svg width="82" height="22" viewBox="0 0 82 22" fill="none" xmlns="http://www.w3.org/2000/svg">
<path d="M18.4253 4.33887L7.6084 18.1293H12.45L23.0706 4.33887H18.4253Z" fill="#131313"/>
<path d="M55.7979 2.58029H52.0733V6.64708H46.9831V2.58029H43.2548V6.64708H39.8062V9.88689H43.2548V21.6439H46.9831V9.88689H52.0733V21.6439H55.7979V9.88689H59.2459V6.64708H55.7979V2.58029ZM34.7484 12.4441H28.3408C28.4599 10.7175 29.9147 9.38795 31.6487 9.41958C33.4828 9.41958 34.6522 10.766 34.7644 12.4441H34.7484ZM38.5289 19.3349L36.2501 17.082C35.2239 18.1766 33.8033 18.8193 32.3015 18.8677C30.1439 18.9486 28.3105 17.3089 28.1566 15.1606H38.8614C39.3339 9.77924 35.9418 6.29188 31.5766 6.29188C27.0994 6.29188 24.1798 9.91507 24.1798 14.2018C24.1798 18.8955 27.6841 21.9999 32.1333 21.9999C34.6362 21.9999 37.083 21.0133 38.5408 19.3351H38.5289V19.3349ZM64.6121 21.6441V0.467117H60.8877V21.6404L64.6121 21.6441ZM4.80072 21.6441V7.19449H1.07632V21.6441H4.80072ZM23.0705 21.6441V18.1285H7.6081V21.6441H23.0705ZM23.0705 4.33806V0.826374H7.88837V4.34212L23.0705 4.33806ZM0.351562 2.58029C0.351766 4.00556 1.51024 5.16099 2.93903 5.16079C4.36741 5.16058 5.52548 4.00536 5.52569 2.58029C5.52548 1.15522 4.36701 -0.000202715 2.93822 2.66771e-08C1.50963 0.00040551 0.351562 1.15542 0.351562 2.58029ZM77.4872 12.4441H71.0796C71.2007 10.7171 72.6568 9.38774 74.3914 9.41958C76.2257 9.41958 77.3951 10.766 77.5035 12.4441H77.4872ZM81.2714 19.3349L78.9892 17.082C77.9642 18.1788 76.5427 18.8215 75.0402 18.8677C72.8844 18.9466 71.0532 17.3072 70.8995 15.1606H81.6043C82.0766 9.77924 78.6847 6.29188 74.3193 6.29188C69.8421 6.29188 66.9225 9.91507 66.9225 14.2018C66.9225 18.8955 70.4343 21.9999 74.876 21.9999C77.3787 21.9999 79.8257 21.0133 81.2836 19.3351H81.2714V19.3349Z" fill="#131313"/>
</svg>
