<svg width="102" height="22" viewBox="0 0 102 22" fill="none" xmlns="http://www.w3.org/2000/svg">
<path d="M0 0.503152H7.038V15.9662H12.872V21.4662H0V0.503152ZM13.994 0.503152H21.16V21.4662H13.994V0.503152ZM23.376 0.503152H35.836V6.00315H30.129V8.32915H35.74V13.5462H30.13V21.4662H23.377V0.503152H23.376ZM40.842 6.00315H36.942V0.503152H51.716V6.00315H47.816V21.4662H40.842V6.00315ZM51.385 11.0002C51.3769 9.53211 51.6681 8.07783 52.241 6.72615C52.8062 5.42365 53.6127 4.23984 54.618 3.23715C55.6376 2.22821 56.8441 1.42762 58.17 0.880152C59.5307 0.291902 60.9986 -0.00774198 62.481 0.000152009C64.003 0.000152009 65.441 0.293152 66.793 0.880152C68.1119 1.4229 69.3088 2.22433 70.313 3.23715C71.3317 4.22864 72.1401 5.41526 72.69 6.72615C73.282 8.06615 73.578 9.49115 73.578 11.0002C73.578 12.5092 73.282 13.9332 72.69 15.2742C72.1351 16.5917 71.3272 17.7876 70.312 18.7942C69.297 19.7934 68.1033 20.5929 66.793 21.1512C65.44 21.7172 64.003 22.0002 62.481 22.0002C60.959 22.0002 59.522 21.7172 58.169 21.1512C56.8521 20.588 55.6491 19.7893 54.619 18.7942C53.6174 17.7764 52.8113 16.5833 52.241 15.2742C51.6681 13.9225 51.3769 12.4682 51.385 11.0002ZM58.043 11.0002C58.043 11.6082 58.159 12.1842 58.391 12.7292C58.8533 13.7715 59.6908 14.6018 60.737 15.0552C61.287 15.2852 61.868 15.4002 62.481 15.4002C63.094 15.4002 63.665 15.2852 64.193 15.0542C65.2568 14.6163 66.1093 13.7828 66.571 12.7292C66.804 12.1826 66.9227 11.5942 66.92 11.0002C66.92 10.3922 66.804 9.82715 66.571 9.30315C66.3492 8.77435 66.0261 8.29401 65.62 7.88915C65.2099 7.48534 64.7253 7.16507 64.193 6.94615C63.6526 6.71309 63.0695 6.59525 62.481 6.60015C61.868 6.60015 61.287 6.71515 60.738 6.94615C60.209 7.17615 59.744 7.49115 59.343 7.88915C58.9365 8.29392 58.6131 8.77427 58.391 9.30315C58.1565 9.8379 58.0379 10.4163 58.043 11.0002ZM75.329 0.503152H87.789V6.00315H82.082V8.32915H87.694V13.5462H82.082V21.4662H75.329V0.503152ZM89.54 0.503152H102V6.00315H96.293V8.32915H101.905V13.5462H96.293V21.4662H89.54V0.503152Z" fill="#131313"/>
</svg>
