<svg width="88" height="26" viewBox="0 0 88 26" fill="none" xmlns="http://www.w3.org/2000/svg">
<path d="M45.2971 9.20362C49.2594 9.20362 52.0798 12.2186 52.0798 16.0474C52.0798 19.9378 49.2294 22.8842 45.2971 22.8842C41.3632 22.8842 38.5145 19.9663 38.5145 16.0474C38.5145 12.1908 41.354 9.20362 45.2971 9.20362ZM59.5388 9.20362C63.5011 9.20362 66.3215 12.2186 66.3215 16.0474C66.3215 19.9378 63.4696 22.8842 59.5388 22.8842C55.6049 22.8842 52.7562 19.9663 52.7562 16.0474C52.7562 12.1908 55.5957 9.20362 59.5388 9.20362ZM82.4524 9.21681C84.8415 9.21681 87.1258 10.6619 87.1258 14.1291V22.5097H83.7387V14.839C83.7387 13.4464 83.0554 12.3959 81.4537 12.3959C79.9567 12.3959 79.0638 13.552 79.0638 14.9446V22.5105H75.5988V14.839C75.5988 13.4464 74.89 12.3959 73.3138 12.3959C71.7906 12.3959 70.8976 13.5257 70.8976 14.9446V22.5105H67.4064V9.58444H70.7411V11.1613C71.4498 9.90042 73.1047 9.21681 74.5221 9.21681C76.2821 9.21681 77.6995 9.97902 78.3558 11.3709C79.3792 9.79406 80.7457 9.21681 82.4524 9.21681ZM37.4055 3.48975V22.5097H33.9136V3.48975H37.4055ZM59.5388 12.3234C57.4867 12.3234 55.817 13.9942 55.817 16.0465C55.817 18.099 57.4867 19.7698 59.5388 19.7698C61.5909 19.7698 63.2606 18.099 63.2606 16.0465C63.2598 13.9942 61.5902 12.3234 59.5388 12.3234ZM45.2971 12.3673C43.2681 12.3673 41.6177 14.0181 41.6177 16.0482C41.6177 18.0781 43.2681 19.729 45.2971 19.729C47.3261 19.729 48.9757 18.0781 48.9757 16.0482C48.9757 14.0181 47.3261 12.3673 45.2971 12.3673Z" fill="#131313"/>
<path d="M26.875 11.5543H19.2722L25.8566 7.7528L24.4107 5.24759L17.8263 9.04906L21.6269 2.46521L19.1217 1.01838L15.321 7.60222V0H12.429V7.60295L8.62686 1.01838L6.12244 2.46448L9.9238 9.04833L3.33942 5.24759L1.89335 7.75207L8.47774 11.5536H0.875V14.4458H8.47702L1.89335 18.2472L3.33942 20.7525L9.92307 16.9517L6.12171 23.5355L8.62686 24.9816L12.4282 18.3971V26H15.3204V18.3978L19.121 24.9816L21.6261 23.5355L17.8248 16.951L24.4091 20.7525L25.8552 18.2472L19.2716 14.4465H26.8735V11.5543H26.875ZM13.875 16.9335C11.6943 16.9335 9.92671 15.1659 9.92671 12.9851C9.92671 10.8043 11.6943 9.03669 13.875 9.03669C16.0557 9.03669 17.8233 10.8043 17.8233 12.9851C17.8233 15.1659 16.0557 16.9335 13.875 16.9335Z" fill="#131313"/>
</svg>
