<svg width="96" height="24" viewBox="0 0 96 24" fill="none" xmlns="http://www.w3.org/2000/svg">
<g clip-path="url(#clip0_401_152)">
<path d="M10.516 16.9379L8.86555 15.2875L7.13196 13.539C5.538 11.9451 6.6655 10.4388 7.07996 10.0228C6.46713 10.5887 5.82235 11.1189 5.14879 11.6108C4.40603 12.618 2.2446 14.8612 4.06139 17.7401L4.27828 17.9555C4.27828 17.9555 6.53181 20.922 10.516 16.9379Z" fill="#263138"/>
<path d="M12.7859 6.82165L14.4289 8.47205L16.161 10.222C17.7549 11.8159 16.6259 13.3223 16.213 13.7397C17.128 12.8811 17.5128 12.7444 17.8604 12.3106C17.8604 12.3106 21.0528 8.89394 19.236 6.01947L18.9389 5.72236C18.9389 5.72236 16.6809 2.92663 12.7859 6.82165Z" fill="#263138"/>
<path d="M20.9547 7.73661L18.9433 5.72522C20.6234 8.50611 18.8824 10.5502 17.9421 11.7282C17.8232 11.8777 17.6999 12.0233 17.5722 12.1649L17.1473 12.6343L17.1711 12.6106L17.1473 12.6343L13.3771 16.4046C12.719 17.0627 12.1396 17.6376 11.6286 18.1412L8.04109 21.7272C8.83653 22.4336 9.701 23.0581 10.6214 23.5915C13.2746 25.0963 16.1178 21.9575 16.1178 21.9575L21.2681 16.7581L21.3736 16.6542C25.7618 12.2556 20.9547 7.73661 20.9547 7.73661Z" fill="black"/>
<path d="M12.4173 0.264971C9.56218 -0.807571 7.11405 1.70889 7.11405 1.70889L1.96377 6.90819L1.8583 7.01218C-2.54626 11.4167 2.26087 15.9446 2.26087 15.9446L4.27226 17.956C2.59214 15.1751 4.33317 13.131 5.2735 11.953C5.39234 11.8035 5.51564 11.6579 5.64339 11.5163L6.06825 11.0468L6.04448 11.0706L6.06825 11.0468L9.83849 7.2766C10.4238 6.6913 10.9467 6.17287 11.4146 5.71384L15.1819 1.94212C14.8863 1.62421 14.0782 0.888888 12.4173 0.264971Z" fill="black"/>
<path d="M31.2404 4.03024V20.0931C31.2404 20.2216 31.2914 20.3447 31.3822 20.4356C31.473 20.5264 31.5962 20.5774 31.7247 20.5774H44.203C44.3314 20.5774 44.4546 20.5264 44.5454 20.4356C44.6362 20.3447 44.6873 20.2216 44.6873 20.0931V17.6896C44.6873 17.4993 44.6117 17.3168 44.4771 17.1822C44.3426 17.0477 44.1601 16.9721 43.9698 16.9721H35.9108C35.7824 16.9721 35.6592 16.921 35.5684 16.8302C35.4776 16.7394 35.4266 16.6162 35.4266 16.4878V3.92031C35.4266 3.79188 35.3755 3.6687 35.2847 3.57788C35.1939 3.48706 35.0707 3.43604 34.9423 3.43604H31.8331C31.6758 3.43643 31.525 3.49921 31.4139 3.6106C31.3028 3.72199 31.2404 3.87291 31.2404 4.03024Z" fill="black"/>
<path d="M43.0369 4.24277L49.3459 15.6902C49.4782 15.931 49.5477 16.2012 49.5479 16.476V19.9952C49.5479 20.1492 49.6091 20.297 49.718 20.4059C49.827 20.5148 49.9747 20.576 50.1288 20.576H53.3494C53.5034 20.576 53.6511 20.5148 53.7601 20.4059C53.869 20.297 53.9302 20.1492 53.9302 19.9952V16.4715C53.9303 16.1997 53.9982 15.9321 54.1278 15.6931L60.4026 4.15216C60.4424 4.07847 60.4624 3.99572 60.4607 3.91198C60.459 3.82825 60.4356 3.74638 60.3928 3.67439C60.35 3.6024 60.2893 3.54274 60.2165 3.50124C60.1438 3.45974 60.0615 3.43783 59.9777 3.43762H56.3694C56.2791 3.43775 56.1906 3.46314 56.114 3.51092C56.0373 3.55869 55.9755 3.62695 55.9356 3.70799L52.4699 10.7419C51.7168 12.2423 51.7702 12.1903 51.0097 10.6929L47.5038 3.77335C47.4631 3.69343 47.401 3.62638 47.3244 3.57969C47.2478 3.533 47.1598 3.5085 47.0701 3.50892L43.4588 3.52675C43.3751 3.52733 43.2929 3.5496 43.2204 3.59139C43.1479 3.63317 43.0874 3.69305 43.0449 3.76518C43.0024 3.83731 42.9793 3.91922 42.9779 4.00292C42.9765 4.08663 42.9968 4.16926 43.0369 4.24277Z" fill="black"/>
<path d="M75.4107 5.20235L74.8329 7.52421C74.812 7.60791 74.7744 7.68648 74.7222 7.75516C74.67 7.82384 74.6044 7.88119 74.5294 7.92372C74.4543 7.96624 74.3714 7.99305 74.2857 8.00252C74.2 8.01198 74.1132 8.00391 74.0307 7.97878C72.976 7.65642 70.7626 7.07262 68.564 7.07262C65.5217 7.07262 65.9554 9.33505 67.5375 9.75694C69.1196 10.1788 72.3535 10.568 74.0396 11.6985C75.7257 12.829 76.3867 14.5849 75.6217 17.1682C74.8566 19.7515 70.9616 21.6752 64.1119 20.0545C63.2969 19.8735 62.4937 19.6428 61.7069 19.3638C61.5761 19.3191 61.4672 19.2265 61.4021 19.1046C61.337 18.9827 61.3206 18.8407 61.3563 18.7072L62.0456 16.1476C62.0649 16.0757 62.0989 16.0086 62.1453 15.9504C62.1917 15.8921 62.2495 15.844 62.3152 15.8091C62.381 15.7741 62.4532 15.753 62.5274 15.7471C62.6016 15.7412 62.6763 15.7506 62.7467 15.7748C63.9054 16.1699 66.6611 17.03 68.6323 17.0167C71.1889 17.0003 71.4548 16.1387 71.4147 15.497C71.3746 14.8552 70.9274 14.2982 69.0498 13.9268C67.1721 13.5554 64.2515 13.1499 62.7556 11.5975C61.2597 10.0451 61.2701 6.24963 63.9901 4.62448C66.5987 3.07063 70.2634 3.40635 72.6655 3.88172C73.7143 4.08969 74.4912 4.29618 74.974 4.43879C75.1314 4.48491 75.2648 4.5902 75.3462 4.73256C75.4276 4.87493 75.4508 5.0433 75.4107 5.20235Z" fill="black"/>
<path d="M87.7791 3.52222H84.9566C84.8035 3.52271 84.6538 3.5676 84.5256 3.65144C84.3975 3.73528 84.2964 3.85449 84.2347 3.99461L77.2364 19.8896C77.204 19.9635 77.1905 20.0443 77.1973 20.1247C77.204 20.2051 77.2307 20.2826 77.275 20.35C77.3193 20.4175 77.3797 20.4728 77.4508 20.5109C77.5219 20.5491 77.6014 20.5689 77.682 20.5685H81.1507C81.247 20.5676 81.3408 20.538 81.4202 20.4835C81.4996 20.429 81.5609 20.352 81.5964 20.2625L82.507 17.954C82.5424 17.8645 82.6038 17.7875 82.6832 17.733C82.7625 17.6785 82.8564 17.6489 82.9527 17.648H89.8053C89.902 17.6491 89.9961 17.6792 90.0755 17.7343C90.1549 17.7893 90.216 17.8669 90.251 17.957L91.1423 20.261C91.1773 20.3511 91.2384 20.4287 91.3178 20.4837C91.3972 20.5388 91.4913 20.5688 91.588 20.57H95.0552C95.1358 20.5704 95.2153 20.5506 95.2864 20.5124C95.3575 20.4743 95.4179 20.4189 95.4622 20.3515C95.5065 20.284 95.5332 20.2066 95.5399 20.1262C95.5467 20.0458 95.5332 19.965 95.5008 19.8911L88.5055 3.99461C88.4434 3.8538 88.3417 3.73412 88.2127 3.65023C88.0836 3.56633 87.933 3.52185 87.7791 3.52222ZM84.3282 13.5777L85.9103 9.7807C85.9475 9.69327 86.0096 9.61871 86.0888 9.5663C86.1681 9.51388 86.261 9.48594 86.356 9.48594C86.451 9.48594 86.5439 9.51388 86.6231 9.5663C86.7024 9.61871 86.7644 9.69327 86.8016 9.7807L88.4075 13.5747C88.4383 13.6482 88.4505 13.7282 88.4429 13.8076C88.4354 13.887 88.4084 13.9633 88.3643 14.0297C88.3202 14.0961 88.2604 14.1506 88.1902 14.1884C88.12 14.2262 88.0415 14.246 87.9618 14.2462H84.7754C84.696 14.2458 84.618 14.2259 84.5481 14.1883C84.4782 14.1507 84.4187 14.0965 84.3747 14.0305C84.3306 13.9645 84.3035 13.8887 84.2957 13.8097C84.2879 13.7307 84.2995 13.6511 84.3297 13.5777H84.3282Z" fill="black"/>
</g>
<defs>
<clipPath id="clip0_401_152">
<rect width="95.5529" height="24" fill="white"/>
</clipPath>
</defs>
</svg>
