<svg width="138" height="18" viewBox="0 0 138 18" fill="none" xmlns="http://www.w3.org/2000/svg">
<path fill-rule="evenodd" clip-rule="evenodd" d="M35.1835 8.76259H33.9514L33.8601 10.1007C33.8601 12.9928 35.7768 15.0647 39.5646 16.2734L39.9753 15.1942C36.7352 14.1151 35.1379 12.4317 35.1379 10.1007L35.1835 8.76259ZM29.8897 9.45324V13.8993H28.6119C26.5127 13.2518 25.5087 12.1295 25.5087 10.5755C25.5087 10.0576 25.7825 9.66906 26.2388 9.28058C26.7408 8.97842 27.2428 8.80575 27.8361 8.80575C28.1099 8.80575 28.4294 8.97842 28.8857 9.36691L29.5703 9.88489L29.8897 9.45324ZM26.7408 2.07194C27.5623 2.93525 28.2012 3.92806 28.6576 4.96403C28.977 5.65468 29.2965 6.77698 29.7528 8.33093L29.8441 8.58993L29.7528 8.5036C29.0683 7.94245 28.475 7.68345 27.8817 7.68345C26.969 7.68345 26.1476 7.94245 25.463 8.46043C24.6872 9.02158 24.3221 9.7554 24.3221 10.6187C24.3221 12.777 25.6912 14.2446 28.3837 15.1079L28.475 15.1511H31.1676V8.89209L30.985 8.11511C30.5287 6.47482 30.1636 5.30935 29.8441 4.57554C29.3421 3.45324 28.6576 2.3741 27.7448 1.38129L26.7408 2.07194ZM33.2668 2.80576L33.1756 5.39568L34.4077 5.43885L34.499 2.89209L33.2668 2.80576ZM13.4151 9.97122C13.6889 11.7842 13.9627 13.0791 14.3278 13.8129C14.9667 15.0647 15.925 15.7122 17.3398 15.7122C18.7089 15.7122 19.7585 15.1079 20.4887 13.9424C20.945 13.2518 21.4014 12 21.8578 10.2734L22.2229 9.02158L21.0363 8.71942L20.6712 9.97122C20.2605 11.5683 19.8498 12.6906 19.4847 13.295C18.937 14.1151 18.2525 14.5468 17.3398 14.5468C16.4727 14.5468 15.8338 14.1151 15.4687 13.2518C15.1492 12.6475 14.8754 11.482 14.6472 9.84173L14.3734 8.07194L13.1869 8.28777L13.4151 9.97122ZM8.66889 2.46043C7.84744 3.02158 7.11726 4.01439 6.47835 5.48201C6.06762 6.34532 5.56562 7.76978 4.92672 9.7554C4.60726 10.8345 4.28781 11.7842 3.96835 12.5612L3.05563 7.33813C2.41672 3.4964 1.96036 1.07914 1.68654 0L0.5 0.215827C0.728181 1.29496 1.18454 3.71223 1.82345 7.51079C2.46236 11.3094 2.91872 13.6403 3.1469 14.5899L3.51199 16.0144L4.28781 14.7626C4.74417 14.0288 5.38308 12.4748 6.15889 10.0576C7.16289 6.82014 8.07562 4.7482 8.85143 3.88489C9.67288 6 10.0836 9.4964 10.0836 14.4604H11.3158C11.3158 8.46043 10.7225 4.48921 9.58161 2.63309L9.21652 2.07194L8.66889 2.46043ZM87.072 10.705L85.2465 10.3597C85.4747 9.58273 85.7485 8.80576 85.9767 8.07194C86.2961 8.80576 86.6156 9.71223 87.072 10.705ZM77.4427 7.85611V9.15108C76.7582 9.10791 75.8454 9.02158 74.7045 8.76259L73.3811 8.5036C73.8374 8.20144 74.522 7.98561 75.4804 7.85611H77.4427ZM75.3434 6.73381C72.7878 7.07914 71.51 8.07194 71.51 9.6259C71.51 11.3525 72.514 12.5612 74.522 13.2518C75.6629 13.6403 77.4883 13.9424 79.9983 14.1151L80.0896 12.9496C77.7165 12.8201 75.9823 12.5612 74.9327 12.1727C73.4724 11.6547 72.7422 10.8345 72.7422 9.6259C72.7422 9.23741 72.9247 8.89209 73.2898 8.58993L73.1073 9.6259L74.4763 9.92806C75.8911 10.2302 77.1233 10.3597 78.0816 10.3597H78.7205V6.69065H75.3891L75.3434 6.73381ZM62.1089 16.705C64.1169 16.705 65.7598 16.3165 67.0833 15.5827C68.5893 14.7194 69.3651 13.554 69.3651 12.0432C69.3651 10.5755 69.1825 8.80576 68.7262 6.73381C68.3155 4.66187 68.1329 2.93525 68.1329 1.64029H66.9007C66.9007 3.06475 67.0833 4.79137 67.5396 6.94964C67.9504 9.02158 68.1329 10.7482 68.1329 12.0432C68.1329 13.1655 67.494 14.0288 66.2162 14.6763C65.0753 15.2374 63.7062 15.5396 62.1089 15.5396C61.1506 15.5396 60.2378 15.1942 59.5077 14.4604C58.8688 13.8561 58.4124 13.1223 58.0929 12.1727L56.9064 12.518C57.3171 13.7698 58.0017 14.8058 58.96 15.5396C59.9184 16.3165 60.968 16.705 62.1089 16.705ZM51.567 10.4892C50.5173 8.20144 48.3724 7.03597 45.041 7.03597C43.6719 7.03597 42.8504 7.94245 42.531 9.71223L40.9794 9.45324L40.7512 10.5755L42.4397 10.8777L42.3941 11.0504L42.1203 12.777V16.3165H42.7135L43.1699 16.4029C43.4893 16.5324 43.8088 16.6187 44.037 16.6187C44.9953 16.6187 46.1362 16.187 47.3684 15.3237L48.3268 14.6763L47.6879 13.7266L46.6382 14.4604C45.5886 15.1942 44.7672 15.5396 44.037 15.5396L43.6263 15.4101L43.3524 15.3237V13.036L43.6263 11.2662V11.1367L49.4221 11.6547L50.6542 11.741C50.928 11.741 51.1106 11.6547 51.2931 11.4388H51.932L51.567 10.4892ZM49.4677 10.3597L43.7632 9.88489C43.9457 8.76259 44.4021 8.15827 45.041 8.15827C47.5053 8.15827 49.1939 8.89209 50.1066 10.4029L49.4677 10.3597ZM122.394 9.66906C122.759 9.45324 123.444 9.15108 124.448 8.84892L124.95 8.67626L124.539 7.59712L124.037 7.76978C122.896 8.11511 122.121 8.5036 121.619 8.80575C120.797 9.36691 120.386 10.0576 120.386 10.8777C120.386 12.2158 121.025 13.2518 122.394 14.0288C123.581 14.7194 124.996 15.0647 126.639 15.0647V13.8993C125.315 13.8993 124.174 13.6403 123.261 13.1655C122.166 12.6043 121.664 11.8705 121.664 10.8777C121.619 10.4029 121.847 10.0144 122.394 9.66906ZM106.33 17.223L107.243 18C108.749 16.446 109.799 15.5396 110.483 15.3669C110.894 15.2374 111.214 15.0216 111.442 14.6331C111.716 14.2446 112.309 13.1223 113.267 11.2662L113.724 10.446H112.72C110.575 10.446 108.84 10.2734 107.517 9.84173C108.475 8.93525 109.89 8.5036 111.716 8.5036L112.856 8.58993L113.724 8.71942L113.815 7.55396L113.039 7.46763L111.67 7.33813C109.114 7.33813 107.198 8.15827 105.92 9.7554L105.418 10.3597L106.194 10.6619C107.836 11.2662 109.708 11.6115 111.67 11.6115C110.803 13.295 110.255 14.1583 110.073 14.2446C109.251 14.4604 108.019 15.4532 106.33 17.223ZM91.4987 16.705L90.7229 15.1942L89.1256 12.0863L92.959 12.259V11.0935L88.5779 10.8777C87.7565 9.06475 87.1176 7.46763 86.7069 6.1295L86.2505 4.48921L85.566 6.04317C84.9727 7.33813 84.5163 8.71942 84.1512 10.1007L82.6909 9.7554L82.3714 10.8777L83.8774 11.223C83.5123 12.6475 83.2841 14.1583 83.1472 15.6691L84.3794 15.7554C84.5163 14.2446 84.7445 12.8201 85.064 11.482L87.6196 11.9137L87.7565 11.9568C88.3041 13.0791 88.943 14.3741 89.6732 15.7554L90.4947 17.2662L91.4987 16.705ZM94.7388 8.3741C95.5603 8.71942 96.1079 9.32374 96.4274 10.187C96.6099 10.705 96.7925 11.6547 96.9294 12.9928C97.0663 14.2014 97.1576 15.0647 97.2488 15.5396L97.7052 17.6115L98.4354 15.6259C98.8917 14.4604 99.5763 12.9065 100.535 11.0504L100.945 10.2302L101.493 9.97122C101.949 11.0504 102.406 12.6043 102.816 14.6331L103.182 16.446L104.368 16.187L104.003 14.3741C103.501 12.1295 102.999 10.3165 102.36 8.89209L102.132 8.33093L100.033 9.32374L99.4394 10.4892L98.2072 13.036L98.1616 12.8201C98.0247 11.3094 97.8421 10.2734 97.5683 9.58273C97.1119 8.5036 96.3361 7.72662 95.2408 7.2518L94.7388 8.3741ZM136.04 9.4964C136.177 10.0576 136.222 10.9209 136.222 12.1295V12.6475L136.04 12.9928L135.811 13.2518C132.982 12.9065 131.522 12 131.522 10.446C131.522 9.53957 131.978 8.71942 132.936 8.15827C133.575 7.76978 134.123 7.68345 134.579 7.85611C135.309 8.11511 135.811 8.67626 136.04 9.4964ZM135.127 6.73381C134.214 6.34532 133.256 6.47482 132.297 7.07914C130.974 7.89928 130.289 9.02158 130.289 10.3597C130.289 12.6475 132.206 14.0288 136.131 14.4173L136.724 14.4604L136.815 13.8993L136.998 13.5971C137.317 13.2518 137.5 12.8633 137.5 12.5612V12.3022C137.5 10.7914 137.409 9.71223 137.226 9.06475C136.861 7.98561 136.131 7.20863 135.127 6.73381Z" fill="#131313"/>
</svg>
