<svg width="130" height="26" viewBox="0 0 130 26" fill="none" xmlns="http://www.w3.org/2000/svg">
<g clip-path="url(#clip0_126_4833)">
<path d="M81.2094 25.859C79.8119 25.6096 78.2437 24.9661 77.1875 24.2099C76.245 23.5261 75.1562 22.2148 74.7256 21.2495C74.1894 20.0267 73.9375 18.7798 73.9375 17.3479C73.9375 12.3844 76.7406 9.06198 81.5344 8.32993C82.5012 8.18512 84.4594 8.18512 85.4669 8.33797C87.7744 8.68389 89.8463 9.77795 91.1056 11.3386C92.3244 12.8349 92.8769 14.5564 92.8769 16.825C92.8769 18.1121 92.7469 19.0131 92.4137 20.0589C91.4306 23.1319 88.8631 25.2959 85.4912 25.8751C84.5975 26.0279 82.1112 26.0199 81.2094 25.859ZM84.6219 24.588C85.4587 24.411 86.3931 23.9283 87.035 23.3491C88.7006 21.8287 89.57 19.0211 89.31 16.0366C89.0906 13.5589 88.4569 12.0063 87.1812 10.8157C86.0925 9.79404 84.1587 9.31136 82.4037 9.61705C79.9581 10.0434 78.2925 11.9661 77.6425 15.1356C77.1144 17.726 77.7237 20.8875 79.0887 22.6734C79.8687 23.687 81.1362 24.4351 82.4687 24.6523C82.9481 24.7328 84.0937 24.7006 84.6219 24.588ZM46.0687 25.6981C45.2806 24.6925 34.5312 14.0576 34.19 13.937C34.0112 13.8807 34.1981 23.1239 34.4175 25.2557L34.4662 25.7544H32.2562V25.497C32.2562 25.3522 32.3131 24.3627 32.3781 23.3008C32.4594 21.9011 32.5 19.5923 32.5 14.9184V8.45864H33.7025L34.4175 9.247C35.5387 10.4617 37.6269 12.6257 39.1787 14.1703C41.7137 16.6802 44.8013 19.6727 45.2481 20.0348L45.6787 20.3968L45.63 17.8627C45.4919 11.5156 45.4106 8.69997 45.37 8.57931C45.3294 8.47473 45.4594 8.45864 46.4344 8.45864H47.5556L47.4987 9.60901C47.4744 10.2365 47.4256 14.1622 47.3931 18.3374L47.3444 25.9153H46.7919C46.2881 25.9153 46.2312 25.8992 46.0687 25.6981ZM0 17.1065V8.45864H3.66437C6.74375 8.45864 7.41 8.48277 7.90562 8.58735C10.3187 9.12634 11.6837 10.9283 11.5131 13.3417C11.3831 15.1437 10.4081 16.6078 8.82375 17.38C7.6375 17.9593 7.03625 18.0638 5.06187 18.0719H3.33937L3.37187 18.3534C3.38812 18.5063 3.42875 20.0991 3.45312 21.893C3.4775 23.687 3.52625 25.2878 3.55062 25.4568L3.59937 25.7544H0V17.1065ZM5.89062 16.6721C6.5325 16.4469 6.97937 16.1251 7.39375 15.57C7.92187 14.8782 8.1575 14.122 8.16562 13.0843C8.16562 11.588 7.605 10.5422 6.51625 10.0112C6.10187 9.81012 5.9475 9.78599 5.05375 9.75381C4.50125 9.74577 3.89187 9.75381 3.68875 9.78599L3.33125 9.83426V13.2854C3.33125 16.5032 3.33937 16.7365 3.4775 16.7687C3.55062 16.7928 4.03 16.8089 4.53375 16.8169C5.24062 16.825 5.54937 16.7928 5.89062 16.6721ZM11.7812 25.674C11.7812 25.6257 11.8706 25.4166 11.9762 25.2074C12.0819 24.9982 12.4475 24.2099 12.7806 23.4617C13.1219 22.7055 13.6581 21.515 13.975 20.807C15.2019 18.1282 15.275 17.9512 16.575 15.0552C17.8831 12.127 19.3375 8.53908 19.3375 8.24948C19.3375 8.22535 19.7275 8.22535 20.1987 8.23339L21.06 8.25752L21.5881 9.66532C22.555 12.2637 23.7331 15.1195 25.0331 18.0317C25.155 18.3213 25.7644 19.6808 26.3737 21.0484C26.9831 22.424 27.6412 23.8881 27.8281 24.3064C28.015 24.7247 28.2506 25.2235 28.3481 25.4166L28.5187 25.7544H24.57L24.0175 24.2903C23.7087 23.4778 23.2375 22.247 22.9612 21.5552L22.4656 20.2841H19.3294C16.4044 20.2841 16.185 20.2922 16.1444 20.4289C16.12 20.5013 15.9169 21.0162 15.6894 21.5632C15.21 22.7297 14.4381 24.8213 14.2837 25.3763L14.1862 25.7544H12.9837C12.2119 25.7544 11.7812 25.7223 11.7812 25.674ZM21.4581 18.6913L21.6775 18.635L21.2306 17.4685C20.9869 16.825 20.6456 15.9401 20.4669 15.4976C20.2962 15.0552 19.9712 14.2266 19.76 13.6635C19.3781 12.6659 19.3619 12.6418 19.2644 12.859C19.2075 12.9797 18.9231 13.6474 18.6306 14.3312C18.3462 15.015 17.9887 15.8677 17.8344 16.2216C17.1844 17.7501 16.835 18.635 16.8675 18.6752C16.9894 18.7959 21.0031 18.8039 21.4581 18.6913ZM53.7306 22.0378C53.7631 19.9865 53.7794 16.0929 53.7631 13.39L53.7225 8.45864H57.8175C60.9781 8.45864 62.1156 8.48277 62.8306 8.57931C65.2437 8.89304 66.9419 9.74577 68.2744 11.3145C69.4606 12.7142 70.0375 14.4679 70.0375 16.656C70.0294 20.5255 68.4125 23.333 65.3331 24.8293C64.6831 25.1511 64.0819 25.3602 63.0906 25.6016C62.7981 25.674 61.3925 25.7062 58.175 25.7303L53.6656 25.7625L53.7306 22.0378ZM61.9287 24.1616C62.7575 23.9122 63.57 23.4456 64.2444 22.8262C65.7962 21.3943 66.4869 19.4958 66.4869 16.7043C66.4706 12.32 63.9762 9.82621 59.605 9.82621C59.1906 9.82621 58.4675 9.85035 57.9962 9.87448L57.1431 9.93079L57.0862 10.6628C56.9725 12.1752 57.0294 24.1053 57.1512 24.234C57.1594 24.2421 57.6712 24.2742 58.2969 24.3064C60.0275 24.4029 61.2869 24.3466 61.9287 24.1616ZM97.4675 23.8881C97.5487 21.5149 97.5487 8.885 97.4675 8.64366L97.4106 8.45864H101.343C105.747 8.45864 106.112 8.49082 107.136 8.97349C107.819 9.29527 108.566 9.97906 108.891 10.5985C109.33 11.411 109.46 12.5614 109.241 13.6152C108.907 15.1839 107.754 16.3343 105.885 16.9617C105.471 17.0985 105.113 17.2272 105.089 17.2513C105.056 17.2835 105.69 18.2086 107.356 20.5496C108.054 21.531 109.866 23.9364 110.646 24.9098L111.288 25.7142L109.167 25.7383C108.006 25.7464 107.006 25.7383 106.957 25.7223C106.909 25.7062 106.657 25.3442 106.389 24.9178C105.373 23.2767 103.041 19.8658 101.489 17.734C101.4 17.6053 101.27 17.557 101.067 17.549C100.799 17.549 100.782 17.5651 100.799 17.7742C100.815 17.8949 100.839 19.7371 100.864 21.877L100.896 25.7544H97.4025L97.4675 23.8881ZM103.399 16.3101C104.447 16.0929 105.178 15.5057 105.649 14.5081C105.877 14.0255 105.909 13.8807 105.934 13.0762C105.983 11.7167 105.69 10.9525 104.918 10.3893C104.187 9.85035 103.285 9.68141 101.701 9.78599L100.75 9.8423V16.3343L101.262 16.3664C102.367 16.4227 102.927 16.4147 103.399 16.3101ZM113.376 25.497C113.441 25.3522 113.774 24.6201 114.116 23.864C114.457 23.1158 114.847 22.2631 114.969 21.9735C115.091 21.6839 115.318 21.1771 115.481 20.8473C115.741 20.2761 116.041 19.6325 116.756 18.0317C116.927 17.6536 117.162 17.1307 117.284 16.8652C117.479 16.4388 117.715 15.9079 118.625 13.8485C119.332 12.2476 120.161 10.2445 120.559 9.14243L120.884 8.25752L121.737 8.23339L122.59 8.20926L122.728 8.63562C122.882 9.09416 123.272 10.14 123.914 11.7569C124.28 12.6981 124.507 13.2532 125.247 15.015C125.71 16.1251 126.661 18.3132 126.994 19.0372C127.075 19.2142 127.335 19.8095 127.587 20.3646C128.44 22.2792 128.936 23.3893 129.464 24.5397C129.756 25.1752 130 25.7062 130 25.7223C130 25.7383 129.122 25.7544 128.058 25.7544H126.116L125.791 24.9339C125.612 24.4753 125.312 23.7111 125.125 23.2204C124.938 22.7377 124.597 21.877 124.369 21.3058L123.963 20.2841L120.835 20.3002L117.715 20.3244L117.122 21.7804C116.797 22.5849 116.342 23.7996 116.098 24.4995L115.667 25.7544H113.262L113.376 25.497ZM122.915 18.7074C123.053 18.6833 123.175 18.6591 123.175 18.643C123.175 18.5867 121.217 13.4784 120.973 12.8992L120.859 12.6257L120.542 13.3819C120.372 13.7922 120.112 14.4197 119.957 14.7736C119.811 15.1276 119.397 16.1331 119.031 17.01C118.657 17.8869 118.389 18.627 118.422 18.6591C118.544 18.7798 122.216 18.82 122.915 18.7074ZM81.3394 7.21173C81.1687 6.6647 81.1769 6.62448 81.4044 6.57621C81.8675 6.47163 84.24 6.43141 84.9387 6.5199C85.3369 6.56817 85.67 6.61644 85.6862 6.63252C85.7025 6.64861 85.6537 6.83364 85.5887 7.05889L85.4588 7.45307H81.4125L81.3394 7.21173ZM81.0875 5.86829C80.73 5.48215 81.0144 4.83859 81.5425 4.83859C82.0381 4.83859 82.3144 5.44997 82.0137 5.86829C81.8431 6.11767 81.3231 6.11767 81.0875 5.86829ZM84.8331 5.83611C84.6056 5.55455 84.6219 5.31322 84.8656 5.04775C85.1256 4.77423 85.4912 4.76619 85.7594 5.0397C86.1575 5.43389 85.8894 6.04527 85.3125 6.04527C85.0687 6.04527 84.9631 5.997 84.8331 5.83611ZM83.1594 5.86829C82.745 5.65109 82.6719 5.19255 82.9969 4.87881C83.2406 4.62943 83.5331 4.62139 83.8175 4.86272C84.11 5.12015 84.11 5.53042 83.8094 5.78785C83.5737 5.98092 83.4031 6.00505 83.1594 5.86829ZM80.2425 3.61582C79.3812 0.848489 79.2187 0.309504 79.235 0.293415C79.2756 0.253192 81.9 4.16285 81.9 4.25134C81.9 4.2996 81.6481 4.35592 81.3394 4.38809C81.0306 4.41223 80.7219 4.46049 80.6487 4.48463C80.5512 4.51681 80.47 4.33983 80.2425 3.61582ZM85.9219 4.42832C85.7431 4.39614 85.4588 4.36396 85.2963 4.36396C85.1338 4.35592 84.9794 4.33178 84.955 4.29156C84.9387 4.25938 85.1337 3.90542 85.4019 3.51124C85.67 3.10901 86.255 2.23215 86.71 1.55641C87.1569 0.880668 87.5387 0.341682 87.555 0.357771C87.5875 0.38995 87.4412 0.904801 86.8156 2.94812C86.6612 3.43884 86.4987 3.98587 86.45 4.17893C86.4012 4.36396 86.3362 4.50876 86.3037 4.50876C86.2712 4.50072 86.1006 4.46854 85.9219 4.42832ZM82.7125 4.13871C82.7287 3.76062 83.4275 -0.0927237 83.4681 0.0118555C83.5088 0.116435 84.175 4.09044 84.175 4.2272C84.175 4.25134 83.85 4.27547 83.4437 4.27547C82.8019 4.27547 82.7125 4.25938 82.7125 4.13871Z" fill="black"/>
</g>
<defs>
<clipPath id="clip0_126_4833">
<rect width="130" height="26" fill="white"/>
</clipPath>
</defs>
</svg>
