<svg width="100" height="30" viewBox="0 0 100 30" fill="none" xmlns="http://www.w3.org/2000/svg">
<path d="M15.3463 0C7.14708 0 0.5 6.71585 0.5 15.0001C0.5 23.2847 7.14708 30 15.3463 30C23.5463 30 30.1927 23.2847 30.1927 15.0001C30.1927 6.71638 23.5465 0 15.3463 0ZM22.1547 21.6344C21.8887 22.0751 21.3179 22.2148 20.8818 21.9443C17.396 19.7931 13.0079 19.3058 7.84008 20.4988C7.34209 20.6134 6.84569 20.2982 6.73223 19.7948C6.61824 19.2915 6.92902 18.79 7.42825 18.6753C13.0836 17.3699 17.9346 17.932 21.848 20.3483C22.2841 20.6188 22.4224 21.1938 22.1547 21.6344ZM23.9718 17.5501C23.6368 18.1003 22.9241 18.2741 22.3798 17.9356C18.3892 15.4572 12.306 14.7395 7.58585 16.1871C6.97369 16.374 6.32714 16.0254 6.14134 15.408C5.95697 14.7894 6.30214 14.1374 6.91324 13.9494C12.305 12.2964 19.0079 13.0971 23.5907 15.9425C24.1349 16.281 24.3069 17.0009 23.9718 17.5501ZM24.1278 13.297C19.3429 10.4255 11.4485 10.1615 6.88009 11.5624C6.14649 11.7872 5.37069 11.3687 5.14838 10.6275C4.92606 9.88596 5.33984 9.10266 6.07398 8.87732C11.3182 7.2688 20.0361 7.57958 25.545 10.8839C26.2063 11.2795 26.4226 12.1406 26.0308 12.8064C25.6408 13.4731 24.7856 13.6929 24.1278 13.297ZM40.8918 13.8473C38.3283 13.2296 37.8726 12.7962 37.8726 11.8853C37.8726 11.0248 38.674 10.4457 39.8671 10.4457C41.023 10.4457 42.1682 10.8855 43.3702 11.7907C43.4057 11.8182 43.4518 11.8291 43.4961 11.8219C43.5422 11.8151 43.5812 11.7902 43.6078 11.7528L44.8594 9.97015C44.9108 9.89671 44.8966 9.7955 44.8275 9.73944C43.3968 8.57998 41.7871 8.01628 39.9043 8.01628C37.1369 8.01628 35.2028 9.69448 35.2028 12.0956C35.2028 14.6705 36.871 15.5822 39.7536 16.286C42.2055 16.8569 42.6203 17.3351 42.6203 18.1899C42.6203 19.1375 41.7835 19.7268 40.4362 19.7268C38.9399 19.7268 37.7184 19.2163 36.3533 18.0233C36.3196 17.9929 36.2735 17.9803 36.231 17.9821C36.1849 17.9857 36.1441 18.0072 36.1158 18.0412L34.7117 19.7286C34.6532 19.8002 34.6603 19.9041 34.7276 19.965C36.3161 21.398 38.2698 22.1539 40.3794 22.1539C43.3613 22.1539 45.2884 20.5078 45.2884 17.9588C45.2937 15.8081 44.0191 14.6169 40.8971 13.8496L40.8918 13.8473ZM52.0358 11.293C50.7434 11.293 49.6833 11.8074 48.8075 12.8615V11.675C48.8075 11.5814 48.733 11.505 48.6409 11.505H46.345C46.2528 11.505 46.1784 11.5814 46.1784 11.675V24.8586C46.1784 24.9518 46.2528 25.0288 46.345 25.0288H48.6409C48.733 25.0288 48.8075 24.9518 48.8075 24.8586V20.6976C49.6833 21.6882 50.7434 22.1736 52.0358 22.1736C54.438 22.1736 56.8704 20.3053 56.8704 16.7338C56.8739 13.1616 54.4416 11.2928 52.0376 11.2928L52.0358 11.293ZM54.2005 16.7338C54.2005 18.5517 53.0925 19.8217 51.504 19.8217C49.935 19.8217 48.7508 18.4944 48.7508 16.7338C48.7508 14.973 49.935 13.6461 51.504 13.6461C53.0659 13.6459 54.2005 14.9444 54.2005 16.7338ZM63.1019 11.293C60.0083 11.293 57.5848 13.6997 57.5848 16.7727C57.5848 19.8128 59.9923 22.1933 63.0647 22.1933C66.1689 22.1933 68.5995 19.7948 68.5995 16.7338C68.5995 13.6832 66.1849 11.293 63.1019 11.293ZM63.1019 19.8396C61.4567 19.8396 60.2157 18.5034 60.2157 16.7329C60.2157 14.9544 61.4141 13.6638 63.0647 13.6638C64.7205 13.6638 65.9686 14.9996 65.9686 16.7718C65.9686 18.5499 64.763 19.8396 63.1019 19.8396ZM75.205 11.505H72.6788V8.89595C72.6788 8.80245 72.6043 8.72614 72.5121 8.72614H70.2163C70.1241 8.72614 70.0479 8.80245 70.0479 8.89595V11.505H68.9452C68.853 11.505 68.7785 11.5814 68.7785 11.675V13.6681C68.7785 13.7616 68.853 13.8381 68.9452 13.8381H70.0479V18.996C70.0479 21.0792 71.0743 22.136 73.1007 22.136C73.9233 22.136 74.6058 21.964 75.2494 21.595C75.3026 21.5664 75.3345 21.509 75.3345 21.4481V19.5494C75.3345 19.4921 75.3043 19.4366 75.2547 19.4061C75.205 19.3739 75.143 19.3721 75.0916 19.399C74.6501 19.6229 74.2229 19.7268 73.7442 19.7268C73.0085 19.7268 72.6788 19.3882 72.6788 18.6323V13.839H75.205C75.2972 13.839 75.3717 13.7627 75.3717 13.669V11.6761C75.3752 11.5824 75.3008 11.5061 75.2068 11.5061L75.205 11.505ZM84.0054 11.5153V11.1948C84.0054 10.2521 84.3635 9.83168 85.1648 9.83168C85.6435 9.83168 86.0282 9.92769 86.459 10.0728C86.5122 10.0896 86.5672 10.0812 86.6097 10.0491C86.654 10.0171 86.6788 9.96567 86.6788 9.91121V7.95699C86.6788 7.88229 86.6328 7.8162 86.5601 7.79416C86.1062 7.65749 85.5247 7.51724 84.6525 7.51724C82.534 7.51724 81.4117 8.72345 81.4117 11.0042V11.495H80.309C80.2169 11.495 80.1406 11.5713 80.1406 11.6648V13.6681C80.1406 13.7616 80.2169 13.8381 80.309 13.8381H81.4117V21.7921C81.4117 21.887 81.488 21.9622 81.5802 21.9622H83.8742C83.9682 21.9622 84.0426 21.887 84.0426 21.7921V13.8387H86.186L89.4693 21.7921C89.097 22.6268 88.73 22.7934 88.2301 22.7934C87.8259 22.7934 87.3986 22.6716 86.9643 22.4297C86.9235 22.4082 86.8739 22.4047 86.8313 22.4172C86.787 22.4333 86.7498 22.4656 86.732 22.5086L85.9538 24.2335C85.9165 24.3159 85.9484 24.4108 86.0264 24.4538C86.8384 24.898 87.5706 25.0879 88.4765 25.0879C90.1713 25.0879 91.1092 24.289 91.9335 22.1431L95.9153 11.7474C95.9366 11.6951 95.9295 11.636 95.8976 11.5896C95.8675 11.5436 95.816 11.5158 95.7611 11.5158H93.3713C93.2986 11.5158 93.2348 11.5618 93.2118 11.6297L90.7635 18.6932L88.0829 11.6251C88.0581 11.5593 87.9961 11.5158 87.9269 11.5158L84.0054 11.5153ZM78.9032 11.505H76.6074C76.5152 11.505 76.4389 11.5814 76.4389 11.675V21.7921C76.4389 21.887 76.5152 21.9622 76.6074 21.9622H78.9032C78.9954 21.9622 79.0716 21.887 79.0716 21.7921V11.6758C79.0716 11.5821 78.9971 11.505 78.9032 11.505ZM77.7686 6.89819C76.8591 6.89819 76.1216 7.64191 76.1216 8.56063C76.1216 9.47989 76.8591 10.2245 77.7686 10.2245C78.678 10.2245 79.4138 9.47989 79.4138 8.56063C79.4138 7.64209 78.6763 6.89819 77.7686 6.89819ZM97.8761 14.7581C96.9684 14.7581 96.261 14.021 96.261 13.1259C96.261 12.2309 96.9773 11.4853 97.8849 11.4853C98.7926 11.4853 99.5 12.2223 99.5 13.1166C99.5 14.0117 98.7838 14.7581 97.8761 14.7581ZM97.8849 11.6476C97.057 11.6476 96.4312 12.3122 96.4312 13.1259C96.4312 13.9393 97.0535 14.5949 97.8761 14.5949C98.704 14.5949 99.3298 13.9309 99.3298 13.1166C99.3298 12.3032 98.7075 11.6476 97.8849 11.6476ZM98.2431 13.2845L98.7004 13.9307H98.314L97.9027 13.3378H97.5499V13.9307H97.2272V12.2176H97.9825C98.3778 12.2176 98.6366 12.4213 98.6366 12.7641C98.6384 13.045 98.4771 13.2166 98.2448 13.2845H98.2431ZM97.97 12.5115H97.5499V13.0534H97.97C98.1792 13.0534 98.3051 12.9497 98.3051 12.7822C98.3051 12.6059 98.1792 12.5115 97.97 12.5115Z" fill="#131313"/>
</svg>
