<svg width="134" height="14" viewBox="0 0 134 14" fill="none" xmlns="http://www.w3.org/2000/svg">
<g clip-path="url(#clip0_23_219)">
<path d="M14.3804 10.4849L20.3006 4.3586L18.5408 2.53754L12.6207 8.66386V0H10.1321V8.66386L5.07048 3.426L4.21192 2.53754L2.45214 4.3586L8.37229 10.4849H0V13.0602H7.82125C8.70825 13.0602 9.54815 12.8505 10.2956 12.4752C10.6813 12.283 11.0422 12.0466 11.3728 11.7726C11.3728 11.7726 11.3728 11.7716 11.3746 11.7707L11.3613 11.7569C11.3666 11.7615 11.371 11.7661 11.3764 11.7698C11.3817 11.7661 11.3861 11.7615 11.3915 11.7569L11.3781 11.7707C11.3781 11.7707 11.379 11.7726 11.3799 11.7726C11.7105 12.0466 12.0714 12.283 12.4571 12.4752C13.2046 12.8505 14.0445 13.0602 14.9315 13.0602H22.7527V10.4849H14.3804Z" fill="#131313"/>
<path d="M27.9023 10.0268H30.1207C30.2798 11.1057 31.0175 11.5793 32.0929 11.5793C33.1684 11.5793 33.7478 11.16 33.7478 10.5005C33.7478 9.60561 32.604 9.51363 31.3712 9.25887C29.7528 8.9296 28.1681 8.4725 28.1681 6.42794C28.1681 4.38337 29.7866 3.43237 31.8476 3.43237C34.2242 3.43237 35.5458 4.65653 35.7209 6.53646H33.555C33.4483 5.5312 32.8333 5.16607 31.8121 5.16607C30.8789 5.16607 30.2638 5.5312 30.2638 6.2072C30.2638 7.01013 31.4601 7.0837 32.7453 7.3587C34.2598 7.68797 35.9325 8.12668 35.9325 10.3166C35.9325 12.1983 34.3842 13.3314 32.1303 13.3314C29.5084 13.3314 28.0463 12.0171 27.9059 10.025L27.9041 10.0268H27.9023Z" fill="#131313"/>
<path d="M42.1085 13.0601V11.9647H42.056C41.441 12.8219 40.7353 13.3167 39.4679 13.3167C37.461 13.3167 36.335 11.984 36.335 9.93761V3.68896H38.7116V9.51546C38.7116 10.6109 39.1862 11.2133 40.2074 11.2133C41.3334 11.2133 42.0214 10.3368 42.0214 9.09422V3.68896H44.4166V13.0583H42.1102L42.1085 13.0601V13.0601Z" fill="#131313"/>
<path d="M45.3661 3.68898H47.6725V4.94901H47.7249C48.2173 4.09182 49.0981 3.43237 50.3468 3.43237C51.4907 3.43237 52.4061 4.08998 52.846 5.07593H52.8798C53.4966 4.05319 54.4467 3.43237 55.5906 3.43237C57.4926 3.43237 58.5662 4.7108 58.5662 6.75536V13.0555H56.171V7.17476C56.171 6.11523 55.6599 5.56799 54.7791 5.56799C53.7757 5.56799 53.1607 6.37091 53.1607 7.61439V13.0574H50.7654V7.1766C50.7654 6.11707 50.2544 5.56983 49.3736 5.56983C48.4048 5.56983 47.7551 6.37275 47.7551 7.61623V13.0592H45.3599V3.68898H45.3634H45.3661Z" fill="#131313"/>
<path d="M59.4504 3.68898H61.7568V4.94901H61.8092C62.3016 4.09182 63.1824 3.43237 64.4311 3.43237C65.575 3.43237 66.4904 4.08998 66.9304 5.07593H66.965C67.5819 4.05319 68.532 3.43237 69.6758 3.43237C71.5778 3.43237 72.6515 4.7108 72.6515 6.75536V13.0555H70.2571V7.17476C70.2571 6.11523 69.746 5.56799 68.8653 5.56799C67.8618 5.56799 67.2468 6.37091 67.2468 7.61439V13.0574H64.8524V7.1766C64.8524 6.11707 64.3414 5.56983 63.4606 5.56983C62.4918 5.56983 61.8421 6.37275 61.8421 7.61623V13.0592H59.4478V3.68898H59.4513H59.4504Z" fill="#131313"/>
<path d="M73.0947 8.36592C73.0947 5.58926 74.9087 3.43433 77.5484 3.43433C80.4538 3.43433 82.003 5.73549 82.003 9.0778H75.4535C75.6304 10.5218 76.4045 11.4167 77.7599 11.4167C78.6931 11.4167 79.238 10.9789 79.5037 10.2652H81.8625C81.5292 11.928 80.1027 13.3343 77.7786 13.3343C74.7861 13.3343 73.0956 11.161 73.0956 8.36684L73.0947 8.36592ZM75.49 7.36066H79.5037C79.4335 6.17329 78.6771 5.35197 77.5857 5.35197C76.3192 5.35197 75.7015 6.1365 75.49 7.36066V7.36066Z" fill="#131313"/>
<path d="M84.8208 5.18734H84.8732C85.418 4.12781 86.0357 3.58057 87.0916 3.58057C87.3547 3.58057 87.5138 3.59896 87.6542 3.65323V5.82655H87.6018C86.0348 5.66192 84.907 6.52094 84.907 8.49285V13.0593H82.5117V3.68909H84.8181V5.18734H84.8199H84.8208Z" fill="#131313"/>
<path d="M92.8483 4.9132H92.9007C93.5522 3.92633 94.2926 3.43427 95.5244 3.43427C97.3908 3.43427 98.6414 4.89481 98.6414 6.94121V13.0602H96.2461V7.30634C96.2461 6.30107 95.6835 5.5892 94.6792 5.5892C93.6233 5.5892 92.8474 6.46571 92.8474 7.74413V13.0593H90.4521V0H92.8474V4.9132H92.8483Z" fill="#131313"/>
<path d="M99.0811 8.36592C99.0811 5.58926 100.895 3.43433 103.536 3.43433C106.441 3.43433 107.989 5.73549 107.989 9.0778H101.44C101.617 10.5218 102.391 11.4167 103.746 11.4167C104.679 11.4167 105.224 10.9789 105.489 10.2652H107.848C107.514 11.928 106.088 13.3343 103.764 13.3343C100.772 13.3343 99.0811 11.161 99.0811 8.36684V8.36592ZM101.476 7.36066H105.49C105.42 6.17329 104.663 5.35197 103.572 5.35197C102.306 5.35197 101.688 6.1365 101.476 7.36066V7.36066Z" fill="#131313"/>
<path d="M113.905 12.019H113.869C113.41 12.7309 112.759 13.2791 111.21 13.2791C109.363 13.2791 108.06 12.2738 108.06 10.4104C108.06 8.34746 109.679 7.68801 111.685 7.39554C113.181 7.17664 113.869 7.0488 113.869 6.33601C113.869 5.66001 113.358 5.22222 112.354 5.22222C111.228 5.22222 110.681 5.64161 110.611 6.53651H108.482C108.552 4.89295 109.732 3.44897 112.373 3.44897C115.013 3.44897 116.175 4.70901 116.175 6.90164V11.6686C116.175 12.3805 116.282 12.8017 116.492 12.9663V13.0583H114.186C114.045 12.8744 113.957 12.4366 113.904 12.0172V12.019H113.905ZM113.923 9.75373V8.34746C113.501 8.60407 112.849 8.7503 112.25 8.89562C111 9.18809 110.384 9.47965 110.384 10.3562C110.384 11.2327 110.946 11.5435 111.792 11.5435C113.165 11.5435 113.921 10.667 113.921 9.75373H113.923Z" fill="#131313"/>
<path d="M117.127 0H119.521V13.0602H117.127V0Z" fill="#131313"/>
<path d="M119.977 3.68897H121.228V1.21582H123.569V3.69081H125.117V5.33437H123.569V10.3994C123.569 11.0938 123.938 11.3301 124.467 11.3301C124.767 11.3301 125.171 11.3118 125.171 11.3118V13.0399C125.171 13.0399 124.626 13.0776 123.675 13.0776C122.513 13.0776 121.228 12.6021 121.228 10.8307V5.33253H119.978V3.68897H119.977Z" fill="#131313"/>
<path d="M128.146 4.9132H128.198C128.85 3.92633 129.59 3.43427 130.823 3.43427C132.689 3.43427 133.94 4.89481 133.94 6.94121V13.0602H131.545V7.30634C131.545 6.30107 130.982 5.5892 129.978 5.5892C128.922 5.5892 128.146 6.46571 128.146 7.74413V13.0593H125.751V0H128.146V4.9132V4.9132Z" fill="#131313"/>
</g>
<defs>
<clipPath id="clip0_23_219">
<rect width="134" height="14" fill="white"/>
</clipPath>
</defs>
</svg>
