<svg width="134" height="26" viewBox="0 0 134 26" fill="none" xmlns="http://www.w3.org/2000/svg">
<g clip-path="url(#clip0_126_4821)">
<path d="M7.7969 4.03106C4.4107 6.26084 0.865288 7.76885 0.205985 8.04193L16.9257 19.7298C16.9342 19.7357 16.9411 19.7436 16.9458 19.7528C16.9505 19.762 16.9528 19.7722 16.9527 19.7825V19.7832C16.9526 19.7937 16.9499 19.804 16.9449 19.8132C16.9398 19.8224 16.9326 19.8302 16.9238 19.836L16.1775 20.3264C16.1668 20.3333 16.1543 20.3369 16.1416 20.3367C16.1289 20.3366 16.1165 20.3327 16.106 20.3256L10.0001 16.1308C7.67036 14.5598 5.10041 14.8932 3.35544 15.45C1.68039 15.9836 0.446146 16.801 0.140625 17.0141C0.286926 17.1165 12.7707 25.8244 12.8547 25.8836C13.1241 25.631 14.9531 23.964 18.7972 21.5969C22.8507 19.1047 25.2405 18.2335 25.7934 18.0492L9.04292 6.34163C9.03447 6.33575 9.02757 6.32792 9.0228 6.31881C9.01804 6.30969 9.01556 6.29957 9.01556 6.28928V6.28853C9.01569 6.27809 9.01834 6.26785 9.02331 6.25866C9.02827 6.24948 9.03539 6.24164 9.04406 6.23581L9.75695 5.76398C9.76738 5.75712 9.7796 5.75346 9.7921 5.75346C9.80459 5.75346 9.81682 5.75712 9.82725 5.76398C9.84967 5.7784 12.0955 7.25 16.1326 10.087C19.9178 12.745 25.1972 9.55753 25.923 9.09481C25.7695 8.98899 13.0877 0.170391 13.0075 0.114258C12.6902 0.384304 10.3509 2.35427 7.7969 4.03106Z" fill="black"/>
<path d="M70.4518 5.98642V9.71055H78.7769C78.7937 9.71074 78.8099 9.71752 78.8218 9.72943C78.8337 9.74133 78.8405 9.75743 78.8407 9.77427C78.8407 9.79171 78.8335 9.8084 78.8202 9.82092L70.1588 17.8927V21.0312H87.6575V17.2912H78.9456C78.9327 17.2911 78.9202 17.2872 78.9095 17.28C78.8989 17.2728 78.8907 17.2625 78.8859 17.2506C78.8813 17.2386 78.8804 17.2255 78.8834 17.213C78.8863 17.2005 78.8928 17.1892 78.9023 17.1804C78.9023 17.1804 87.6469 9.16818 87.6879 9.12987V5.98566C87.5621 5.98641 70.5779 5.98642 70.4518 5.98642ZM63.4404 5.98642V15.5438C63.4404 16.9403 62.2122 17.774 60.1549 17.774C58.0679 17.774 56.8705 16.9476 56.8705 15.5063V5.98679H51.4977V15.812C51.4977 17.9014 52.0312 19.2115 53.2278 20.0584C54.5373 20.9865 56.7383 21.4185 60.1545 21.4185C63.5711 21.4185 65.7724 20.9865 67.0819 20.0584C68.2789 19.2115 68.8125 17.9011 68.8125 15.812V5.98679L63.4404 5.98642ZM101.197 5.98642V15.5052C101.197 16.9259 99.9696 17.7736 97.913 17.7736C95.8237 17.7736 94.626 16.9472 94.626 15.5059V5.98642H89.2546V15.8116C89.2546 17.9011 89.7885 19.2111 90.9855 20.058C92.2954 20.9861 94.4964 21.4181 97.913 21.4181C101.328 21.4181 103.529 20.9861 104.84 20.058C106.037 19.2107 106.571 17.9007 106.571 15.8116V5.98642H101.197ZM128.295 5.98642V21.032H133.907V5.98642H128.295ZM119.944 5.98642C119.907 6.01676 113.859 11.2083 113.859 11.2083C113.85 11.2163 113.839 11.2215 113.827 11.2232C113.814 11.2248 113.802 11.223 113.791 11.2178C113.78 11.2129 113.77 11.2048 113.763 11.1944C113.757 11.1841 113.753 11.1721 113.753 11.1598V5.98642H108.142V21.032H113.753V15.7153C113.753 15.6902 113.768 15.6664 113.792 15.6569C113.804 15.6521 113.817 15.6507 113.829 15.6528C113.841 15.655 113.853 15.6606 113.862 15.669C113.862 15.669 119.475 20.9967 119.511 21.032H127.03L118.763 13.3592C118.756 13.3533 118.751 13.3461 118.748 13.3381C118.744 13.33 118.742 13.3213 118.742 13.3126V13.311C118.742 13.2932 118.75 13.2758 118.765 13.2636L127.297 5.98604L119.944 5.98642ZM32.1248 10.5184C32.1248 12.1542 32.7587 13.264 34.1194 14.0097C35.3712 14.6958 37.2522 15.1232 40.4092 15.4395L41.0058 15.4907C42.3742 15.5996 43.925 15.7225 43.925 16.8417C43.925 17.6083 43.0917 18.0315 41.5785 18.0315C40.8394 18.0315 39.7545 17.8449 38.8455 16.2558H31.8037C31.8197 17.9982 32.4664 19.194 33.8409 20.0106C35.3917 20.9326 37.9187 21.3802 41.5671 21.3802C49.7037 21.3802 50.336 17.5976 50.336 16.4386C50.336 13.7502 47.9359 12.136 42.9978 11.5049L42.2222 11.4071C39.9688 11.1275 38.1889 10.9068 38.1889 10.1175C38.1889 9.81219 38.29 9.55656 38.4891 9.3582C39.0097 8.83897 40.0832 8.84048 40.5415 8.84086H40.5844C41.0062 8.84086 42.4506 8.96678 43.4375 10.5544H49.8192C49.774 7.37723 46.4239 5.55518 40.6057 5.55518C32.9513 5.5548 32.1248 9.02557 32.1248 10.5184Z" fill="black"/>
</g>
<defs>
<clipPath id="clip0_126_4821">
<rect width="134" height="26" fill="white"/>
</clipPath>
</defs>
</svg>
