<svg width="120" height="18" viewBox="0 0 120 18" fill="none" xmlns="http://www.w3.org/2000/svg">
<path d="M1.33072 4.99021C1.33072 8.21598 3.48777 9.41918 6.72888 10.2275C9.81461 10.9656 10.4473 11.9215 10.4473 13.1358C10.4473 14.4793 9.24112 15.4167 7.50957 15.4167C5.64111 15.4167 4.05385 14.745 2.36299 13.2429C2.3075 13.313 0.749835 15.2285 0.694336 15.2949C2.59239 17.0333 4.92333 17.956 7.43927 17.956C10.8987 17.956 13.2222 15.9039 13.2222 12.8442C13.2222 10.1684 11.6165 8.57029 8.01275 7.66236C4.74573 6.85407 4.10565 5.97566 4.10565 4.72447C4.10565 3.63569 5.03433 2.53583 6.81028 2.53583C8.27175 2.53583 9.71841 3.10052 11.228 4.25574C11.2761 4.18562 12.6709 2.15567 12.7153 2.08555C11.0134 0.683043 9.09683 0.000244141 6.85838 0.000244141C3.65426 0.000244141 1.33072 2.09662 1.33072 4.99021Z" fill="#131313"/>
<path d="M22.4498 5.01978C22.4313 5.08252 19.686 13.9146 19.686 13.9146C19.686 13.9146 17.1996 5.13419 17.1811 5.06776C17.1145 5.06776 14.5061 5.06776 14.3877 5.06776C14.4247 5.18586 18.3281 17.7457 18.3466 17.8084C18.4132 17.8084 20.733 17.8084 20.7959 17.8084C20.8144 17.7457 23.6042 8.99477 23.6042 8.99477C23.6042 8.99477 26.368 17.7457 26.3902 17.8084C26.4531 17.8084 28.7766 17.8084 28.8395 17.8084C28.858 17.7457 32.8058 5.18586 32.8428 5.06776C32.7244 5.06776 30.1863 5.06776 30.1197 5.06776C30.1012 5.13419 27.5705 13.9109 27.5705 13.9109C27.5705 13.9109 24.8029 5.08252 24.7844 5.01978C24.7178 5.01978 22.5164 5.01978 22.4498 5.01978Z" fill="#131313"/>
<path d="M34.1787 11.3898V11.4378C34.1787 15.2393 36.8167 18.0001 40.4501 18.0001C42.7588 18.0001 44.039 17.3209 45.0564 16.6824C45.0342 16.616 44.3424 14.5602 44.3054 14.4606C43.1547 15.2578 42.0114 15.601 40.4945 15.601C38.5372 15.601 37.1941 14.4163 36.9055 12.4343L36.8981 12.3826C36.8981 12.3826 45.8704 12.3826 45.9555 12.3826C45.9555 12.3753 45.9555 12.3642 45.9555 12.3642L45.9962 11.6076C45.9962 8.21942 44.187 4.80542 40.143 4.80542C36.7464 4.80542 34.1787 7.63627 34.1787 11.3898ZM36.8833 10.493C37.1497 8.42979 38.4225 7.09741 40.1245 7.09741C41.8708 7.09741 43.0881 8.39657 43.2953 10.493L43.299 10.5446H36.8796L36.8833 10.493Z" fill="#131313"/>
<path d="M58.0724 0.000244141C58.0724 0.0888235 58.0724 6.14913 58.0724 6.14913L57.9984 6.09007C56.8366 5.17844 55.7451 4.80567 54.2393 4.80567C51.4236 4.80567 48.5747 7.06075 48.5747 11.3679V11.4159C48.5747 15.7231 51.579 17.9782 54.5464 17.9782C57.2066 17.9782 60.444 17.4651 60.8066 17.4061C60.8066 17.3286 60.8066 0.0925143 60.8066 0.000244141C60.7141 0.000244141 58.1612 0.000244141 58.0724 0.000244141ZM51.3237 11.4122V11.3679C51.3237 8.97997 52.8333 7.24529 54.9126 7.24529C56.8403 7.24529 58.1205 8.52969 58.1205 9.0501V15.3171L58.0835 15.3245C58.0724 15.3282 56.9698 15.5348 54.9163 15.5348C52.8666 15.5385 51.3237 13.7633 51.3237 11.4122Z" fill="#131313"/>
<path d="M64.4365 0C64.4365 0.0922701 64.4365 17.3283 64.4365 17.4058C64.7991 17.4649 68.0365 17.9779 70.6968 17.9779C73.6641 17.9779 76.6684 15.7228 76.6684 11.4157V11.3677C76.6684 7.06051 73.8158 4.80543 71.0002 4.80543C69.4906 4.80543 68.4028 5.1782 67.2411 6.08983L67.1671 6.14888C67.1671 6.14888 67.1671 0.0885793 67.1671 0C67.0783 0 64.5253 0 64.4365 0ZM67.156 15.3242L67.119 15.3168V9.04985C67.119 8.52945 68.3954 7.24505 70.3231 7.24505C72.4024 7.24505 73.912 8.97973 73.912 11.3677V11.4157C73.912 13.7667 72.3691 15.5383 70.3231 15.5383C68.2696 15.5383 67.1671 15.3279 67.156 15.3242Z" fill="#131313"/>
<path d="M80.0242 5.91678C80.0501 5.9906 80.7383 8.08328 80.7642 8.17186C81.8594 7.70313 82.8768 7.3931 84.2569 7.3931C86.2401 7.3931 87.3352 8.37855 87.3352 10.1649V10.4675L87.276 10.4491C86.3104 10.1317 85.3669 9.9213 83.8869 9.9213C80.7901 9.9213 78.9438 11.4641 78.9438 14.0476V14.0956C78.9438 16.7641 81.1934 17.982 83.2801 17.982C86.2956 17.982 89.6514 17.4653 90.0177 17.4063C90.0177 17.3287 90.0177 10.2129 90.0177 10.2129C90.0177 6.72507 88.164 4.87966 84.6565 4.87966C82.6918 4.87597 81.3784 5.29303 80.0242 5.91678ZM81.6485 13.948V13.9C81.6485 12.634 82.7215 11.8774 84.5159 11.8774C85.5075 11.8774 86.5435 12.062 87.3537 12.3868L87.3833 12.3978V15.6384L87.3463 15.6457C87.3352 15.6494 86.0995 15.8783 84.0756 15.8783C82.6216 15.8746 81.6485 15.0995 81.6485 13.948Z" fill="#131313"/>
<path d="M93.4624 5.37749C93.4624 5.455 93.4624 17.6199 93.4624 17.7122C93.5512 17.7122 96.1041 17.7122 96.1929 17.7122C96.1929 17.6199 96.1929 7.45542 96.1929 7.45542L96.2299 7.44804C96.241 7.44804 97.3954 7.24873 99.0123 7.24873C100.692 7.24873 101.691 8.47408 101.691 10.5225C101.691 10.5225 101.691 17.6199 101.691 17.7122C101.78 17.7122 104.333 17.7122 104.422 17.7122C104.422 17.6199 104.422 9.65514 104.422 9.65514C104.422 6.6619 102.76 4.80542 100.085 4.80542C97.0439 4.80542 93.825 5.31844 93.4624 5.37749Z" fill="#131313"/>
<path d="M107.921 0.000244141C107.921 0.0925143 107.921 17.6238 107.921 17.7124C108.01 17.7124 110.563 17.7124 110.652 17.7124C110.652 17.6238 110.652 14.0991 110.652 14.0991L112.428 12.1873C112.428 12.1873 116.128 17.6718 116.154 17.7124C116.202 17.7124 119.147 17.7124 119.306 17.7124C119.214 17.5722 114.274 10.2053 114.274 10.2053C114.274 10.2053 118.98 5.21904 119.125 5.07141C118.925 5.07141 115.865 5.07141 115.824 5.07141C115.798 5.10094 110.652 10.7885 110.652 10.7885C110.652 10.7885 110.652 0.0925143 110.652 0.000244141C110.559 0.000244141 108.006 0.000244141 107.921 0.000244141Z" fill="#131313"/>
</svg>
