<svg width="88" height="34" viewBox="0 0 88 34" fill="none" xmlns="http://www.w3.org/2000/svg">
<g clip-path="url(#clip0_127_5103)">
<path fill-rule="evenodd" clip-rule="evenodd" d="M22.623 25.3331C27.0921 22.784 30.2562 19.5685 31.7194 16.1174C32.3128 13.6469 32.6688 11.0194 32.6688 8.19596C32.6688 7.80378 32.6688 7.41174 32.6291 7.05859C32.3523 11.2154 26.9736 16.3921 19.8148 19.8036C11.2322 23.9607 4.74606 25.0587 1.85889 21.9213C2.84762 23.882 4.19218 25.8429 5.73475 27.6469C9.2943 30.7447 15.1478 29.6467 22.623 25.3331Z" fill="black"/>
<path fill-rule="evenodd" clip-rule="evenodd" d="M18.8263 16.9018C26.9341 13.0195 32.5898 7.49025 31.6405 3.84307C29.9795 1.05872 26.7363 0 23.2162 0C12.7749 0 0 6.82362 0 15.4902C0 16.5883 0.237378 17.843 0.711891 19.1764C3.0848 22.3136 10.3227 20.9802 18.8263 16.9018Z" fill="black"/>
<path fill-rule="evenodd" clip-rule="evenodd" d="M18.1538 29.2157C12.4585 31.5294 9.17597 30.7842 7.35656 29.3334L7.31689 29.2941C10.125 32.0784 13.2892 34 16.0973 34C21.0015 34 27.6857 28.1176 30.8496 18.9805C29.0699 22.3137 25.2334 26.353 18.1538 29.2157Z" fill="black"/>
<path fill-rule="evenodd" clip-rule="evenodd" d="M18.1536 29.2157C25.2729 26.3531 29.1091 22.3137 30.8891 19.0196C31.2056 18.0786 31.4824 17.1372 31.7591 16.1177C30.2959 19.5294 27.092 22.7452 22.6626 25.3333C15.1874 29.647 9.33387 30.745 5.77441 27.6471C6.28834 28.2354 6.80257 28.8236 7.3564 29.3334L7.39587 29.3724C9.13615 30.7843 12.4188 31.5294 18.1536 29.2157Z" fill="white"/>
<path fill-rule="evenodd" clip-rule="evenodd" d="M19.8149 19.8432C26.9737 16.4315 32.3524 11.2157 32.6293 7.0983C32.5108 5.80417 32.1547 4.74521 31.6406 3.84326C32.6293 7.49044 26.9737 13.0197 18.8263 16.902C10.3227 20.9804 3.08487 22.3138 0.711914 19.1766C1.02837 20.0786 1.42381 20.9804 1.89846 21.9216C4.74618 25.059 11.2323 23.961 19.8149 19.8432Z" fill="white"/>
<path fill-rule="evenodd" clip-rule="evenodd" d="M40.1044 12.7058C39.6693 12.7058 39.2344 12.3923 38.7596 11.7254C38.4828 11.2549 38.3247 10.9021 38.3247 10.6667C38.3247 10.2745 38.6015 9.8825 39.1156 9.52935C39.6693 9.17654 40.223 9.01953 40.8557 9.01953H51.3367C52.0091 9.01953 52.3254 9.33331 52.3254 9.92148C52.3254 10.6274 52.1276 11.2549 51.7718 11.8431C51.3762 12.4313 50.9807 12.7058 50.5456 12.7058H47.1443V24.196C47.1443 24.9018 46.9466 25.5294 46.5905 26.1176C46.195 26.7058 45.7995 26.9802 45.3646 26.9802C44.9295 26.9802 44.4943 26.6665 44.0198 25.9999C43.743 25.5294 43.5847 25.1764 43.5847 24.9412V12.7058H40.1044Z" fill="black"/>
<path fill-rule="evenodd" clip-rule="evenodd" d="M53.1959 21.6469C53.3936 22.4312 53.7892 23.0978 54.4221 23.5684C55.0546 24.0392 55.8062 24.2742 56.7159 24.2742C57.4672 24.2742 58.3769 24.0391 59.4053 23.5293C59.8798 23.2939 60.3149 23.1762 60.7502 23.1762C61.3034 23.1762 61.5803 23.4116 61.5803 23.9214C61.5803 24.3529 61.5014 24.7841 61.3033 25.1762C61.1059 25.5683 60.8685 25.8821 60.5523 26.0782C59.9588 26.4312 59.3263 26.7057 58.6143 26.9017C57.9023 27.0978 57.1904 27.1762 56.5182 27.1762C55.292 27.1762 54.1847 26.8624 53.1563 26.1959C52.1278 25.5683 51.3369 24.7057 50.7832 23.686C50.2294 22.6666 49.9526 21.5686 49.9526 20.4312C49.9526 19.1371 50.2691 17.9606 50.8623 16.941C51.4952 15.8823 52.2862 15.0978 53.2749 14.5096C54.2636 13.9607 55.3314 13.647 56.5182 13.647C57.665 13.647 58.6933 13.9214 59.603 14.4312C60.5128 14.9804 61.2245 15.6863 61.699 16.5489C62.2131 17.4115 62.451 18.3919 62.451 19.4508C62.451 19.9998 62.2926 20.4705 62.0156 20.9017C61.7386 21.3332 61.4226 21.5292 61.0662 21.5292L53.1959 21.6469ZM56.3598 16.5096C55.5292 16.5096 54.8569 16.7451 54.2637 17.2155C53.6705 17.6862 53.3147 18.3135 53.1959 19.0978H59.2471C59.2076 18.3529 58.9309 17.7646 58.377 17.2548C57.8234 16.745 57.1509 16.5096 56.3598 16.5096Z" fill="black"/>
<path fill-rule="evenodd" clip-rule="evenodd" d="M67.1173 26.9412C66.366 26.9412 65.6935 26.6274 65.1004 26.0392C64.5067 25.451 64.2695 24.7451 64.2695 23.9216V10.4314C64.2695 10.0785 64.5465 9.68638 65.0606 9.37261C65.5748 9.01956 66.1288 8.86279 66.7218 8.86279C67.3546 8.86279 67.6712 9.13729 67.6712 9.72547V22.8235C67.6712 23.0589 67.7104 23.2156 67.829 23.3724C67.9085 23.5294 68.1059 23.6471 68.3432 23.7255C68.6202 23.8432 68.7387 24.0783 68.7387 24.4314C68.7387 25.0589 68.581 25.6471 68.2246 26.1569C67.8687 26.7059 67.513 26.9412 67.1173 26.9412Z" fill="black"/>
<path fill-rule="evenodd" clip-rule="evenodd" d="M72.2992 12.3134C71.8638 12.3134 71.3894 11.9606 70.9144 11.2547C70.5982 10.7449 70.4399 10.3921 70.4399 10.1173C70.4399 9.68613 70.7169 9.29404 71.3098 8.94094C71.9035 8.58813 72.4966 8.39209 73.1691 8.39209C73.8808 8.39209 74.2366 8.70582 74.2366 9.37235C74.2366 9.88227 74.1577 10.3527 73.9596 10.8232C73.7621 11.2941 73.5249 11.6468 73.2082 11.9213C72.8921 12.196 72.6152 12.3134 72.2992 12.3134ZM72.2992 26.941C71.9035 26.941 71.4683 26.6272 71.033 25.9604C70.7566 25.5292 70.6374 25.1762 70.6374 24.9801V15.5292C70.6374 15.1764 70.9144 14.7842 71.4285 14.4705C71.9427 14.1174 72.4966 13.9607 73.0897 13.9607C73.7224 13.9607 74.0391 14.2351 74.0391 14.8233V24.3135C74.0391 24.784 73.9596 25.2154 73.7621 25.6469C73.5641 26.0781 73.3666 26.3918 73.0896 26.6272C72.8127 26.8233 72.5357 26.941 72.2992 26.941Z" fill="black"/>
<path fill-rule="evenodd" clip-rule="evenodd" d="M82.2653 26.9413C81.0394 26.9413 79.9322 26.6275 78.9039 26.0393C77.9146 25.4118 77.1241 24.6275 76.5701 23.6472C76.0162 22.6669 75.7393 21.5688 75.7393 20.3921C75.7393 19.1373 76.056 18 76.6888 16.9806C77.3216 15.9609 78.1518 15.1374 79.1411 14.5885C80.1296 14.0393 81.2369 13.7256 82.3839 13.7256C83.3725 13.7256 84.322 14.0003 85.2715 14.5492C85.8645 14.157 86.4581 13.961 87.0513 13.961C87.684 13.961 88.0001 14.2354 88.0001 14.8236V24.3138C88.0001 24.7843 87.9212 25.2157 87.7231 25.6472C87.5256 26.0784 87.3282 26.3921 87.0512 26.6275C86.7742 26.8627 86.537 26.9803 86.2601 26.9803C85.8645 26.9803 85.4298 26.6666 84.9945 26C84.8361 25.7255 84.7175 25.4902 84.6387 25.2941C84.52 25.6863 84.3219 26 84.0847 26.2745C83.8475 26.5492 83.6103 26.7059 83.3725 26.8236C83.0564 26.902 82.6608 26.9413 82.2653 26.9413ZM82.5025 23.8039C83.2544 23.8039 84.0058 23.6079 84.6387 23.1764V17.4117C84.0058 17.0588 83.2936 16.8628 82.5025 16.8628C81.5139 16.8628 80.7227 17.1766 80.0502 17.8431C79.3783 18.5097 79.0616 19.294 79.0616 20.3136C79.0616 21.3333 79.3784 22.1176 80.0502 22.7842C80.7227 23.451 81.5537 23.8039 82.5025 23.8039Z" fill="black"/>
</g>
<defs>
<clipPath id="clip0_127_5103">
<rect width="88" height="34" fill="white"/>
</clipPath>
</defs>
</svg>
