<svg width="146" height="62" viewBox="0 0 146 62" fill="none" xmlns="http://www.w3.org/2000/svg">
<g clip-path="url(#clip0_126_5040)">
<path d="M145.87 0.311274H143.769C143.981 0.723782 144.087 1.18504 144.083 1.6463V6.5739L138.392 0.311274H136.763C136.983 0.720032 137.093 1.18129 137.07 1.6463V7.89768C137.108 8.36269 136.998 8.8277 136.763 9.22895H138.846C138.634 8.81645 138.524 8.35894 138.535 7.89768V2.69257L144.481 9.22895H145.855C145.643 8.81645 145.537 8.35894 145.545 7.89768V1.6463C145.617 1.03129 145.723 0.58503 145.87 0.311274V0.311274ZM22.0806 8.06268C20.0964 8.06268 18.453 7.01266 18.453 4.77761C18.453 2.60632 19.9601 1.4663 22.0806 1.4663C24.0232 1.4663 24.8638 2.17131 24.9699 2.27631V0.236273H24.6291C23.9588 0.236273 23.4969 0.0825195 21.8837 0.0825195C18.5439 0.0825195 16.7528 2.43382 16.7528 4.76636C16.7528 7.33142 18.4795 9.43521 21.702 9.43521C22.9591 9.40521 24.2087 9.2552 25.4318 8.98895V6.10139C25.394 5.68888 25.5303 5.28387 25.8105 4.98012H23.5158C23.7809 5.25387 23.9172 5.62888 23.8945 6.00764V7.72892C23.103 7.96518 22.4972 8.07393 22.0806 8.06268V8.06268ZM32.9181 5.19012C33.38 5.17887 33.8155 5.37763 34.1109 5.72638V3.51759C33.8041 3.8401 33.3649 4.00885 32.9181 3.9826H31.3504V1.62005H32.2327C33.8382 1.62005 34.0427 1.6463 34.6561 2.09631V0.311274H29.5252C29.7221 0.543779 29.8281 0.840035 29.8281 1.14754V8.06268C29.8433 8.47519 29.7297 8.88395 29.5025 9.22895H34.8038C35.156 8.10768 35.3491 7.48517 35.3907 7.36142C34.8568 7.63142 34.2358 7.91643 32.3046 7.91643H31.3466V5.19012H32.9181ZM85.1663 1.41755C85.8404 1.4213 86.4917 1.6463 87.018 2.05881V0.236273C86.7908 0.236273 86.5674 0.217522 86.344 0.183772C85.9502 0.12377 85.5526 0.0937698 85.1512 0.0937698C83.4548 0.0937698 82.3794 1.18504 82.3794 2.55757C82.3794 4.00885 83.273 4.58261 84.2651 5.17512C85.3557 5.83889 85.988 6.24764 85.988 6.98266C85.988 7.71392 85.4466 8.10018 84.6703 8.10018C83.7877 8.02813 82.9491 7.68757 82.2695 7.12516V9.0752C82.8943 9.0752 83.4889 9.45021 84.6817 9.45021C86.5333 9.45021 87.5444 8.25768 87.5444 6.91141C87.5444 5.28012 86.3667 4.58636 85.2497 3.9226C84.3977 3.42009 83.9546 3.06383 83.9546 2.41132C83.947 1.86381 84.3749 1.41755 85.1663 1.41755V1.41755ZM1.47744 1.62005H3.12464V7.89768C3.12085 8.35144 3.03755 8.80145 2.87472 9.22895H4.89679C4.73776 8.80145 4.65445 8.35144 4.65066 7.89768V1.62005H5.68821C6.37359 1.62005 6.90751 1.62005 7.39599 2.08131C7.41492 1.96131 7.49823 1.37255 7.64969 0.311274H0.455047L0.129395 2.08131C0.70118 1.76255 1.14801 1.6088 1.47744 1.62005ZM69.3457 5.47138H70.9891C71.4473 5.47138 71.8827 5.67388 72.1705 6.02639V3.81384C71.86 4.12885 71.4321 4.2901 70.9891 4.26385H69.3457V1.6463H70.3037C71.8979 1.6463 72.1062 1.6463 72.7272 2.10756V0.311274H67.5054C67.6834 0.558779 67.7932 0.851285 67.8159 1.15879V8.05143C67.8386 8.46769 67.725 8.8802 67.494 9.22895H69.6941C69.4782 8.8877 69.3571 8.49019 69.3457 8.08518V5.47138V5.47138ZM11.2054 9.24395H13.3827C13.1706 8.9102 13.057 8.52019 13.057 8.12268V1.40255C13.057 1.00504 13.1706 0.61503 13.3827 0.281274H11.2054C11.4212 0.61503 11.531 1.00504 11.531 1.40255V8.12268C11.4591 8.64769 11.3493 9.0227 11.2054 9.24395V9.24395ZM41.722 1.62005C42.5627 1.62005 43.3541 1.90131 43.3541 2.90258C43.3541 3.90385 42.6535 4.3126 41.4873 4.3126C41.2373 4.31635 40.9836 4.2976 40.7337 4.26385V1.62005H41.722ZM41.8243 0.311274H38.8972C39.0941 0.540029 39.1963 0.832535 39.1963 1.13254V8.03643C39.2115 8.45644 39.1017 8.86895 38.882 9.22895H41.0366C40.8511 8.8577 40.7413 8.44894 40.7224 8.03643V5.55763C40.9647 5.59513 41.207 5.61388 41.4494 5.61013C41.6425 5.61013 41.8508 5.61013 42.0325 5.58388C42.699 6.63015 43.4412 7.62767 44.2477 8.57269C44.4585 8.82579 44.7271 9.02551 45.0313 9.15529C45.3356 9.28507 45.6667 9.34117 45.9972 9.31896C46.4099 9.31521 46.8227 9.27771 47.2278 9.2027C46.3834 8.71519 44.2705 6.21389 43.4563 4.98387C43.8957 4.82451 44.2756 4.53639 44.5455 4.15788C44.8154 3.77938 44.9625 3.32843 44.9672 2.86508C44.9483 0.862535 43.3919 0.311274 41.8243 0.311274V0.311274ZM117.023 7.88268V1.62005C117.501 1.53755 117.982 1.49255 118.462 1.49255C120.015 1.49255 122.272 1.96506 122.272 4.76261C122.272 6.4839 121.17 7.88268 119.189 7.88268H117.023ZM115.195 0.311274C115.418 0.60378 115.524 0.971287 115.494 1.33879V7.92393C115.505 8.38519 115.395 8.83895 115.172 9.24395H119.288C122.332 9.24395 123.964 7.03891 123.964 4.72886C123.964 2.67382 122.889 0.146271 118.576 0.146271C117.857 0.153771 117.137 0.213772 116.425 0.326274C116.179 0.322524 115.441 0.315024 115.195 0.311274V0.311274ZM99.3625 7.03516L97.1019 0.386276H95.5569L95.7122 0.847535V0.502528L93.5349 7.03516H93.7052C92.8002 3.70884 92.2966 1.86006 92.1982 1.49255C92.1527 1.29754 92.13 1.09879 92.1338 0.900036C92.1376 0.686282 92.2095 0.480028 92.3421 0.311274H90.0322C90.3578 0.656281 90.4109 0.761283 90.6532 1.6313C90.8047 2.13756 91.5582 4.67261 92.9176 9.22895H94.1483L96.5187 2.40382H96.3105L98.7112 9.22895H99.9419C101.297 4.67261 102.051 2.13756 102.203 1.6313C102.422 0.885036 102.502 0.656281 102.824 0.311274H100.635C100.741 0.480028 100.794 0.675031 100.79 0.873785C100.79 1.08004 100.76 1.28254 100.699 1.4813C100.601 1.84881 100.101 3.69759 99.2073 7.02391L99.3625 7.03516ZM64.4192 4.96887C64.423 4.90512 64.423 4.84137 64.423 4.77761C64.423 2.39257 62.738 0.0937698 59.5496 0.0937698C56.9557 1.78722e-05 54.7784 2.00256 54.68 4.57136C54.68 4.63511 54.6762 4.69886 54.6762 4.76261C54.6762 7.14766 56.365 9.44646 59.5496 9.44646C62.1435 9.54021 64.3246 7.53767 64.4192 4.96887V4.96887ZM56.3915 4.76261C56.3915 2.74507 57.8002 1.4813 59.5496 1.4813C61.299 1.4813 62.7115 2.74882 62.7115 4.76261C62.7115 6.7764 61.299 8.06268 59.5496 8.06268C57.838 8.06268 56.3915 6.78015 56.3915 4.76261ZM109.242 5.19012C109.7 5.17887 110.139 5.37763 110.431 5.72638V3.51759C110.124 3.8401 109.689 4.00885 109.242 3.9826H107.67V1.62005H108.553C110.162 1.62005 110.37 1.6463 110.976 2.09631V0.311274H105.845C106.042 0.547529 106.144 0.843785 106.144 1.14754V8.06268C106.163 8.47519 106.05 8.88395 105.819 9.22895H111.131C111.48 8.10768 111.677 7.48517 111.715 7.36142C111.184 7.63142 110.56 7.91643 108.628 7.91643H107.67V5.19012H109.242ZM130.841 5.19012C131.299 5.17887 131.738 5.37763 132.034 5.72638V3.51759C131.723 3.8401 131.288 4.00885 130.841 3.9826H129.273V1.62005H130.156C131.761 1.62005 131.969 1.6463 132.575 2.09631V0.311274H127.444C127.641 0.547529 127.747 0.843785 127.744 1.14754V8.06268C127.762 8.47519 127.649 8.88395 127.422 9.22895H132.731C133.083 8.10768 133.276 7.48517 133.314 7.36142C132.784 7.63142 132.163 7.91643 130.231 7.91643H129.273V5.19012H130.841Z" fill="black"/>
<path d="M63.7378 61.8537V60.785C64.0975 60.9837 64.4989 61.0887 64.9117 61.1C65.881 61.1 66.5323 60.4137 66.6724 59.1724C66.3165 59.5137 65.8318 59.6899 65.3395 59.6562C65.104 59.6733 64.8673 59.6442 64.6431 59.5704C64.4189 59.4967 64.2116 59.3798 64.0332 59.2265C63.8548 59.0731 63.7088 58.8864 63.6035 58.6769C63.4982 58.4675 63.4357 58.2396 63.4197 58.0061C63.4121 57.9349 63.4121 57.8637 63.4159 57.7887C63.4133 57.5327 63.4617 57.2788 63.5584 57.0414C63.6551 56.8041 63.7981 56.5879 63.9792 56.4054C64.1604 56.2228 64.3761 56.0775 64.6141 55.9776C64.8521 55.8778 65.1076 55.8255 65.366 55.8236C65.3812 55.8199 65.4001 55.8199 65.4153 55.8236C66.9224 55.8236 67.71 56.9411 67.71 58.5987C67.71 60.7287 66.5399 61.9587 64.8321 61.9587C64.4648 61.9662 64.0975 61.925 63.7378 61.8537V61.8537ZM64.3853 57.6536V57.7324C64.3853 58.4787 64.9003 58.8049 65.563 58.8049C66.006 58.8312 66.4339 58.6287 66.6952 58.2724C66.6232 57.4586 66.2711 56.6674 65.4531 56.6674C65.3176 56.6624 65.1823 56.6839 65.0552 56.7308C64.928 56.7778 64.8115 56.8491 64.7123 56.9407C64.613 57.0324 64.5331 57.1425 64.477 57.2649C64.4208 57.3872 64.3897 57.5193 64.3853 57.6536V57.6536ZM85.4997 61.8312V60.7775C85.9125 60.9875 86.3669 61.1 86.8288 61.1075C87.6884 61.1075 88.1352 60.6087 88.1352 60.0799C88.1352 59.5512 87.6732 59.1012 86.56 59.1012H86.4767V58.3474C87.1204 58.3474 87.6884 57.9724 87.6884 57.4586C87.6884 57.2261 87.5445 56.7124 86.772 56.7124C86.4312 56.7124 86.0904 56.7724 85.7686 56.8924V56.0299C86.0829 55.9174 86.4161 55.8574 86.7493 55.8574C87.6732 55.8574 88.7108 56.2286 88.7108 57.2824C88.7146 57.7924 88.4457 58.2687 87.9989 58.5312C88.707 58.7224 89.1803 59.3824 89.1311 60.1099C89.1311 61.1675 88.0898 62 86.8288 62C86.3971 61.97 85.9427 61.9212 85.4997 61.8312V61.8312ZM54.6006 60.0162C54.6839 59.7537 54.718 59.4762 54.7066 59.2024V56.7424C54.718 56.4649 54.6839 56.1911 54.6006 55.9249H55.7555C55.6719 56.1891 55.6348 56.4657 55.6457 56.7424V59.2024C55.6343 59.4762 55.6722 59.7537 55.7555 60.0162H54.6006ZM75.4726 57.8637C75.4121 58.5912 75.9573 59.2324 76.6919 59.2887C76.8665 59.3031 77.0422 59.2832 77.209 59.2303C77.3758 59.1774 77.5305 59.0924 77.6641 58.9803C77.7978 58.8681 77.9078 58.731 77.9879 58.5767C78.0679 58.4224 78.1165 58.254 78.1309 58.0812C78.1347 58.0437 78.1384 58.0099 78.1384 57.9724C78.1642 57.6508 78.0604 57.3322 77.8496 57.0863C77.6389 56.8403 77.3384 56.687 77.0138 56.6599C76.9797 56.6561 76.9456 56.6561 76.9116 56.6561C76.737 56.6417 76.5613 56.6616 76.3945 56.7145C76.2277 56.7674 76.073 56.8524 75.9394 56.9645C75.8057 57.0767 75.6957 57.2138 75.6156 57.3681C75.5356 57.5224 75.487 57.6908 75.4726 57.8637V57.8637ZM74.7456 57.9462C74.7485 57.6616 74.808 57.3805 74.9207 57.1188C75.0335 56.8571 75.1973 56.62 75.4027 56.4211C75.6081 56.2222 75.8511 56.0654 76.1179 55.9596C76.3846 55.8539 76.6697 55.8013 76.957 55.8049C78.1574 55.8161 79.123 56.7836 79.123 57.9724C79.1533 59.1349 78.2255 60.1062 77.0517 60.1362C77.0062 60.1399 76.957 60.1362 76.9116 60.1362C75.7036 60.1249 74.7342 59.1424 74.7456 57.9462Z" fill="black"/>
<path d="M103.202 40.7708C102.975 40.9171 102.775 41.0971 102.562 41.2696C102.195 41.5808 101.805 41.8583 101.392 42.1059C100.749 42.4877 100.01 42.6802 99.2605 42.6609C98.738 42.6421 98.2154 42.6159 97.6966 42.5521C96.2766 42.3796 94.8945 41.9746 93.6108 41.3521C92.5884 40.8458 91.6153 40.2496 90.6989 39.5708C89.7636 38.892 88.8699 38.1608 87.946 37.4708C87.0751 36.792 86.1398 36.1957 85.159 35.6857C85.0454 35.637 84.9318 35.5807 84.8258 35.517C84.3259 35.1982 83.7693 34.977 83.1862 34.8682C82.107 34.6245 81.2247 34.5307 81.0088 34.4932C80.2436 34.3758 79.4694 34.3256 78.6952 34.3432C77.9227 34.3769 77.1464 34.3844 76.3702 34.3844C74.9767 34.3844 73.5794 34.3844 72.1897 34.3132C70.9439 34.2532 69.9518 34.1632 69.7019 34.1482C69.0657 34.0919 68.4296 34.0057 67.7972 33.8894C67.2443 33.7844 66.7066 33.6119 66.1651 33.4544C65.2866 33.1619 64.3741 32.9857 63.4463 32.9407C63.3901 32.9377 63.3354 32.921 63.2873 32.8919L62.5337 32.5169C61.6581 32.1225 60.8525 31.5907 60.1481 30.9419C59.7695 30.5706 59.3492 30.2444 58.9023 29.9594C58.8704 29.9392 58.8428 29.9129 58.8214 29.882C58.7999 29.851 58.7849 29.8161 58.7774 29.7794C58.7622 29.7156 58.6259 29.1831 58.607 29.1156C58.5691 28.9618 58.5123 28.8118 58.4404 28.6731C58.3544 28.5165 58.2092 28.4001 58.0367 28.3495C57.8642 28.2989 57.6784 28.3181 57.5202 28.4031C57.5088 28.4106 57.5013 28.4143 57.4899 28.4218C57.2627 28.5831 57.0242 28.7218 56.7894 28.8718C56.4372 29.1081 56.0396 29.2731 55.6193 29.3556C55.4565 29.3818 55.2974 29.4268 55.1422 29.4906C54.525 29.7269 53.9153 29.9856 53.3094 30.2369C52.8323 30.437 52.4075 30.7422 52.0674 31.1294C51.632 31.6169 51.1094 32.0182 50.5225 32.3107C50.4619 32.3444 50.3975 32.3782 50.3407 32.4157C49.8939 32.6632 49.7348 33.2294 49.9885 33.6719C50.1324 33.8969 50.2195 34.1557 50.2347 34.4182V34.4594C50.3104 34.8382 50.6058 35.1345 50.9882 35.2095C51.117 35.232 51.2381 35.2957 51.3328 35.3857C51.4275 35.4832 51.5487 35.5432 51.685 35.5582C51.8667 35.5582 51.9046 35.5582 51.9576 35.3707C52.0296 35.0445 52.306 34.797 52.6468 34.7595C52.6846 34.7595 52.7263 34.7595 52.768 34.737C53.2337 34.647 53.6919 34.9282 53.8169 35.3782C53.8585 35.5132 53.8585 35.6557 53.8169 35.7907C53.6162 35.6932 53.37 35.7757 53.2716 35.9782C53.2678 35.9895 53.2602 36.0045 53.2564 36.0195C53.2299 36.0682 53.1958 36.1132 53.1693 36.162C53.0633 36.3532 53.0065 36.3757 52.8096 36.2782C52.7111 36.2295 52.6165 36.1695 52.5256 36.1095C52.4612 36.0682 52.4006 36.0195 52.3325 35.982C52.2643 35.9445 52.1924 35.952 52.1697 36.057C52.1318 36.2332 52.1469 36.417 52.2189 36.5857C52.306 36.7807 52.3476 36.9945 52.3401 37.2083C52.3363 37.3208 52.3779 37.4295 52.4537 37.512C52.5938 37.6958 52.802 37.8195 53.0292 37.8608C53.2299 37.932 53.4533 37.857 53.5669 37.6808C53.6389 37.557 53.7525 37.4558 53.8888 37.3995C54.3697 37.1595 54.8885 37.0057 55.4224 36.9457C55.5549 36.9382 55.6837 36.882 55.7746 36.7807C55.8427 36.6682 55.9904 36.6307 56.1078 36.6945C56.1229 36.7057 56.1381 36.717 56.1532 36.732C56.2479 36.8032 56.335 36.882 56.4183 36.9683C56.5773 37.122 56.6341 37.1295 56.8121 37.0058C56.87 36.9533 56.9457 36.9242 57.0242 36.9242C57.1026 36.9242 57.1783 36.9533 57.2362 37.0058C57.3839 37.1033 57.577 37.1033 57.7247 37.0058C57.7853 36.9532 57.8762 36.957 57.9292 37.017C57.9292 37.0208 57.933 37.0245 57.9367 37.0283C58.0049 37.0958 58.0655 37.1745 58.1147 37.257C58.2548 37.482 58.3798 37.7145 58.4896 37.9583C58.7054 38.4195 58.9099 38.8883 59.1295 39.3495C59.2393 39.6346 59.4022 39.8933 59.6067 40.1183C59.6294 40.1483 59.6483 40.1783 59.6559 40.2121C59.7695 40.5871 59.9399 40.9583 60.0686 41.3333C60.1141 41.4421 60.1444 41.5546 60.1595 41.6708C60.1936 42.0759 60.1747 42.4846 60.1103 42.8859C59.902 43.8459 59.6029 44.7834 59.2166 45.6834C58.8607 46.4822 58.554 47.296 58.2472 48.106C58.0989 48.4954 57.9151 48.8707 57.6982 49.2272C57.4722 49.6343 57.1129 49.9531 56.6796 50.131C56.3085 50.281 55.945 50.4573 55.5966 50.6598C55.2124 50.9215 54.7822 51.1098 54.3281 51.2148C54.1917 51.241 54.0819 51.3348 54.0365 51.4623C53.9153 51.736 53.8471 52.0286 53.8396 52.3248C53.8396 52.5986 53.8964 52.6773 54.1728 52.7448C54.3962 52.7936 54.6272 52.8236 54.8544 52.8348C54.9112 52.8386 54.9642 52.8236 55.0059 52.7861C55.1535 52.6773 55.1876 52.6736 55.3315 52.7861C55.4565 52.8948 55.6155 52.9586 55.7821 52.9698C55.9828 52.9923 56.1873 52.9998 56.388 53.0223C56.9598 53.0898 57.5391 52.9248 57.986 52.5611C58.6979 52.0286 59.334 51.4023 59.8717 50.6935C60.0913 50.4085 60.2807 50.101 60.5192 49.8348C61.8294 48.376 62.9692 47.2997 63.2418 47.0185C63.3289 46.8984 63.469 46.8234 63.6205 46.8159C63.6887 46.8122 63.7568 46.7822 63.8061 46.7297C63.984 46.5947 64.1014 46.3959 64.1393 46.1747C64.1999 45.7997 64.2529 45.4659 64.321 45.1134C64.3248 45.0009 64.3513 44.8884 64.4006 44.7834C64.4611 45.0122 64.5293 45.2034 64.5596 45.3984C64.6013 45.6084 64.6959 45.8034 64.836 45.9647C64.9383 46.0772 65.0254 46.2047 65.0935 46.3397C65.1693 46.5159 65.2639 46.6884 65.3737 46.8459C65.8311 47.5812 66.2009 48.3664 66.4757 49.186C66.5968 49.546 66.6423 49.9248 66.612 50.3035C66.5855 50.6298 66.5173 50.7235 66.1954 50.8135C65.9607 50.8735 65.7183 50.9148 65.476 50.9373C65.351 50.9523 65.2336 51.0085 65.139 51.0948C64.8133 51.406 64.6581 51.8561 64.7262 52.2986C64.7338 52.4073 64.8171 52.4936 64.9269 52.5123C65.0367 52.5461 65.1541 52.5686 65.2639 52.6061C65.3737 52.6436 65.3813 52.6061 65.4192 52.6698C65.4949 52.7748 65.5971 52.7561 65.7032 52.7336C65.9493 52.6736 66.203 52.6586 66.4567 52.6848C66.8127 52.7223 67.1686 52.7223 67.5246 52.6848C67.5927 52.6811 67.6609 52.6661 67.7252 52.6361C68.013 52.4973 68.2857 52.3286 68.5432 52.1336C68.7704 51.9611 68.937 51.7248 69.0241 51.451C69.1263 51.151 69.1604 50.8285 69.1187 50.5135C69.0884 50.0598 68.9673 49.6135 68.759 49.2047C68.7249 49.1372 68.6984 49.066 68.6871 48.991C68.6075 48.631 68.5848 48.2635 68.6227 47.8997C68.6606 47.3147 68.634 46.7259 68.5432 46.1447C68.4864 45.7209 68.4599 45.2897 68.4674 44.8622C68.4674 44.7572 68.5015 44.7234 68.6113 44.7159C69.5277 44.6822 70.4441 44.5697 71.3453 44.3897C72.1708 44.2134 73.0114 44.1496 73.8445 44.0146C74.5526 43.9471 75.2531 43.8234 75.9385 43.6434C76.0824 43.5946 76.1581 43.6434 76.2149 43.7821C76.2377 43.8834 76.2717 43.9809 76.3134 44.0746C76.5671 44.5809 76.8662 45.0647 77.2108 45.5222C77.6614 46.0547 78.1007 46.6022 78.5513 47.1385C78.7066 47.311 78.752 47.5547 78.6687 47.7722C78.6308 47.9035 78.5816 48.0272 78.5134 48.1472C78.3008 48.5368 78.017 48.8839 77.6766 49.171C77.6084 49.2272 77.544 49.291 77.4835 49.3585C77.1408 49.7439 76.7078 50.0401 76.2225 50.221C75.9688 50.3148 75.7075 50.3935 75.4425 50.4535C75.1774 50.4835 74.9313 50.6073 74.7533 50.8023C74.7344 50.821 74.7116 50.836 74.6851 50.851C74.3519 51.091 74.1626 51.481 74.1777 51.8898C74.1777 52.1261 74.2951 52.2611 74.5526 52.2386C74.6813 52.2386 74.8101 52.2611 74.9313 52.3061C75.1509 52.3923 75.3894 52.4261 75.6242 52.4073C75.8968 52.3886 76.1695 52.3886 76.4383 52.4073C77.0783 52.4936 77.7182 52.2798 78.1764 51.8298C78.9906 50.986 79.6191 50.2848 79.782 50.116C79.9713 49.9098 80.2099 49.7635 80.4787 49.6848C80.7629 49.6168 81.0212 49.4687 81.2221 49.2584C81.4231 49.0481 81.5581 48.7845 81.6109 48.4997C81.6299 48.4135 81.6564 48.331 81.6677 48.241C81.7321 47.956 81.7132 47.656 81.6109 47.386C81.3913 46.9135 81.2474 46.4072 81.1868 45.8897C81.1565 45.6984 81.1679 45.5034 81.2171 45.3159C81.2474 45.1584 81.3989 45.0497 81.5579 45.0797C81.5731 45.0797 81.5844 45.0834 81.5958 45.0872C81.6753 45.1022 81.7548 45.1397 81.8154 45.1959C82.4705 45.7622 83.243 46.1784 84.076 46.4222C84.7084 46.6209 85.3559 46.7522 85.9959 46.9022C86.0716 46.9172 86.1435 46.9472 86.2079 46.9885C86.579 47.2735 86.9236 47.5847 87.2417 47.9222C87.4537 48.1435 87.6166 48.406 87.7188 48.691C87.821 48.961 87.787 49.2647 87.6241 49.501C87.3326 49.936 86.9728 50.3185 86.5601 50.641C86.3935 50.7723 86.2003 50.8585 85.9921 50.8923C85.6778 50.9485 85.4241 51.001 85.3597 51.016C85.106 51.0648 84.8637 51.1548 84.6365 51.271C84.4547 51.3573 84.3297 51.526 84.2957 51.721C84.2843 51.8448 84.2351 51.9611 84.1556 52.0623C84.076 52.1711 84.0306 52.2986 84.023 52.4336C83.97 52.8311 84.023 52.9248 84.4282 52.9998C84.5418 53.0186 84.6516 53.0598 84.7538 53.1198C84.8599 53.1986 85 53.2211 85.1287 53.1798C85.212 53.1536 85.2991 53.1648 85.3711 53.2136C85.4847 53.2848 85.6172 53.3148 85.7497 53.3036C86.1814 53.3036 86.6169 53.2848 87.0448 53.3036C87.3591 53.3223 87.6734 53.2398 87.9384 53.0748C87.946 53.0748 87.9876 53.0486 87.9914 53.0486C88.2451 52.9286 88.4572 52.7411 88.6124 52.5086C88.9305 52.0511 89.26 51.5935 89.6159 51.1623C89.8545 50.8435 90.1385 50.566 90.4641 50.3335C90.6572 50.2135 90.7936 50.0185 90.839 49.7935C91.0208 49.156 90.8807 48.4697 90.4641 47.956C90.3505 47.8247 90.2445 47.686 90.1423 47.5472C90.0627 47.461 90.0173 47.3447 90.0135 47.2285C90.0059 46.9285 89.9226 46.6397 89.7712 46.3809C89.5818 46.0097 89.3698 45.6534 89.1312 45.3122C88.8018 44.8359 88.4648 44.3747 88.1505 43.8946C87.893 43.5796 87.7832 43.1746 87.8438 42.7734C87.8475 42.7535 87.8475 42.7332 87.8438 42.7134C87.8551 42.1171 87.7491 41.5246 87.5295 40.9696C87.4613 40.7596 87.4159 40.5458 87.3894 40.3246C87.4764 40.3621 87.5522 40.4146 87.6203 40.4821C89.0278 41.6149 90.5813 42.557 92.2401 43.2834C93.5654 43.8684 94.9589 44.2921 96.3865 44.5472C97.0908 44.6597 97.7951 44.7384 98.507 44.7722C99.4536 44.8472 100.408 44.7084 101.294 44.3709C102.074 44.0821 102.786 43.6321 103.373 43.0471C103.755 42.6639 104.016 42.1794 104.126 41.6521C104.183 41.4046 104.145 41.1496 104.02 40.9283C103.805 40.5946 103.57 40.5271 103.202 40.7708V40.7708ZM53.5707 37.0958C53.5559 37.0918 53.5418 37.0855 53.5291 37.077C53.3814 37.0058 53.2981 37.077 53.2072 37.167C53.1731 37.2008 53.1315 37.2308 53.0898 37.2533C52.8891 37.362 52.7528 37.2833 52.7112 37.0245C52.9156 37.0433 53.1163 36.9532 53.2299 36.7845C53.2829 36.7132 53.3435 36.6457 53.4117 36.5857C53.4374 36.5515 53.4757 36.5287 53.5182 36.5224C53.5608 36.5161 53.6042 36.5267 53.6389 36.552C53.6692 36.5745 53.6919 36.612 53.6995 36.6532C53.7373 36.7657 53.7373 36.8857 53.6995 37.002C53.7146 37.0695 53.6427 37.1145 53.5707 37.0958V37.0958ZM54.4341 52.3473C54.3735 52.3173 54.3659 52.2498 54.3621 52.1861C54.3621 51.7923 54.5969 51.5973 55.0021 51.706C54.8923 51.9086 54.7673 52.1036 54.6234 52.2836C54.5818 52.3473 54.5022 52.3736 54.4341 52.3473V52.3473ZM65.3472 52.2161C65.2601 52.2723 65.1768 52.2461 65.1617 52.1448C65.139 51.9948 65.1503 51.8448 65.1958 51.6985C65.2223 51.631 65.2829 51.5898 65.3548 51.586H65.6123C65.4835 51.676 65.4154 51.8336 65.4457 51.9873C65.4684 52.0736 65.4267 52.1673 65.3472 52.2161ZM65.9758 52.1561C65.9947 52.2236 65.9947 52.2948 65.9758 52.3586C65.9531 52.4373 65.8736 52.4823 65.7978 52.4636C65.7297 52.4636 65.707 52.4111 65.6956 52.3548C65.635 52.1223 65.7751 51.8823 66.0099 51.8223H66.0137C66.0175 51.8186 66.044 51.8035 66.044 51.8035C66.0743 51.8035 66.1159 51.7735 66.1273 51.8035C66.1386 51.8335 66.097 51.8561 66.0629 51.8636C65.9834 51.9498 65.9607 52.0548 65.9758 52.1561V52.1561ZM75.0411 51.7135C75.0032 51.7735 74.9313 51.7998 74.8631 51.7848C74.7949 51.7848 74.7798 51.7173 74.7722 51.661V51.601C74.7533 51.2523 74.8366 51.1773 75.2228 51.226C75.1509 51.3235 75.1092 51.436 75.1054 51.5523C75.0941 51.601 75.0751 51.661 75.0411 51.7135ZM75.5636 51.9123C75.5636 51.9123 75.5598 51.9161 75.5561 51.9161C75.4727 51.9311 75.3894 51.8785 75.3667 51.796C75.2948 51.5898 75.4008 51.421 75.6772 51.3535C75.6394 51.4848 75.6318 51.6235 75.6545 51.7586C75.659 51.7746 75.6603 51.7913 75.6581 51.8078C75.656 51.8243 75.6505 51.8402 75.642 51.8545C75.6336 51.8689 75.6223 51.8814 75.6088 51.8913C75.5953 51.9013 75.5799 51.9084 75.5636 51.9123V51.9123ZM55.7329 52.1448C55.661 52.1636 55.5701 52.2686 55.5095 52.3473C55.4527 52.4261 55.4716 52.4036 55.4527 52.4298C55.4148 52.4898 55.3391 52.5236 55.2709 52.5086C55.1914 52.4861 55.1838 52.4073 55.1876 52.3361C55.1876 51.9873 55.3239 51.8261 55.6988 51.8298C55.7367 51.8223 55.7746 51.8223 55.8086 51.8298C55.8579 51.8373 55.8882 51.8823 55.8806 51.9273C55.8768 51.9386 55.873 51.9461 55.8692 51.9573C55.8389 52.0436 55.8048 52.1261 55.7329 52.1448V52.1448ZM56.2176 52.5948C56.1987 52.6248 56.1759 52.6511 56.1457 52.6698C56.0396 52.7411 55.9601 52.7073 55.9374 52.5798C55.9172 52.51 55.915 52.4363 55.9309 52.3654C55.9469 52.2945 55.9804 52.2286 56.0286 52.1739C56.0768 52.1191 56.138 52.0771 56.2067 52.0517C56.2754 52.0263 56.3495 52.0184 56.4221 52.0286H56.5963M57.7436 51.5785C57.7114 51.6057 57.6705 51.6207 57.6281 51.6207C57.5858 51.6207 57.5448 51.6057 57.5126 51.5785C57.3271 51.4435 57.0999 51.3723 56.8689 51.3835C56.672 51.376 56.4827 51.3273 56.3047 51.2485C56.4297 51.0798 56.6303 50.9748 56.8424 50.9673H56.9484C57.2324 50.9673 57.2627 50.9448 57.3044 50.656C57.3384 50.431 57.3725 50.4085 57.6073 50.3748C57.8762 50.3335 58.1526 50.3448 58.4139 50.4085C58.607 50.4648 58.8115 50.431 58.9743 50.3148C59.0349 50.2623 59.122 50.251 59.1977 50.2773C58.9819 50.611 58.713 50.9035 58.4025 51.151C58.1791 51.2785 57.9595 51.4248 57.7436 51.5785V51.5785ZM68.2175 51.3085C68.2103 51.4055 68.1912 51.5012 68.1607 51.5935C68.1153 51.7998 67.9411 51.9498 67.729 51.9686C67.6874 51.9686 67.6457 51.9761 67.6079 51.9948C67.5359 52.0361 67.4412 52.0098 67.3996 51.9386C67.3996 51.9348 67.3958 51.9348 67.3958 51.9311C67.3792 51.8878 67.3459 51.8529 67.3033 51.8339C67.2607 51.815 67.2123 51.8135 67.1686 51.8298C67.0967 51.8598 67.0702 51.8298 67.0399 51.7586C66.9768 51.6394 66.8804 51.5406 66.7622 51.4741C66.6441 51.4077 66.5091 51.3762 66.3734 51.3835H66.3166C66.3326 51.3695 66.3523 51.3604 66.3734 51.3573C66.5059 51.3385 66.6233 51.2673 66.7521 51.2598C66.8013 51.256 66.843 51.226 66.8657 51.1848C67.0664 50.9635 67.2216 50.7123 67.3239 50.4348C67.3542 50.2548 67.4602 50.0973 67.6154 49.996C67.6533 49.966 67.6836 49.9285 67.7025 49.8835C67.7934 49.7035 67.7215 49.5873 67.5132 49.5873C67.214 49.5873 67.2254 49.5873 67.1156 49.3098C66.9677 48.9081 66.7944 48.5161 66.5968 48.136C66.4378 47.851 66.3393 47.5397 66.2182 47.2285C66.4037 47.2472 66.5892 47.2472 66.7748 47.2285C66.8505 47.221 66.9263 47.206 66.9982 47.1835C67.0588 47.1647 67.127 47.146 67.1345 47.0747C67.1421 47.0035 67.0815 46.966 67.0285 46.936C66.9111 46.876 66.7862 46.8347 66.6536 46.8159C66.4302 46.7859 66.2182 46.7184 66.0175 46.6134C65.9634 46.5898 65.9201 46.547 65.8963 46.4934C65.76 46.1672 65.6274 45.8409 65.4608 45.5297C65.4081 45.4314 65.3765 45.3233 65.368 45.2123C65.3596 45.1013 65.3744 44.9897 65.4116 44.8847C65.4181 44.8471 65.4392 44.8135 65.4703 44.7911C65.5014 44.7687 65.5401 44.7592 65.5782 44.7647C66.1046 44.7684 66.6158 44.9634 67.0058 45.3159C67.2557 45.5409 67.4185 45.8447 67.4678 46.1747C67.4791 46.3097 67.5511 46.4334 67.6684 46.5084C67.979 46.7109 68.1607 47.0597 68.1418 47.431C68.1569 47.5135 68.1077 47.5922 68.0244 47.6147C67.7366 47.7497 67.4715 47.9297 67.2406 48.151C67.1913 48.1885 67.1307 48.241 67.1497 48.3047C67.1686 48.3685 67.2595 48.376 67.3276 48.376C67.5094 48.3647 67.6874 48.3272 67.854 48.2635C67.8994 48.2635 67.9373 48.211 68.0092 48.226V48.5972C68.0433 48.8297 68.0963 49.0585 68.1721 49.2835C68.2137 49.411 68.2402 49.546 68.2895 49.6773C68.3614 49.906 68.2857 50.1573 68.0963 50.3073C68.0585 50.3485 68.0206 50.3898 67.9903 50.4348C67.9222 50.5473 67.9487 50.6148 68.066 50.6598C68.1077 50.6598 68.1493 50.6598 68.1872 50.6935C68.3311 50.7498 68.3576 50.806 68.2819 50.9448C68.2402 51.0535 68.2175 51.181 68.2175 51.3085V51.3085ZM80.0925 48.871L79.3919 49.201C79.2594 49.2572 79.1344 49.3285 79.0171 49.411C78.8315 49.5498 78.8239 49.6248 78.9754 49.786C78.9792 49.7898 79.0095 49.831 79.0133 49.8348C78.9948 49.8947 78.9593 49.948 78.911 49.9885C78.5967 50.3598 78.2749 50.7348 77.9454 51.1098C77.6766 51.391 77.3206 51.5785 76.9344 51.646C76.9604 51.5445 76.9519 51.4373 76.9101 51.341C76.8684 51.2447 76.7957 51.1648 76.7034 51.1135C76.5217 50.9598 76.2945 50.8698 76.0559 50.8548C75.9764 50.8548 75.9006 50.8285 75.8363 50.7835C75.8519 50.7483 75.8759 50.7172 75.9062 50.6931C75.9366 50.6689 75.9723 50.6524 76.0105 50.6448C76.374 50.4835 76.7678 50.401 77.1692 50.4048C77.4077 50.4385 77.6425 50.3035 77.7334 50.0823C77.8318 49.9135 77.9606 49.7635 78.112 49.636C78.5816 49.1635 78.9451 48.5972 79.1799 47.9747C79.2291 47.8547 79.267 47.7272 79.2897 47.5997C79.3238 47.4047 79.2783 47.1985 79.1572 47.0372C78.9603 46.7409 78.7331 46.4634 78.4831 46.2122C78.7057 46.1305 78.915 46.0167 79.1041 45.8747C79.1685 45.8259 79.2329 45.7697 79.2897 45.7097C79.3351 45.6684 79.3806 45.6122 79.3465 45.5484C79.3124 45.4809 79.2405 45.4884 79.1761 45.4922C79.0474 45.4959 78.9224 45.5259 78.8012 45.5747C78.593 45.6534 78.3733 45.7022 78.1537 45.7172C78.1129 45.7256 78.0704 45.7211 78.0324 45.7042C77.9943 45.6874 77.9626 45.6591 77.9416 45.6234C77.6955 45.2522 77.4456 44.9072 77.1881 44.5472C77.0859 44.4234 77.0291 44.2696 77.0253 44.1121C77.3434 44.1121 77.6614 44.0521 77.9568 43.9321C78.1461 43.8796 78.3165 43.7821 78.4566 43.6471C78.4831 43.6096 78.5248 43.5946 78.5664 43.6059C78.8618 43.6546 79.1534 43.7221 79.4374 43.8084C79.1231 44.0446 78.7974 44.2659 78.4604 44.4684C78.343 44.5097 78.237 44.5772 78.1423 44.6559C78.0628 44.7309 78.0742 44.7947 78.1726 44.8284C78.2787 44.8772 78.3998 44.8922 78.5172 44.8734C79.0284 44.7909 79.5358 44.6672 80.0281 44.5022C80.1114 44.4684 80.1493 44.4834 80.1796 44.5697C80.3083 44.8997 80.403 45.2372 80.4976 45.5747C80.5204 45.6572 80.4976 45.6834 80.4143 45.7097C80.331 45.7359 80.2326 45.7809 80.1417 45.8147C80.0584 45.8447 79.9789 45.8897 79.9107 45.9459C79.7895 46.0509 79.6646 46.1447 79.532 46.2309C79.479 46.2647 79.4336 46.3022 79.3919 46.3509C79.3314 46.4147 79.3465 46.4559 79.4374 46.4822C79.5548 46.5084 79.6721 46.5084 79.7895 46.4822C80.0697 46.4409 80.3386 46.3584 80.5923 46.2347C80.6794 46.6247 80.793 47.0035 80.9407 47.3785C80.9634 47.4572 80.9975 47.5322 81.0391 47.6035C81.1262 47.7347 81.1149 47.911 81.0051 48.0272C80.7741 48.3872 80.4636 48.676 80.0925 48.871V48.871ZM84.7084 52.5911C84.6743 52.6548 84.6062 52.6886 84.5342 52.6811C84.4509 52.6811 84.4395 52.5873 84.4358 52.5198C84.4282 52.4651 84.4282 52.4096 84.4358 52.3548C84.4661 52.0548 84.5494 52.0098 84.8712 52.1148C84.8258 52.2198 84.7917 52.3286 84.7652 52.4411C84.7576 52.4936 84.7349 52.5423 84.7084 52.5911V52.5911ZM85.0795 52.8198C85.0038 52.7898 85.0076 52.7073 85.0076 52.6398V52.5761C85.0076 52.2986 85.1325 52.2011 85.4127 52.2423C85.4279 52.2461 85.568 52.2723 85.5869 52.2761C85.496 52.4411 85.3938 52.5986 85.2764 52.7448C85.2423 52.8161 85.1552 52.8461 85.0795 52.8198V52.8198ZM86.1625 52.8123C86.1398 52.8761 86.0867 52.9623 85.9769 52.9361C85.8671 52.9098 85.7687 52.8236 85.7687 52.7223C85.7611 52.5723 85.8558 52.4411 85.9997 52.3998C86.2155 52.3511 86.2761 52.3998 86.2231 52.6173C86.2041 52.6848 86.1852 52.7486 86.1625 52.8123V52.8123ZM89.3925 46.891C89.472 47.0072 89.5402 47.1347 89.5932 47.266C89.6273 47.326 89.6424 47.3935 89.6424 47.461C89.6424 47.5247 89.6424 47.6035 89.5894 47.626C89.5402 47.6485 89.5061 47.5697 89.4758 47.5285C89.4266 47.4535 89.3736 47.3785 89.3206 47.311C89.2524 47.236 89.1729 47.236 89.1312 47.311C89.029 47.5172 88.8396 47.5435 88.6427 47.5622H88.5026C88.336 47.5622 88.336 47.5622 88.2868 47.4085C88.1467 46.8834 88.2679 46.3284 88.62 45.9122C88.8548 46.2797 89.1653 46.5572 89.3925 46.891ZM88.2868 49.6285C88.2868 49.351 88.2603 49.0772 88.2338 48.7997C88.2148 48.661 88.2792 48.5222 88.3966 48.4435C88.4799 48.3872 88.5594 48.3197 88.6314 48.2485C88.7488 48.1585 88.8889 48.106 89.0366 48.091C89.1009 48.091 89.1388 48.1172 89.1767 48.1622C89.2145 48.2072 89.3433 48.3497 89.4341 48.4285C89.5894 48.5785 89.6386 48.5747 89.809 48.4097C89.8848 48.5185 89.9832 48.6047 90.0968 48.6685C90.3164 48.7847 90.4035 49.0547 90.2899 49.2722C90.2748 49.2947 90.2634 49.3172 90.2483 49.336C90.1688 49.441 90.0665 49.531 89.9491 49.591C89.8166 49.666 89.6841 49.7448 89.5478 49.8123C89.366 49.8873 89.2562 50.0673 89.2751 50.2548C89.294 50.6148 89.1312 50.9598 88.8359 51.1735C88.6465 51.3235 88.4761 51.4998 88.3284 51.691C88.1164 51.9461 87.874 52.1711 87.609 52.3698C87.4121 52.5161 87.1811 52.6098 86.9387 52.6473C86.916 52.6736 86.9047 52.7298 86.8592 52.6998C86.8138 52.6698 86.8592 52.6511 86.8819 52.6398C86.9425 52.3848 86.8819 52.2086 86.5411 52.0698C86.4313 52.0211 86.3139 51.9911 86.1966 51.9836C85.7914 51.9123 85.39 51.8073 84.9962 51.676C85.2025 51.5954 85.4192 51.5437 85.6399 51.5223C85.9239 51.4885 86.2079 51.4735 86.4957 51.4773C86.6888 51.4773 86.8857 51.4585 87.0751 51.4173C87.3406 51.3582 87.5854 51.2301 87.7844 51.0462C87.9834 50.8623 88.1294 50.6293 88.2073 50.371C88.2754 50.1348 88.3057 49.8798 88.2868 49.6285V49.6285ZM87.6658 44.5922C87.7415 44.4984 87.8513 44.4647 87.9346 44.6297C87.9839 44.7384 88.0066 44.8584 88.0066 44.9747C88.0142 45.6422 87.9081 46.3059 87.6923 46.9397C87.3591 46.7372 86.9842 46.6097 86.5942 46.5647C86.2609 46.5159 85.9429 46.4034 85.6589 46.2309C85.6071 46.2023 85.5649 46.1595 85.5374 46.1075C85.5098 46.0556 85.4981 45.9968 85.5036 45.9384C85.5225 45.7959 85.5642 45.6572 85.6323 45.5297C85.727 45.3347 85.8027 45.1359 85.8633 44.9297C85.8823 44.8434 85.9277 44.7422 85.8293 44.6822C85.7346 44.6259 85.6702 44.6822 85.6058 44.7459C85.3824 44.8809 85.2082 45.0759 85.1022 45.3122C85.0151 45.5297 84.8182 45.6834 84.5872 45.7209C84.1818 45.8078 83.7596 45.7766 83.3717 45.6309C83.2168 45.5654 83.0785 45.4668 82.9665 45.3422C82.9279 45.2928 82.9069 45.2321 82.9069 45.1697C82.9069 45.1072 82.9279 45.0465 82.9665 44.9972C83.0726 44.7797 83.2165 44.5772 83.3869 44.4047C83.633 44.1384 83.792 43.8046 83.845 43.4484C83.8905 43.2459 83.9094 43.0359 83.8943 42.8259C83.8943 42.7509 83.8943 42.6721 83.7958 42.6421C83.6936 42.6121 83.6368 42.6759 83.5876 42.7471C83.5345 42.8259 83.4891 42.9084 83.4474 42.9946C83.3755 43.1371 83.3111 43.2871 83.243 43.4296C83.171 43.5721 83.065 43.6996 82.94 43.8009C82.7318 43.9771 82.5614 44.1759 82.3266 44.3409C82.2395 44.4234 82.1032 44.4234 82.0123 44.3409C81.8381 44.2134 81.6374 44.1084 81.4329 43.9884C81.5806 43.6321 81.698 43.2646 81.7851 42.8859C81.8381 42.7134 81.8571 42.5334 81.8457 42.3534C81.8419 42.2446 81.8608 42.1321 81.9063 42.0309C82.0237 41.7158 82.0994 41.4458 82.1183 41.3821C82.1448 41.2883 82.1903 41.1646 82.0767 41.1008C81.9669 41.0371 81.8836 41.1271 81.804 41.1946C81.3559 41.5885 81.0622 42.1263 80.9748 42.7134C80.9407 42.9234 80.8574 43.1259 80.7362 43.3021C80.6529 43.4034 80.6377 43.4034 80.5431 43.3021C80.2138 42.9416 79.9853 42.502 79.8804 42.0271C79.763 41.5508 79.6911 41.0633 79.6721 40.5758C79.6721 40.2571 79.6494 39.9383 79.6381 39.6233C79.6494 39.5671 79.6381 39.5108 79.6078 39.4621C79.5839 39.4275 79.5524 39.3987 79.5156 39.378C79.4789 39.3572 79.4379 39.3449 79.3957 39.342C79.2973 39.342 79.267 39.4358 79.2405 39.5183C79.214 39.6046 79.2026 39.6946 79.2026 39.7846C79.2102 40.1896 79.1761 40.5946 79.1117 40.9958C79.0739 41.2921 79.0852 41.5921 79.1496 41.8808C79.1723 42.1321 79.1496 42.3871 79.0852 42.6309C79.0852 42.6871 79.0284 42.7096 78.9868 42.7284C78.6649 42.9009 78.2938 42.9646 77.9341 42.9121C77.8546 42.9121 77.828 42.8709 77.8318 42.7921C77.8318 42.0421 77.7561 41.2921 77.6046 40.5533C77.5781 40.3883 77.5516 40.2646 77.4759 40.2458C77.4002 40.2271 77.3812 40.3508 77.3585 40.4183C77.3024 40.6244 77.2669 40.8354 77.2525 41.0483C77.207 41.3446 77.1654 41.6408 77.1313 41.9334C77.1199 42.0496 77.0783 42.1621 77.0063 42.2559C76.8435 42.4546 76.7186 42.6796 76.6277 42.9159C76.6227 42.9395 76.6106 42.9611 76.5931 42.9778C76.5755 42.9945 76.5533 43.0056 76.5292 43.0096C76.5065 43.0134 76.3058 43.0509 76.2831 43.0546C76.1619 43.0771 76.1354 43.0546 76.1165 42.9384C76.0938 42.7321 76.0862 42.5259 76.0975 42.3196C76.1278 41.4421 76.1354 40.5646 76.0975 39.7058C76.0975 39.2295 76.0445 38.7533 75.9347 38.2883C75.8931 38.1458 75.8514 38.0108 75.8022 37.8758C75.7719 37.8045 75.7378 37.737 75.6962 37.6733C75.6697 37.632 75.6356 37.5908 75.5788 37.5983C75.522 37.6058 75.4993 37.6545 75.4879 37.6995C75.4614 37.7933 75.4462 37.887 75.4349 37.9845C75.4235 38.142 75.4235 38.3033 75.4349 38.4608C75.4652 39.1095 75.4349 39.7583 75.3516 40.4033C75.2645 41.2208 75.1282 42.0309 74.935 42.8296C74.901 42.9684 74.8555 43.1071 74.8177 43.2496C74.8101 43.3021 74.7722 43.3509 74.723 43.3734C74.4844 43.5046 74.1815 43.4221 74.0452 43.1859C74.0376 43.1709 74.03 43.1521 74.0225 43.1371C73.9429 42.9609 73.9164 42.7621 73.9467 42.5709C73.9884 42.0309 73.9013 41.4871 73.6892 40.9883C73.6627 40.9096 73.6286 40.7971 73.5226 40.8046C73.4204 40.8121 73.4128 40.9358 73.4014 41.0183C73.3598 41.2771 73.3409 41.5396 73.3068 41.8021C73.2615 42.2126 73.1778 42.6181 73.0569 43.0134C72.894 43.5271 72.8334 43.5759 72.3033 43.6096C71.9436 43.6284 71.8376 43.5421 71.7959 43.1859C71.777 43.0096 71.7694 42.8109 71.7618 42.6496C71.7618 42.4621 71.7467 42.2746 71.7164 42.0909C71.6823 41.8877 71.6671 41.6818 71.6709 41.4758C71.6396 40.7792 71.5548 40.0859 71.4172 39.402C71.3301 38.877 71.1749 38.367 71.0386 37.857C71.0197 37.7544 70.9784 37.6571 70.9174 37.572C70.8682 37.512 70.8227 37.5195 70.7887 37.572C70.7356 37.6883 70.7091 37.8158 70.7053 37.947C70.6902 38.2095 70.6902 38.472 70.7053 38.7345C70.7356 39.4808 70.7735 40.2271 70.8038 40.9733C70.8227 41.6371 70.7508 42.3009 70.5917 42.9421C70.5463 43.2234 70.4857 43.5009 70.41 43.7709C70.3873 43.8721 70.3002 43.9471 70.1941 43.9471C69.8155 43.9771 69.4747 44.0221 69.1112 44.0521C68.9218 44.0521 68.9256 44.0521 68.8802 43.8721C68.8575 43.7446 68.8461 43.6134 68.8461 43.4821C68.8726 42.3834 68.8953 41.5058 68.8991 41.2846C68.9143 41.0633 68.8953 40.8421 68.8385 40.6283C68.812 40.5308 68.7931 40.4108 68.6643 40.3996C68.5318 40.3883 68.4977 40.4933 68.4523 40.5758C68.297 40.8796 68.2175 41.2133 68.2175 41.5546C68.2137 42.0871 68.1001 42.6159 67.8843 43.1034C67.7665 43.3933 67.5778 43.6498 67.3352 43.8496C67.2595 43.9246 67.1459 43.9434 67.0474 43.8984C66.7899 43.8121 66.5514 43.6696 66.3545 43.4859C66.2371 43.3809 66.1121 43.2909 65.9758 43.2159C65.8584 43.1446 65.7865 43.1709 65.7297 43.3021C65.6805 43.4221 65.6539 43.5459 65.6502 43.6771C65.6502 43.9621 65.6502 43.9434 65.3813 43.8909C65.1541 43.8571 64.9345 43.8046 64.7186 43.7296V43.6884C64.9989 43.0246 65.0481 42.2896 64.8512 41.5996C64.8209 41.4571 64.7792 41.3183 64.7262 41.1833C64.5747 40.8046 64.4839 40.4071 64.446 39.9983C64.4384 39.9158 64.4195 39.8371 64.393 39.7583C64.3665 39.6721 64.3097 39.6646 64.2605 39.7396C64.1734 39.8746 64.1241 40.0283 64.1166 40.1858C64.109 40.4558 64.1279 40.7258 64.1734 40.9883C64.2074 41.2171 64.2415 41.4421 64.2718 41.6671C64.2983 41.9634 64.2756 42.2634 64.2037 42.5521C64.1393 42.8821 64.1052 43.2196 64.037 43.5534C63.9878 43.7971 63.9462 44.0521 63.8969 44.2996C63.8477 44.5472 63.753 44.6709 63.6925 44.8659C63.4842 44.7984 63.2721 44.7459 63.0563 44.7047C62.8518 44.6822 62.6511 44.7009 62.458 44.7684C62.4504 44.7722 62.3861 44.7947 62.3785 44.7947C62.0604 44.9372 61.7234 45.0347 61.3788 45.0872C61.2879 45.0872 61.1592 45.1097 61.144 45.2147C61.1289 45.3197 61.2614 45.3684 61.3485 45.4134C61.4962 45.4622 61.6477 45.4884 61.8029 45.4847C62.0112 45.5109 62.2194 45.5259 62.4277 45.5334C62.7761 45.5597 63.1282 45.5372 63.469 45.4697C63.4653 45.5597 63.435 45.6497 63.3782 45.7247C63.0979 46.2609 62.7344 46.7484 62.3028 47.1722C62.0377 47.4197 61.7916 47.6972 61.5492 47.9672C61.4962 48.0497 61.394 48.0872 61.2955 48.0685H61.2046C60.7199 48.031 60.2277 48.0797 59.7581 48.211C59.6937 48.211 59.5991 48.2335 59.5877 48.3085C59.5764 48.3797 59.671 48.406 59.7316 48.4322C59.9475 48.526 60.1784 48.586 60.4132 48.6122C60.5647 48.6385 60.7161 48.6535 60.8714 48.6572C60.8714 48.7322 60.8184 48.7585 60.7843 48.796C60.5798 49.0097 60.3791 49.2197 60.1633 49.4073C60.0838 49.4785 59.9891 49.5273 59.8869 49.546C59.4097 49.6285 58.9326 49.6773 58.4479 49.6885C58.217 49.6885 58.1488 49.5985 58.2283 49.3772C58.4631 48.7172 58.7622 48.0797 59.0462 47.4347C59.1068 47.2922 59.175 47.1572 59.228 47.0147C59.2621 46.936 59.2924 46.9097 59.3832 46.9322C60.0762 47.0822 60.7957 47.0335 61.4583 46.7897C61.606 46.7447 61.7461 46.6809 61.8749 46.5947C61.9127 46.5647 61.9582 46.5309 61.9506 46.4822C61.9435 46.455 61.928 46.4306 61.9063 46.4125C61.8846 46.3943 61.8577 46.3833 61.8294 46.3809C61.6212 46.3397 61.4091 46.3397 61.2008 46.3809C61.0797 46.4034 60.9585 46.4259 60.826 46.4409C60.6745 46.4634 60.5155 46.4522 60.3678 46.4072C60.133 46.2947 59.8755 46.2347 59.6142 46.2309C59.5991 46.1559 59.618 46.0809 59.6672 46.0209C59.974 45.4134 60.1936 44.7684 60.3185 44.1046C60.3413 43.9921 60.3753 43.8759 60.4019 43.7634C60.4284 43.6546 60.4473 43.6021 60.6139 43.5946C60.7805 43.5871 60.9926 43.5759 61.1743 43.5534C61.8446 43.4746 62.4769 43.2159 63.0071 42.8034C63.1055 42.7321 63.1926 42.6384 63.2532 42.5296C63.3289 42.3834 63.2759 42.2859 63.1131 42.2709C62.9238 42.2559 62.7344 42.3046 62.5716 42.4021C62.4201 42.4846 62.2611 42.5559 62.1021 42.6196C61.9165 42.6871 61.7196 42.7096 61.5227 42.6834C61.2349 42.6384 60.9433 42.6646 60.6669 42.7546C60.6745 42.5259 60.701 42.3009 60.754 42.0759C60.8449 41.6521 60.9206 41.2246 60.9888 40.7971C61.0229 40.5383 61.0986 40.2833 61.2084 40.0471C61.2387 39.9871 61.2576 39.9196 61.269 39.8558C61.2917 39.7921 61.2804 39.7246 61.2311 39.6796C61.1743 39.6383 61.1175 39.6796 61.0607 39.6983C60.9547 39.7583 60.86 39.8296 60.7767 39.9121C60.6291 40.0508 60.4927 40.2008 60.3716 40.3658C60.2845 40.2346 60.2239 40.0883 60.1974 39.9346C60.0838 39.3983 60.0118 38.8583 59.9891 38.3108C59.9475 37.827 59.9437 37.332 59.8604 36.8482C59.849 36.7507 59.8225 36.657 59.7771 36.5707C59.7392 36.5032 59.6975 36.5032 59.6521 36.5707C59.6142 36.6345 59.5839 36.7057 59.565 36.7807C59.4741 37.137 59.4135 37.497 59.3832 37.8645C59.3832 37.9733 59.3681 38.082 59.3378 38.187C59.2999 38.2845 59.2583 38.2883 59.1901 38.2133C59.1257 38.1308 59.0841 38.0333 59.0727 37.932C59.0159 37.6658 58.944 37.407 58.8569 37.152C58.819 37.0508 58.7774 36.9458 58.7281 36.8482C58.6979 36.7882 58.66 36.7245 58.5767 36.717C58.4934 36.7095 58.4972 36.672 58.4669 36.6345C58.3078 36.4282 58.3154 36.3045 58.5085 36.1357C58.6108 36.0495 58.7206 35.9745 58.8304 35.9032C58.872 35.8837 58.9043 35.8489 58.9205 35.8062C58.9367 35.7636 58.9357 35.7164 58.9175 35.6745C58.9137 35.6707 58.9137 35.6632 58.9099 35.6595C58.872 35.5582 58.8455 35.4495 58.8266 35.3407C58.8098 35.2835 58.8075 35.2231 58.8201 35.1649C58.8327 35.1066 58.8596 35.0524 58.8985 35.007C58.9714 34.9179 59.0215 34.8128 59.0445 34.7005C59.0676 34.5882 59.063 34.4721 59.0311 34.3619C58.9629 34.0244 58.7395 33.7394 58.4214 33.5894C58.1147 33.4357 57.7398 33.4882 57.4823 33.7169C57.5543 33.7694 57.6376 33.8032 57.7209 33.8182C57.9329 33.8932 58.1299 33.9944 58.3192 34.1182C58.3646 34.1482 58.4063 34.1819 58.4441 34.2194C58.5956 34.3732 58.5615 34.512 58.3381 34.662C58.588 35.0707 58.588 35.2957 58.3381 35.547C58.2927 35.2432 58.092 34.9845 57.8118 34.8532C57.6679 34.7782 57.5013 34.767 57.3498 34.8195C57.3687 34.8457 57.5467 35.0595 57.5656 35.0857C57.755 35.2957 57.8837 35.5545 57.9443 35.832C57.9519 35.8995 57.9519 35.967 57.9443 36.0382C57.9216 36.1882 57.8534 36.2182 57.7133 36.1432C57.6906 36.1432 57.6755 36.1057 57.63 36.1095C57.63 36.2032 57.63 36.3045 57.5922 36.402C57.5912 36.4197 57.5867 36.4371 57.5789 36.4531C57.5712 36.4691 57.5603 36.4835 57.5469 36.4953C57.5336 36.5072 57.518 36.5163 57.501 36.5221C57.4841 36.528 57.4662 36.5305 57.4483 36.5295C57.4445 36.5295 57.4369 36.5257 57.4293 36.5257C57.3687 36.5257 57.3082 36.492 57.3157 36.4095C57.3233 36.327 57.3157 36.2407 57.346 36.162C57.3687 36.012 57.3612 35.8582 57.3195 35.712C57.4293 35.6332 57.4558 35.4795 57.3725 35.367C57.3532 35.3407 57.3289 35.3186 57.3009 35.3017C57.2729 35.2849 57.2418 35.2737 57.2094 35.2688C57.177 35.2639 57.144 35.2654 57.1122 35.2733C57.0804 35.2811 57.0505 35.2951 57.0242 35.3145C56.9333 35.3782 56.8992 35.4982 56.9408 35.6032C56.9446 35.7832 56.9257 35.9632 56.8878 36.1395C56.8613 36.2445 56.8121 36.3495 56.7439 36.4357C56.6569 36.537 56.5925 36.5295 56.513 36.417C56.4751 36.3457 56.4524 36.2632 56.4524 36.1845C56.4524 36.1507 56.4296 36.147 56.4145 36.1507C56.1002 36.2257 56.0358 36.1732 56.1116 35.8657C56.1722 35.6632 56.2252 35.4532 56.2668 35.247C56.282 35.1832 56.3123 35.1307 56.3577 35.0857C56.4633 34.9467 56.5168 34.7757 56.5092 34.602C56.513 34.5457 56.5016 34.4894 56.4713 34.4407C56.441 34.3844 56.4107 34.3244 56.3388 34.3282C56.2668 34.3319 56.2441 34.4032 56.2327 34.4594C56.1835 34.6507 56.0813 34.8232 55.9298 34.9507C55.7746 35.082 55.6837 35.2732 55.6799 35.4757C55.6721 35.6911 55.6014 35.8995 55.4764 36.0759C55.3514 36.2523 55.1774 36.389 54.9756 36.4695C54.737 36.5857 54.4833 36.672 54.222 36.7282C54.2637 36.6232 54.3205 36.5257 54.3962 36.4395C54.684 36.057 54.7559 35.5507 54.5742 35.1082C54.4836 34.8119 54.3052 34.5495 54.0621 34.3549C53.819 34.1603 53.5225 34.0425 53.211 34.0169C52.8967 33.9382 52.5635 34.0394 52.3476 34.2832C52.1697 34.4707 51.9538 34.6207 51.7115 34.7145C51.5676 34.797 51.3896 34.797 51.2419 34.7145C51.4199 34.647 51.5903 34.5607 51.7493 34.4557C51.8629 34.3844 51.9614 34.2944 52.0485 34.1969C52.1129 34.1219 52.1583 34.0319 52.1772 33.9382C52.1859 33.9112 52.1858 33.8823 52.177 33.8554C52.1681 33.8284 52.151 33.805 52.128 33.7882C52.0674 33.7544 52.0258 33.7882 51.9841 33.8407C51.8251 34.0057 51.6395 34.1407 51.435 34.2457C51.2987 34.3169 51.151 34.3619 50.9996 34.3844C50.9352 34.3844 50.8595 34.4182 50.8027 34.3319C51.0261 34.2607 51.2268 34.1332 51.382 33.9607C51.4653 33.8782 51.5221 33.7732 51.5524 33.6569C51.5524 33.5969 51.5789 33.5257 51.5146 33.4844C51.4502 33.4432 51.401 33.5069 51.3593 33.5519C51.2722 33.6457 51.1813 33.7282 51.0791 33.8032C51.0715 33.8069 50.9996 33.8519 50.9882 33.8557C50.9087 33.8932 50.8065 33.9532 50.7383 33.8932C50.6664 33.8332 50.7383 33.7394 50.761 33.6644C50.8216 33.5369 50.8519 33.4019 50.8519 33.2632C50.833 33.0644 50.7534 33.0232 50.5793 33.1207C50.5073 33.1769 50.424 33.2219 50.3369 33.2557C50.3483 33.0382 50.4657 32.8394 50.655 32.7232C51.1359 32.4419 51.5903 32.1232 52.0182 31.7669C52.1621 31.6544 52.2833 31.5194 52.3779 31.3694C52.4423 31.2606 52.518 31.1631 52.6089 31.0731C52.6846 30.9831 52.7869 30.9156 52.9005 30.8781C53.2791 30.7694 53.6313 30.6156 53.9948 30.4769C54.2523 30.3531 54.559 30.4131 54.7484 30.6194C54.843 30.7094 54.9263 30.8181 55.021 30.9081C55.1157 30.9981 55.1498 30.9606 55.1611 30.8631C55.2066 30.6156 55.2066 30.3644 55.1611 30.1169C55.1384 30.0269 55.1838 30.0006 55.2558 29.9969C55.3542 29.9931 55.4489 30.0231 55.5208 30.0869C55.6004 30.1469 55.6685 30.2181 55.7215 30.3006C55.7405 30.3269 55.8806 30.5331 55.8995 30.5594C55.9336 30.5969 55.9601 30.6531 56.0283 30.6456C56.0964 30.6381 56.104 30.5744 56.1229 30.5256C56.1722 30.3156 56.2062 30.1019 56.2252 29.8881C56.2706 29.5843 56.3274 29.5168 56.6228 29.4456C56.7326 29.4193 56.8273 29.3556 56.8916 29.2656C57.0355 29.0931 57.2135 28.9581 57.4142 28.8606C57.4748 28.8268 57.5467 28.7818 57.6035 28.8606C57.6603 28.9393 57.6224 28.9918 57.6035 29.0556C57.5846 29.1193 57.5278 29.2056 57.4861 29.2768C57.399 29.4343 57.3082 29.5881 57.2362 29.7494C57.1529 29.8881 57.0431 30.0081 56.9106 30.1019C56.831 30.1731 56.6796 30.2369 56.7023 30.3381C56.725 30.4394 56.8954 30.4431 57.009 30.4619C57.3687 30.5594 57.7436 30.3681 57.8762 30.0231C57.9746 29.8094 58.02 29.5731 58.0011 29.3368C57.9752 29.3053 57.963 29.2648 57.967 29.2243V29.1568C57.967 29.1493 58.02 29.1868 58.0314 29.2168C58.1034 29.3256 58.1677 29.4418 58.2207 29.5619C58.3457 29.8469 58.3003 30.1769 58.1034 30.4206C57.9557 30.5969 57.7815 30.7469 57.5808 30.8669C57.4937 30.9156 57.4104 30.9756 57.3384 31.0469C57.3384 31.0469 57.3612 31.0844 57.3687 31.0844C57.5922 31.0844 57.8118 31.1594 57.9898 31.3019C58.1564 31.3956 58.3646 31.3956 58.5312 31.3019C58.6903 31.2269 58.8418 31.1444 58.9856 31.0469C59.1826 30.9269 59.228 30.9381 59.3605 31.1294C59.4931 31.3544 59.5233 31.6281 59.4438 31.8756C59.3795 32.1157 59.2999 32.3519 59.2015 32.5769C59.1598 32.6819 59.1257 32.7869 59.103 32.8957C59.0727 32.9707 59.0992 33.0532 59.1712 33.0944C59.2431 33.1282 59.3264 33.1132 59.3795 33.0532C59.4514 32.9932 59.5082 32.9219 59.5536 32.8432C59.5801 32.8019 59.7733 32.4757 59.7998 32.4382C59.8604 32.3294 59.9323 32.2244 60.008 32.1269C60.1557 31.9394 60.2201 31.9394 60.4284 32.0519C60.9168 32.3144 61.2955 32.5469 61.3902 32.5994C61.553 32.6969 61.5568 32.6932 61.4924 32.8844C61.3561 33.3082 61.2122 33.7207 61.0834 34.1444C60.8979 34.737 60.7578 35.3407 60.6215 35.9482C60.5912 36.0457 60.5912 36.1545 60.6215 36.252C60.6669 36.3682 60.7351 36.387 60.8297 36.3195C60.8903 36.2745 60.9396 36.2145 60.9774 36.147C61.0569 36.0157 61.1213 35.877 61.1668 35.7307C61.2955 35.352 61.4697 34.9882 61.6931 34.6545C62.0604 34.2194 62.3558 33.7282 62.5602 33.1994L63.3592 33.4994C63.4312 33.5294 63.5031 33.5482 63.5789 33.5557C64.0787 33.5932 64.4801 33.9832 64.5217 34.4744C64.5445 34.7257 64.5255 34.977 64.4649 35.2245C64.2832 35.937 64.1241 36.657 63.9992 37.3845C63.9537 37.602 63.931 37.8233 63.9386 38.0483C63.9386 38.1533 63.9386 38.2958 64.0522 38.3295C64.1696 38.3633 64.2226 38.232 64.2756 38.1495C64.4271 37.9133 64.552 37.6658 64.6543 37.4033C64.9648 36.702 65.2071 35.9745 65.3775 35.2282C65.423 34.9957 65.4457 34.7595 65.4835 34.527C65.4911 34.2569 65.7183 34.0394 65.9947 34.0469C66.0288 34.0507 66.0629 34.0544 66.0932 34.0619C66.3923 34.0994 66.6801 34.1707 66.9603 34.2757C67.161 34.3357 67.339 34.4069 67.5586 34.4632C67.6306 34.4857 67.6912 34.5382 67.7177 34.6095C67.7972 34.8382 67.8654 35.0707 67.9146 35.3032C67.9487 35.4682 68.0017 35.6257 68.0698 35.7757C68.1456 35.9557 68.191 36.147 68.2024 36.3382C68.2667 36.852 68.297 37.3695 68.3311 37.887C68.3463 38.1833 68.3766 38.4795 68.4258 38.772C68.4258 38.8695 68.4258 39.0158 68.5432 39.027C68.6605 39.0383 68.6681 38.8995 68.7098 38.8133C68.8802 38.4195 68.9938 38.0033 69.0392 37.5795C69.1415 36.8445 69.115 36.102 68.9597 35.3745C68.9597 35.292 68.918 35.217 68.8953 35.1345C68.8612 35.0182 68.8612 34.8982 68.8953 34.7857C68.9597 34.5795 69.0014 34.5495 69.221 34.5607C69.3497 34.5682 69.9897 34.5945 71.1446 34.6395H71.2923C71.5725 34.647 71.8338 34.7857 71.9966 35.0145C72.5002 35.6482 72.8107 36.4095 72.8978 37.2083C72.9508 37.7445 73.0001 38.2808 73.0569 38.817C73.0569 38.967 73.144 39.1583 73.25 39.1883C73.356 39.2183 73.4279 38.9558 73.4772 38.817C73.6059 38.4645 73.6741 38.0933 73.6779 37.722C73.7082 37.1408 73.6854 36.5595 73.6097 35.9857C73.5718 35.6257 73.5794 35.2657 73.6324 34.9095C73.6514 34.797 73.6968 34.7632 73.8104 34.767C74.3898 34.797 74.9691 34.8232 75.5447 34.8195C75.6394 34.8195 75.7265 34.8532 75.7946 34.9132C75.9461 35.0407 76.0748 35.1982 76.1733 35.3707C76.4649 35.8807 76.6958 36.4245 76.8587 36.9908C76.9723 37.407 77.0556 37.8345 77.1086 38.2658C77.1692 38.6145 77.2222 38.9633 77.2828 39.3083C77.2828 39.3983 77.3055 39.4996 77.4153 39.5521C77.5251 39.6046 77.5857 39.5858 77.6311 39.477C77.6501 39.417 77.6576 39.3533 77.6501 39.2895C77.6387 39.0908 77.6576 38.892 77.7031 38.697C77.8546 37.9058 77.8432 37.0958 77.669 36.3082C77.5743 35.8282 77.4759 35.3482 77.3623 34.8757C77.4229 34.827 77.4872 34.8457 77.5478 34.8457H78.468C78.6005 34.8382 78.7331 34.8832 78.8277 34.977C79.1988 35.292 79.498 35.682 79.7062 36.1207C79.994 36.8332 80.1909 37.5758 80.2894 38.337C80.3424 38.6933 80.3424 39.0533 80.2894 39.4095C80.2742 39.5558 80.3007 39.7021 80.3689 39.8333C80.4295 39.9421 80.5052 39.9458 80.5772 39.8333C80.6567 39.7021 80.7097 39.5596 80.7362 39.4095C80.7968 39.117 80.8347 38.8208 80.8498 38.5245C80.899 37.8233 80.8612 37.1145 80.7362 36.4207C80.7021 36.2482 80.6567 36.087 80.6302 35.9145C80.5923 35.7307 80.5961 35.5395 80.6491 35.3595C80.6945 35.1495 80.8915 35.0032 81.1073 35.0182C81.3534 35.0257 81.592 35.1045 81.7927 35.247C81.8533 35.2882 81.8987 35.3557 81.9176 35.4307C82.0009 35.7307 82.0956 36.027 82.1865 36.3195C82.2698 36.6195 82.3682 36.9157 82.4894 37.2008C82.603 37.4858 82.6712 37.7858 82.6939 38.0858C82.7696 38.7083 82.7886 39.3308 82.7545 39.9533C82.7204 40.1596 82.7015 40.3658 82.6939 40.5721V40.8421C82.6939 40.9283 82.6939 40.9883 82.7924 41.0071C82.8908 41.0258 82.9097 40.9696 82.9438 40.9208C83.1218 40.7146 83.2392 40.4671 83.2884 40.2008C83.3376 39.8596 83.3225 39.5108 83.3566 39.1658C83.3906 38.8245 83.402 38.4908 83.4323 38.1533C83.4626 37.5945 83.4058 37.0358 83.2619 36.492C83.224 36.3382 83.171 36.1882 83.1066 36.042C83.065 35.9332 83.0158 35.8095 83.1066 35.7082C83.1975 35.607 83.3376 35.6482 83.4588 35.6857C83.7617 35.787 84.042 35.9557 84.2729 36.177C84.379 36.2782 84.4547 36.4057 84.4964 36.5482C84.6402 37.0245 84.7387 37.512 84.7917 38.007C84.8523 38.5958 84.8334 39.192 84.7349 39.7808C84.6743 40.1896 84.6365 40.6058 84.5948 41.0146C84.5872 41.1421 84.6213 41.2658 84.6933 41.3671C84.769 41.4871 84.8485 41.4871 84.9356 41.3671C84.9735 41.3108 85.0076 41.2471 85.0303 41.1833C85.337 40.4258 85.515 39.6233 85.5566 38.8095C85.5566 38.6033 85.5831 38.397 85.5907 38.187C85.6058 37.9545 85.5793 37.7183 85.5074 37.4933C85.5036 37.4734 85.5036 37.4531 85.5074 37.4333C85.5074 37.3733 85.4695 37.2908 85.5453 37.272C85.621 37.2533 85.6172 37.3395 85.6361 37.3845C85.9807 38.1458 86.2799 38.9258 86.5336 39.7246C86.5714 39.8446 86.5942 39.9721 86.6017 40.0958C86.6396 40.7033 86.5828 41.3146 86.4351 41.9033C86.3518 42.2109 86.2155 42.5034 86.0299 42.7584C85.8785 42.9946 85.7497 43.2459 85.6551 43.5084C85.6323 43.5571 85.621 43.6134 85.6172 43.6696C85.6172 43.7521 85.6589 43.7971 85.7459 43.7746C85.8368 43.7484 85.9277 43.7071 86.0072 43.6546C86.3139 43.4821 86.5979 43.2721 86.8517 43.0321C87.2 43.2684 87.306 43.7296 87.0978 44.0934C86.9274 44.3634 86.7797 44.6447 86.6547 44.9372C86.6093 45.0534 86.5487 45.1809 86.6775 45.2822C86.8024 45.3834 86.916 45.3159 87.0258 45.2597C87.1962 45.1734 87.3439 45.0422 87.4499 44.8847C87.5143 44.7872 87.5863 44.6822 87.6658 44.5922V44.5922ZM98.6357 44.1834C98.2912 44.2959 97.9238 44.3221 97.5641 44.2659C97.5338 44.1721 97.5868 44.0971 97.6133 44.0221C97.6701 43.8909 97.7156 43.7521 97.7496 43.6134C97.7913 43.3809 97.6966 43.2721 97.4581 43.2721C97.3028 43.2684 97.1514 43.3321 97.0491 43.4484C96.8472 43.6567 96.5915 43.8063 96.3098 43.881C96.0281 43.9557 95.7312 43.9526 95.4511 43.8721C95.1406 43.8046 94.8339 43.7184 94.531 43.6171C94.5003 43.6114 94.4729 43.5942 94.4546 43.569C94.4363 43.5439 94.4284 43.5128 94.4325 43.4821C94.4325 43.2871 94.4174 43.0921 94.3871 42.9009C94.353 42.7359 94.2584 42.6834 94.1107 42.7771C94.0312 42.8334 93.9554 42.8971 93.8873 42.9609C93.5768 43.2009 93.1564 43.2459 92.8005 43.0771C92.7285 43.0546 92.7323 43.0021 92.7399 42.9459C92.7475 42.8896 92.7778 42.7434 92.7891 42.6421C92.8005 42.5559 92.8005 42.4734 92.7891 42.3909C92.7588 42.2184 92.668 42.1809 92.5127 42.2746C92.3612 42.3684 92.3007 42.4021 92.1946 42.4734C91.9826 42.6159 91.7061 42.6309 91.4789 42.5146C91.2593 42.4059 91.0511 42.2821 90.8504 42.1396C90.7103 42.0459 90.5777 41.9446 90.4414 41.8546C90.3657 41.8096 90.3505 41.7608 90.4149 41.6933C90.4414 41.6596 90.6686 41.4158 90.6951 41.3858C90.7936 41.2883 90.8844 41.1796 90.9602 41.0633C90.9905 41.0108 91.0283 40.9508 90.9829 40.8908C90.9626 40.8669 90.9354 40.8497 90.9049 40.8416C90.8744 40.8336 90.8421 40.8351 90.8125 40.8458C90.5929 40.8871 90.3808 40.9471 90.1726 41.0258C90.1006 41.0521 90.0287 41.0821 89.9567 41.1046C89.6765 41.2096 89.3622 41.1608 89.1274 40.9733C88.9608 40.8571 88.7828 40.7483 88.6011 40.6246L89.0214 40.2496C89.1312 40.1558 89.2259 40.0396 89.294 39.9121C89.3546 39.7921 89.3206 39.7321 89.1842 39.7133C89.0858 39.7021 88.9873 39.7208 88.9002 39.7658C88.745 39.8408 88.5935 39.9233 88.4383 39.9983C88.3398 40.0546 88.23 40.0883 88.1202 40.1071C88.0444 40.1258 87.9649 40.0996 87.9119 40.0396C87.8438 39.9608 87.7567 39.9008 87.662 39.8671C87.4916 39.7696 87.3326 39.6533 87.1887 39.5221C87.1438 39.4777 87.1158 39.4194 87.1091 39.357C86.9652 38.9033 86.7911 38.4608 86.5828 38.0333C86.4881 37.842 86.5828 37.692 86.7835 37.6583C86.9274 37.632 87.0789 37.6545 87.2076 37.722C87.431 37.8383 87.6279 37.9995 87.7832 38.1945C87.8627 38.292 87.9498 38.382 88.0444 38.4645C88.1921 38.6033 88.2982 38.7758 88.3587 38.9708C88.3966 39.0645 88.4307 39.162 88.4761 39.2558C88.5216 39.3495 88.6049 39.3833 88.7147 39.327C88.7904 39.2858 88.8548 39.2295 88.9078 39.1658C88.9646 39.1058 89.0063 39.102 89.082 39.1658C89.9624 39.6859 90.7937 40.2833 91.566 40.9508C91.6342 41.0033 91.6645 41.0858 91.6531 41.1683C91.6345 41.3761 91.5726 41.5779 91.4714 41.7608C91.4524 41.8058 91.3994 41.8546 91.4449 41.9109C91.4865 41.9671 91.5585 41.9521 91.6191 41.9371C91.8841 41.8808 92.1075 41.7158 92.2363 41.4833C92.312 41.3408 92.312 41.3371 92.4521 41.4158C92.9217 41.6633 93.3874 41.9033 93.8683 42.1284C94.3189 42.3496 94.7847 42.5484 95.258 42.7209C95.2277 42.7921 95.1937 42.8596 95.1709 42.9271C95.099 43.1371 95.2012 43.2759 95.4209 43.2571C95.5534 43.2421 95.6821 43.2046 95.7995 43.1484C95.8563 43.1259 95.9131 43.0959 95.9661 43.0621C96.1479 42.9196 96.3902 42.8746 96.6099 42.9421C97.2385 43.0396 97.8784 43.1296 98.4956 43.2196H98.8288C98.9841 43.2196 99.128 43.3021 99.2037 43.4371C99.2681 43.5871 99.234 43.7634 99.1204 43.8796C99.003 44.0109 98.8326 44.1271 98.6357 44.1834V44.1834ZM102.68 42.9646C102.472 43.1896 102.233 43.3771 101.964 43.5309C101.419 43.8421 100.832 44.0859 100.219 44.2471C100.078 44.2884 100.037 44.2471 100.06 44.1084C100.086 44.0221 100.12 43.9396 100.169 43.8609C100.325 43.6021 100.529 43.3734 100.703 43.1146C100.741 43.0659 100.805 43.0434 100.87 43.0509C101.105 43.0546 101.339 43.0284 101.57 42.9721C101.65 42.9534 101.729 42.9271 101.809 42.8934C102.059 42.8071 102.191 42.5371 102.104 42.2859C102.101 42.2746 102.097 42.2596 102.089 42.2484C102.025 42.0496 102.025 42.0534 102.229 42.0009C102.301 41.9896 102.369 41.9821 102.441 41.9784H102.562C102.767 41.9521 102.956 42.0946 102.987 42.3009C102.997 42.3828 102.98 42.466 102.937 42.5371C102.884 42.7021 102.793 42.8446 102.68 42.9646V42.9646Z" fill="black"/>
<path d="M66.3891 51.3575C66.3853 51.3465 66.3853 51.3347 66.3891 51.3237C66.3661 51.3237 66.3315 51.3237 66.3315 51.35C66.3315 51.3575 66.3661 51.3575 66.3891 51.3575Z" fill="black"/>
<path d="M66.2559 36.5031C66.1764 36.5181 66.1802 36.6043 66.1688 36.6718C66.1234 36.9306 66.112 37.1931 66.131 37.4556C66.1461 37.7593 66.1083 38.0631 66.0174 38.3519C65.775 39.1244 65.6501 39.9269 65.6425 40.7369C65.6387 41.0894 65.6614 41.4382 65.7107 41.7907C65.7372 42.0644 65.8015 42.3307 65.9 42.5894C65.9454 42.6944 65.9719 42.8407 66.1234 42.8219C66.2749 42.8032 66.2597 42.6682 66.29 42.5632C66.343 42.3044 66.3506 42.0382 66.3165 41.7794C66.2711 41.2732 66.3317 40.7632 66.4907 40.2831C66.5892 40.0056 66.6611 39.7169 66.7103 39.4244C66.7709 38.9106 66.7633 38.3894 66.6914 37.8793C66.6422 37.4518 66.5324 37.0356 66.3695 36.6381C66.3582 36.5818 66.3355 36.4881 66.2559 36.5031Z" fill="black"/>
<path d="M62.9729 35.6481C62.8707 35.7718 62.7912 35.9106 62.7382 36.0643C62.6208 36.4018 62.4579 36.7243 62.3178 37.0543C62.0982 37.5606 61.9922 38.1081 62.0036 38.6631C61.9922 39.0981 62.0679 39.5331 62.2232 39.9382C62.2573 40.0394 62.3065 40.1294 62.3746 40.2082C62.4466 40.2832 62.511 40.2757 62.5602 40.1857C62.6094 40.0957 62.6359 39.9944 62.6435 39.8932C62.6776 39.6231 62.6851 39.3531 62.6738 39.0831C62.6473 38.6631 62.6927 38.2431 62.8139 37.8381C62.8669 37.6619 62.9161 37.4631 62.9616 37.2981C63.0525 36.9381 63.1244 36.5743 63.1661 36.2031C63.1963 36.0343 63.1963 35.8618 63.1661 35.6893C63.1661 35.6481 63.1471 35.6031 63.1055 35.5881C63.0801 35.5869 63.0549 35.5917 63.0319 35.6021C63.0088 35.6126 62.9886 35.6283 62.9729 35.6481Z" fill="black"/>
<path d="M53.7526 32.3032C53.9723 32.1832 54.173 32.037 54.1086 31.7182C54.3244 31.7707 54.5478 31.7895 54.7675 31.7707C54.8583 31.7707 54.953 31.7445 54.9871 31.6432C55.0212 31.542 54.9303 31.4932 54.8053 31.4482C54.722 31.4145 54.6311 31.3995 54.5403 31.3995C54.4115 31.3957 54.2866 31.422 54.1654 31.4707C54.0404 31.5195 53.9041 31.542 53.7678 31.527C53.7181 31.5329 53.6679 31.5216 53.6258 31.4949C53.5836 31.4682 53.5522 31.4279 53.5368 31.3807C53.48 31.2495 53.4194 31.242 53.2869 31.3095C53.1657 31.377 53.0521 31.4632 52.9574 31.5607C52.7567 31.7632 52.5409 31.9507 52.3175 32.1232C52.0979 32.2995 51.8858 32.4945 51.6889 32.667C51.6435 32.712 51.5829 32.7457 51.5829 32.817C51.5639 32.9895 51.617 33.1657 51.723 33.3045C51.7874 33.3833 51.8782 33.3645 51.9161 33.2632V33.162C52.0146 32.862 52.2455 32.622 52.5447 32.5132C52.4349 32.7382 52.4349 33.0007 52.5447 33.2257C52.628 33.4433 52.8401 33.5933 53.0786 33.597C53.1809 33.597 53.2869 33.597 53.3361 33.4958C53.3853 33.3945 53.2831 33.3457 53.2187 33.2895C53.1482 33.2323 53.0925 33.1592 53.0562 33.0764C53.02 32.9935 53.0043 32.9033 53.0105 32.8132C53.0067 32.7082 53.071 32.6145 53.1733 32.5807C53.3853 32.4945 53.5709 32.4045 53.7526 32.3032V32.3032ZM53.1922 31.827C53.3664 31.872 53.5406 31.902 53.7186 31.9245C53.5633 32.0595 53.3815 32.157 53.1846 32.217C53.1846 32.217 53.1354 32.2395 53.1278 32.217C53.0445 32.1457 53.0483 32.0445 53.0294 31.9507C53.0142 31.8982 53.0445 31.8457 53.0975 31.8307C53.1013 31.8307 53.1051 31.827 53.1089 31.827C53.1365 31.8232 53.1646 31.8232 53.1922 31.827V31.827Z" fill="black"/>
<path d="M56.1341 32.0404C55.9296 32.1904 55.6721 32.2467 55.4222 32.2017C55.3746 32.1941 55.326 32.1941 55.2783 32.2017C55.1761 32.2017 55.1496 32.2429 55.1912 32.3292C55.2367 32.4229 55.3162 32.4979 55.4147 32.5354C55.4866 32.5729 55.5661 32.6029 55.6419 32.6292C55.8956 32.7117 56.0773 32.9292 56.119 33.1879C56.1568 33.3342 56.172 33.4879 56.1644 33.6379V33.6942C56.1644 33.7729 56.1265 33.8854 56.2212 33.9192C56.3159 33.9529 56.3765 33.8479 56.4333 33.7842C56.668 33.4579 56.7362 33.0454 56.6188 32.6629C56.5983 32.6208 56.5876 32.5747 56.5876 32.5279C56.5876 32.4812 56.5983 32.435 56.6188 32.3929C56.6756 32.2879 56.7211 32.1792 56.7513 32.0667C56.7892 31.9616 56.7892 31.8454 56.7513 31.7404C56.6983 31.6016 56.6075 31.5866 56.5052 31.6916C56.4181 31.8079 56.2818 31.9316 56.1341 32.0404V32.0404Z" fill="black"/>
<path d="M53.9643 33.7057C53.9454 33.7844 53.9643 33.8182 54.0438 33.8332C54.2975 33.8894 54.5209 34.0469 54.6573 34.2682C54.7633 34.4182 54.8504 34.5869 54.911 34.7594C54.9299 34.8044 54.9413 34.8532 54.964 34.8982C54.9867 34.9432 55.1079 35.0069 55.176 34.8982C55.229 34.8157 55.2593 34.7182 55.2556 34.6207C55.2293 34.3872 55.1525 34.1622 55.0303 33.9609C54.908 33.7596 54.7434 33.5868 54.5474 33.4544C54.271 33.2744 54.04 33.3757 53.9643 33.7057V33.7057Z" fill="black"/>
<path d="M57.3877 32.6892C57.4445 32.7379 57.5089 32.7717 57.5808 32.7829C57.8762 32.8954 58.145 33.0604 58.376 33.2704C58.4215 33.3079 58.4555 33.3792 58.5275 33.3529C58.5994 33.3229 58.607 33.2404 58.6146 33.1729C58.6259 33.0829 58.607 32.9929 58.5616 32.9142C58.4631 32.7117 58.2813 32.5617 58.0655 32.4979C57.8232 32.4229 57.5543 32.4979 57.3877 32.6892Z" fill="black"/>
</g>
<defs>
<clipPath id="clip0_126_5040">
<rect width="146" height="62" fill="white"/>
</clipPath>
</defs>
</svg>
