<svg width="96" height="24" viewBox="0 0 96 24" fill="none" xmlns="http://www.w3.org/2000/svg">
<path fill-rule="evenodd" clip-rule="evenodd" d="M34.0323 22.4923C31.3177 22.4923 29.889 21.0636 29.889 18.492V10.9199H28.889C28.4603 10.9199 28.0317 10.777 27.746 10.3484C27.4603 10.0627 27.3174 9.63407 27.3174 9.20546C27.3174 8.34824 28.0317 7.63388 29.0318 7.63388H30.0319V5.34796C30.1748 4.34787 30.8891 3.63354 32.0321 3.63354C33.0322 3.63354 33.8894 4.34787 34.0323 5.34796V7.63388H35.6038C36.4611 7.63388 37.1754 8.34825 37.1754 9.34833C37.1754 10.2056 36.4611 10.9199 35.6038 11.0627H33.7465V17.4919C33.7465 18.6348 34.4609 19.0635 35.0323 19.0635H35.3181C36.4611 19.0635 37.0325 19.7778 37.0325 20.635C37.0325 21.4923 36.6039 22.4923 34.0323 22.4923Z" fill="#131313"/>
<path d="M46.1769 22.4923C41.3193 22.4923 38.4619 19.0635 38.4619 14.9203C38.4619 10.777 41.3193 7.34814 46.1769 7.34814C51.0344 7.34814 53.8919 10.777 53.8919 14.9203C54.0347 19.0635 51.0344 22.4923 46.1769 22.4923ZM46.1769 10.7771C43.7481 10.7771 42.4623 12.7772 42.4623 14.9203C42.4623 17.2062 43.7481 19.0635 46.1769 19.0635C48.6057 19.0635 49.8915 17.0633 49.8915 14.9203C50.0344 12.7772 48.6057 10.7771 46.1769 10.7771Z" fill="#131313"/>
<path d="M67.6069 22.3495H67.3212C67.0354 22.3495 65.6067 22.0638 65.6067 20.6351C64.6067 21.778 62.8922 22.4924 61.0349 22.4924C58.749 22.4924 55.8916 20.9208 55.8916 17.7777C55.8916 14.3488 58.6061 13.0629 61.0349 13.0629C63.0351 13.0629 64.7495 13.6344 65.6067 14.7774V12.7772C65.6067 11.3485 64.3209 10.3484 62.4636 10.3484C61.3207 10.3484 60.1777 10.6342 59.1776 11.2057C59.0347 11.3485 58.749 11.3485 58.4633 11.3485C57.606 11.3485 57.0346 10.6342 57.0346 9.91984C57.0346 9.6341 57.1774 9.34836 57.1774 9.20549C58.0346 7.77679 61.3207 7.20532 63.0351 7.20532C66.3211 7.20532 69.4642 8.49113 69.4642 12.6344V20.2064C69.4642 21.4923 68.607 22.3495 67.6069 22.3495ZM65.6067 16.9204C65.0353 16.0632 63.7494 15.6346 62.4636 15.6346C60.8921 15.6346 59.7491 16.349 59.7491 17.7777C59.7491 19.0635 61.0349 19.9207 62.4636 19.9207C63.7494 19.9207 64.8924 19.4921 65.6067 18.6349V16.9204Z" fill="#131313"/>
<path fill-rule="evenodd" clip-rule="evenodd" d="M78.6077 22.4923C76.7504 22.4923 73.6073 21.9209 72.7501 20.6351C72.6072 20.3493 72.4644 20.0636 72.4644 19.7778C72.4644 18.9206 73.1787 18.2063 74.0359 18.2063C74.3216 18.2063 74.6074 18.3491 74.8931 18.492C76.0361 19.2064 77.6077 19.635 78.8935 19.635C80.6079 19.635 81.3223 18.9206 81.3223 18.0634C81.3223 15.6346 72.6072 17.6348 72.6072 11.92C72.6072 9.49121 74.7503 7.34814 78.6077 7.34814C80.465 7.34814 83.1796 7.91964 83.8939 9.0626C84.0368 9.34834 84.1797 9.49121 84.1797 9.77695C84.1797 10.6342 83.4653 11.2056 82.6081 11.2056C82.3224 11.2056 82.0366 11.2056 81.8937 11.0628C80.8937 10.4913 79.7507 10.2055 78.6077 10.2055C77.179 10.2055 76.3218 10.777 76.3218 11.6342C76.3218 13.7773 85.0369 11.92 85.0369 17.7777C84.894 20.4922 82.6081 22.4923 78.6077 22.4923Z" fill="#131313"/>
<path fill-rule="evenodd" clip-rule="evenodd" d="M92.6089 22.4923C89.8944 22.4923 88.4657 21.0636 88.4657 18.492V10.9199H87.4656C87.037 10.9199 86.6084 10.777 86.3227 10.3484C86.0369 10.0627 85.894 9.63407 85.894 9.20546C85.894 8.34824 86.6084 7.63388 87.6085 7.63388H88.6086V5.34796C88.7514 4.34787 89.4658 3.63354 90.6087 3.63354C91.6088 3.63354 92.466 4.34787 92.6089 5.34796V7.63388H94.1805C95.0377 7.63388 95.752 8.34825 95.752 9.34833C95.752 10.2056 95.0377 10.9199 94.1805 11.0627H92.3232V17.4919C92.3232 18.6348 93.0375 19.0635 93.609 19.0635H93.8948C95.0377 19.0635 95.6092 19.7778 95.6092 20.635C95.6092 21.4923 95.1806 22.4923 92.6089 22.4923Z" fill="#131313"/>
<path d="M24.8888 16.6346C24.8888 15.0631 24.8888 13.4915 24.7459 11.9199C24.603 10.9199 24.3173 9.49116 23.1743 9.20542C23.3172 9.20542 23.4601 9.20542 23.6029 9.20542C24.8888 8.49108 24.8888 6.77663 24.3173 5.4908C23.7458 3.91923 22.1742 2.63341 20.7455 1.91906C15.4594 -0.795467 8.31587 -0.652606 3.31543 2.49053C2.0296 3.34775 0.458037 4.91931 1.17239 6.63374C1.31526 7.06235 1.601 7.49099 2.02961 7.77673C2.17248 7.9196 2.60108 8.3482 2.60108 8.3482C1.88673 9.34828 1.45814 10.0626 1.02953 11.2056C0.0294412 14.6345 0.172298 16.7775 0.458037 19.492C0.600907 21.2065 1.1724 23.6353 3.17258 23.921C4.74414 24.2067 6.45857 23.6353 8.03014 23.4924C9.74457 23.3495 11.6019 22.9209 13.3163 23.0638C15.7451 23.0638 18.3167 23.7781 20.7455 23.7781C22.0314 23.7781 24.3173 23.921 24.603 22.2066C25.0316 20.4921 25.0316 18.7777 25.0316 17.2061C24.8888 16.9204 24.8888 16.7775 24.8888 16.6346ZM22.0314 19.492C21.4599 20.9207 19.6026 20.7779 18.4596 20.635C16.6023 20.4921 14.8879 20.0635 13.0306 19.9207C11.459 19.9207 9.74458 20.2064 8.17302 20.4921C7.03006 20.7779 5.3156 21.4922 4.31552 20.4921C3.17256 19.492 2.88682 17.7776 2.88682 16.3489C2.88682 15.0631 3.02969 13.7772 3.31543 12.4914C3.4583 11.6342 3.74404 10.9198 4.02978 10.2055C4.45839 9.06253 5.02987 8.49108 5.17274 8.49108C4.887 8.20534 4.45839 7.91958 4.31552 7.49097C3.4583 5.77653 5.60135 4.34784 6.60144 3.91923C10.4589 2.20479 15.888 2.34766 19.6026 4.63357C20.7456 5.34792 23.0315 7.77671 20.8884 8.91967C22.1742 9.49115 22.46 11.3485 22.6028 12.6343C22.8886 14.7773 22.7457 16.7775 22.46 18.9205C22.1742 19.0634 22.0314 19.2063 22.0314 19.492Z" fill="#131313"/>
</svg>
