<svg width="66" height="16" viewBox="0 0 66 16" fill="none" xmlns="http://www.w3.org/2000/svg">
<mask id="mask0_23_248" style="mask-type:luminance" maskUnits="userSpaceOnUse" x="0" y="0" width="66" height="16">
<path fill-rule="evenodd" clip-rule="evenodd" d="M0.174316 0L65.8259 0V16.0001H0.174316V0Z" fill="white"/>
</mask>
<g mask="url(#mask0_23_248)">
<path fill-rule="evenodd" clip-rule="evenodd" d="M37.643 15.5911H33.4893V0.413496H37.643V2.89142C38.4043 1.17082 40.3428 0.000488281 42.6272 0.000488281C46.7118 0.000488281 48.2003 2.75391 48.2003 6.12661V15.5911H44.0465V6.95269C44.0465 4.61227 43.112 3.27005 41.0696 3.27005C38.9583 3.27005 37.643 4.92214 37.643 7.46883V15.5911Z" fill="#131313"/>
<path fill-rule="evenodd" clip-rule="evenodd" d="M57.7609 12.874C60.3222 12.874 61.6378 10.8779 61.6378 8.02136C61.6378 5.13019 60.3222 3.13402 57.7609 3.13402C55.2342 3.13402 53.9188 5.13019 53.9188 8.02136C53.9188 10.8779 55.2342 12.874 57.7609 12.874ZM57.7603 16.0041C53.0529 16.0041 49.73 12.7346 49.73 8.01964C49.73 3.30443 53.0529 0.000488281 57.7603 0.000488281C62.5022 0.000488281 65.825 3.30443 65.825 8.01964C65.825 12.7346 62.5022 16.0041 57.7603 16.0041Z" fill="#131313"/>
<path fill-rule="evenodd" clip-rule="evenodd" d="M10.7312 0.415527H14.8848V15.5931H10.7312V13.1152C9.96973 14.8359 8.03132 16.0062 5.74686 16.0062C1.66229 16.0062 0.173828 13.2528 0.173828 9.88003V0.415527H4.32755V9.05402C4.32755 11.3944 5.26209 12.7366 7.30447 12.7366C9.41582 12.7366 10.7312 11.0845 10.7312 8.53782V0.415527Z" fill="#131313"/>
<path fill-rule="evenodd" clip-rule="evenodd" d="M24.3765 3.02998C26.6957 3.02998 27.7685 4.71639 27.907 6.47167H20.5689C20.9496 4.5787 22.0918 3.02998 24.3765 3.02998ZM28.0275 11.2759C27.3479 12.3385 26.258 12.8722 24.6533 12.8722C22.4033 12.8722 20.638 11.2892 20.4996 9.0521H31.9569V7.57214C31.9569 3.44212 29.3954 0.000488281 24.411 0.000488281C19.8419 0.000488281 16.415 3.44212 16.415 8.22609C16.415 13.0099 19.8073 16.0041 24.5149 16.0041C27.5001 16.0041 29.7381 14.8403 30.985 12.7902L28.0275 11.2759Z" fill="#131313"/>
</g>
</svg>
