<svg width="102" height="14" viewBox="0 0 102 14" fill="none" xmlns="http://www.w3.org/2000/svg">
<path fill-rule="evenodd" clip-rule="evenodd" d="M0 0.601074V2.45889H3.05477L9.03287 13.6425H16.3892L22.3673 2.44032L25.4216 2.42111L25.4282 0.601074H16.2895V2.42747H18.7233L14.5019 10.3781L9.93646 2.4552L13.2664 2.44032L13.2605 0.601074H0Z" fill="#131313"/>
<path fill-rule="evenodd" clip-rule="evenodd" d="M58.957 0.601074V2.45889H62.0109L67.9891 13.6425H75.3458L81.3239 2.44032L84.3785 2.42111L84.384 0.601074H75.2469V2.42747H77.6796L73.4584 10.3781L68.8925 2.4552L72.2234 2.44032L72.2172 0.601074H58.957Z" fill="#131313"/>
<path fill-rule="evenodd" clip-rule="evenodd" d="M43.9258 0.600957V2.45877H46.98L46.9852 11.5892H43.7651V13.6243L46.9873 13.6425H62.2379V7.57192H60.2513C60.1424 10.786 57.3473 11.5935 56.17 11.5935C55.0912 11.5935 53.001 11.5894 53.001 11.5894V2.45508L56.0093 2.44007L56.0053 0.60083H43.9258V0.600957Z" fill="#131313"/>
<path fill-rule="evenodd" clip-rule="evenodd" d="M33.508 11.9729C31.6777 11.9729 30.1948 9.78588 30.1948 7.08673C30.1948 4.38695 31.6777 2.19832 33.508 2.19832C35.3378 2.19832 36.8212 4.38695 36.8212 7.08673C36.8212 9.78588 35.3378 11.9729 33.508 11.9729ZM33.6426 0.226807C28.4508 0.226807 24.2422 3.31069 24.2422 7.11331C24.2422 10.9162 28.4507 13.9997 33.6426 13.9997C38.8341 13.9997 43.0433 10.9162 43.0433 7.11331C43.0433 3.31069 38.8341 0.226807 33.6426 0.226807Z" fill="#131313"/>
<path fill-rule="evenodd" clip-rule="evenodd" d="M92.4648 11.9376C90.6351 11.9376 89.1523 9.71436 89.1523 6.97057C89.1523 4.22779 90.6353 2.00407 92.4648 2.00407C94.2946 2.00407 95.7772 4.22779 95.7772 6.97057C95.7773 9.71423 94.2946 11.9376 92.4648 11.9376ZM92.6 0.000244141C87.4071 0.000244141 83.1997 3.13437 83.1997 6.99905C83.1997 10.8636 87.407 13.9971 92.6 13.9971C97.7911 13.9971 102 10.8636 102 6.99905C102 3.13437 97.7911 0.000244141 92.6 0.000244141Z" fill="#131313"/>
</svg>
